<ttFont>
<head>
    <!-- Most of this table will be recalculated by the compiler -->
    <tableVersion value="1.0"/>
    <fontRevision value="2.00100708008"/>
    <checkSumAdjustment value="0x3ae18d9a"/>
    <magicNumber value="0x5f0f3cf5"/>
    <flags value="00000000 00011001"/>
    <unitsPerEm value="1000"/>
    <created value="Wed Jun 30 06:20:30 2004"/>
    <modified value="Wed Mar  8 14:45:59 2006"/>
    <xMin value="-166"/>
    <yMin value="-214"/>
    <xMax value="1076"/>
    <yMax value="973"/>
    <macStyle value="00000000 00000000"/>
    <lowestRecPPEM value="9"/>
    <fontDirectionHint value="2"/>
    <indexToLocFormat value="0"/>
    <glyphDataFormat value="0"/>
  </head>
    <TTGlyph name=".notdef" xMin="0" yMin="0" xMax="512" yMax="718">
      <contour>
        <pt x="222" y="117" on="1"/>
        <pt x="222" y="184" on="1"/>
        <pt x="278" y="184" on="1"/>
        <pt x="278" y="117" on="1"/>
      </contour>
      <contour>
        <pt x="225" y="234" on="1"/>
        <pt x="223" y="251" on="1"/>
        <pt x="223" y="306" on="0"/>
        <pt x="249" y="358" on="0"/>
        <pt x="282" y="391" on="1"/>
        <pt x="314" y="422" on="0"/>
        <pt x="332" y="455" on="0"/>
        <pt x="332" y="474" on="1"/>
        <pt x="332" y="510" on="0"/>
        <pt x="287" y="559" on="0"/>
        <pt x="256" y="559" on="1"/>
        <pt x="225" y="559" on="0"/>
        <pt x="180" y="515" on="0"/>
        <pt x="174" y="464" on="1"/>
        <pt x="124" y="472" on="1"/>
        <pt x="131" y="543" on="0"/>
        <pt x="205" y="609" on="0"/>
        <pt x="259" y="609" on="1"/>
        <pt x="312" y="609" on="0"/>
        <pt x="383" y="537" on="0"/>
        <pt x="383" y="478" on="1"/>
        <pt x="383" y="446" on="0"/>
        <pt x="358" y="393" on="0"/>
        <pt x="320" y="358" on="1"/>
        <pt x="283" y="325" on="0"/>
        <pt x="271" y="287" on="0"/>
        <pt x="271" y="234" on="1"/>
      </contour>
      <contour>
        <pt x="462" y="50" on="1"/>
        <pt x="462" y="667" on="1"/>
        <pt x="50" y="667" on="1"/>
        <pt x="50" y="50" on="1"/>
      </contour>
      <contour>
        <pt x="512" y="718" on="1"/>
        <pt x="512" y="0" on="1"/>
        <pt x="0" y="0" on="1"/>
        <pt x="0" y="718" on="1"/>
      </contour>
    </TTGlyph>
    <TTGlyph name="A" xMin="-7" yMin="0" xMax="656" yMax="714">
      <contour>
        <pt x="201" y="295" on="1"/>
        <pt x="443" y="295" on="1"/>
        <pt x="324" y="628" on="1"/>
        <pt x="322" y="628" on="1"/>
      </contour>
      <contour>
        <pt x="272" y="714" on="1"/>
        <pt x="377" y="714" on="1"/>
        <pt x="656" y="0" on="1"/>
        <pt x="551" y="0" on="1"/>
        <pt x="473" y="215" on="1"/>
        <pt x="171" y="215" on="1"/>
        <pt x="91" y="0" on="1"/>
        <pt x="-7" y="0" on="1"/>
      </contour>
    </TTGlyph>
    <TTGlyph name="AE" xMin="-7" yMin="0" xMax="895" yMax="714">
      <contour>
        <pt x="407" y="634" on="1"/>
        <pt x="239" y="288" on="1"/>
        <pt x="448" y="288" on="1"/>
        <pt x="448" y="634" on="1"/>
      </contour>
      <contour>
        <pt x="354" y="714" on="1"/>
        <pt x="889" y="714" on="1"/>
        <pt x="889" y="634" on="1"/>
        <pt x="538" y="634" on="1"/>
        <pt x="538" y="407" on="1"/>
        <pt x="868" y="407" on="1"/>
        <pt x="868" y="327" on="1"/>
        <pt x="538" y="327" on="1"/>
        <pt x="538" y="80" on="1"/>
        <pt x="895" y="80" on="1"/>
        <pt x="895" y="0" on="1"/>
        <pt x="448" y="0" on="1"/>
        <pt x="448" y="208" on="1"/>
        <pt x="202" y="208" on="1"/>
        <pt x="100" y="0" on="1"/>
        <pt x="-7" y="0" on="1"/>
      </contour>
    </TTGlyph>
    <TTGlyph name="Aacute" xMin="-7" yMin="0" xMax="656" yMax="922">
      <component glyphName="A" x="0" y="0" flags="0x204"/>
      <component glyphName="acute" x="226" y="190" flags="0x4"/>
    </TTGlyph>
    <TTGlyph name="Abreve" xMin="-7" yMin="0" xMax="656" yMax="919">
      <component glyphName="A" x="0" y="0" flags="0x204"/>
      <component glyphName="breve" x="212" y="190" flags="0x4"/>
    </TTGlyph>
    <TTGlyph name="Acircumflex" xMin="-7" yMin="0" xMax="656" yMax="922">
      <component glyphName="A" x="0" y="0" flags="0x204"/>
      <component glyphName="circumflex" x="215" y="190" flags="0x4"/>
    </TTGlyph>
    <TTGlyph name="Adieresis" xMin="-7" yMin="0" xMax="656" yMax="897">
      <component glyphName="A" x="0" y="0" flags="0x204"/>
      <component glyphName="dieresis" x="213" y="191" flags="0x4"/>
    </TTGlyph>
    <TTGlyph name="Agrave" xMin="-7" yMin="0" xMax="656" yMax="922">
      <component glyphName="A" x="0" y="0" flags="0x204"/>
      <component glyphName="grave" x="201" y="190" flags="0x4"/>
    </TTGlyph>
    <TTGlyph name="Amacron" xMin="-7" yMin="0" xMax="656" yMax="872">
      <component glyphName="A" x="0" y="0" flags="0x204"/>
      <component glyphName="macron" x="212" y="190" flags="0x4"/>
    </TTGlyph>
    <TTGlyph name="Aogonek" xMin="-7" yMin="-210" xMax="656" yMax="714">
      <contour>
        <pt x="591" y="0" on="1"/>
        <pt x="565" y="-22" on="0"/>
        <pt x="533" y="-54" on="0"/>
        <pt x="514" y="-83" on="0"/>
        <pt x="507" y="-108" on="0"/>
        <pt x="507" y="-118" on="1"/>
        <pt x="507" y="-134" on="0"/>
        <pt x="525" y="-160" on="0"/>
        <pt x="545" y="-160" on="1"/>
        <pt x="568" y="-160" on="0"/>
        <pt x="596" y="-144" on="0"/>
        <pt x="607" y="-130" on="1"/>
        <pt x="639" y="-148" on="1"/>
        <pt x="619" y="-183" on="0"/>
        <pt x="562" y="-210" on="0"/>
        <pt x="531" y="-210" on="1"/>
        <pt x="522" y="-210" on="0"/>
        <pt x="491" y="-207" on="0"/>
        <pt x="461" y="-191" on="0"/>
        <pt x="439" y="-158" on="0"/>
        <pt x="439" y="-128" on="1"/>
        <pt x="439" y="-121" on="0"/>
        <pt x="446" y="-96" on="0"/>
        <pt x="470" y="-61" on="0"/>
        <pt x="515" y="-20" on="0"/>
        <pt x="551" y="0" on="1"/>
        <pt x="473" y="215" on="1"/>
        <pt x="171" y="215" on="1"/>
        <pt x="91" y="0" on="1"/>
        <pt x="-7" y="0" on="1"/>
        <pt x="272" y="714" on="1"/>
        <pt x="377" y="714" on="1"/>
        <pt x="656" y="0" on="1"/>
      </contour>
      <contour>
        <pt x="201" y="295" on="1"/>
        <pt x="443" y="295" on="1"/>
        <pt x="324" y="628" on="1"/>
        <pt x="322" y="628" on="1"/>
      </contour>
    </TTGlyph>
    <TTGlyph name="Aring" xMin="-7" yMin="0" xMax="656" yMax="973">
      <component glyphName="ring" x="213" y="180" flags="0x4"/>
      <component glyphName="A" x="0" y="0" flags="0x4"/>
    </TTGlyph>
    <TTGlyph name="Atilde" xMin="-7" yMin="0" xMax="656" yMax="907">
      <component glyphName="A" x="0" y="0" flags="0x204"/>
      <component glyphName="tilde" x="212" y="190" flags="0x4"/>
    </TTGlyph>
    <TTGlyph name="B" xMin="78" yMin="0" xMax="640" yMax="714">
      <contour>
        <pt x="173" y="407" on="1"/>
        <pt x="363" y="407" on="1"/>
        <pt x="444" y="407" on="0"/>
        <pt x="515" y="464" on="0"/>
        <pt x="515" y="521" on="1"/>
        <pt x="515" y="558" on="0"/>
        <pt x="491" y="603" on="0"/>
        <pt x="449" y="627" on="0"/>
        <pt x="394" y="634" on="0"/>
        <pt x="363" y="634" on="1"/>
        <pt x="173" y="634" on="1"/>
      </contour>
      <contour>
        <pt x="78" y="714" on="1"/>
        <pt x="337" y="714" on="1"/>
        <pt x="361" y="714" on="0"/>
        <pt x="413" y="713" on="0"/>
        <pt x="464" y="708" on="0"/>
        <pt x="510" y="698" on="0"/>
        <pt x="526" y="688" on="1"/>
        <pt x="561" y="667" on="0"/>
        <pt x="610" y="592" on="0"/>
        <pt x="610" y="539" on="1"/>
        <pt x="610" y="482" on="0"/>
        <pt x="554" y="399" on="0"/>
        <pt x="504" y="379" on="1"/>
        <pt x="504" y="377" on="1"/>
        <pt x="570" y="363" on="0"/>
        <pt x="640" y="271" on="0"/>
        <pt x="640" y="205" on="1"/>
        <pt x="640" y="166" on="0"/>
        <pt x="612" y="92" on="0"/>
        <pt x="557" y="35" on="0"/>
        <pt x="476" y="0" on="0"/>
        <pt x="423" y="0" on="1"/>
        <pt x="78" y="0" on="1"/>
      </contour>
      <contour>
        <pt x="173" y="80" on="1"/>
        <pt x="411" y="80" on="1"/>
        <pt x="473" y="80" on="0"/>
        <pt x="545" y="149" on="0"/>
        <pt x="545" y="208" on="1"/>
        <pt x="545" y="243" on="0"/>
        <pt x="519" y="289" on="0"/>
        <pt x="476" y="316" on="0"/>
        <pt x="420" y="327" on="0"/>
        <pt x="390" y="327" on="1"/>
        <pt x="173" y="327" on="1"/>
      </contour>
    </TTGlyph>
    <TTGlyph name="C" xMin="43" yMin="-17" xMax="682" yMax="731">
      <contour>
        <pt x="580" y="499" on="1"/>
        <pt x="572" y="537" on="0"/>
        <pt x="536" y="594" on="0"/>
        <pt x="483" y="632" on="0"/>
        <pt x="417" y="651" on="0"/>
        <pt x="380" y="651" on="1"/>
        <pt x="316" y="651" on="0"/>
        <pt x="225" y="603" on="0"/>
        <pt x="166" y="522" on="0"/>
        <pt x="138" y="418" on="0"/>
        <pt x="138" y="362" on="1"/>
        <pt x="138" y="301" on="0"/>
        <pt x="166" y="192" on="0"/>
        <pt x="225" y="111" on="0"/>
        <pt x="317" y="63" on="0"/>
        <pt x="381" y="63" on="1"/>
        <pt x="428" y="63" on="0"/>
        <pt x="501" y="94" on="0"/>
        <pt x="554" y="149" on="0"/>
        <pt x="584" y="225" on="0"/>
        <pt x="587" y="269" on="1"/>
        <pt x="682" y="269" on="1"/>
        <pt x="668" y="135" on="0"/>
        <pt x="509" y="-17" on="0"/>
        <pt x="373" y="-17" on="1"/>
        <pt x="290" y="-17" on="0"/>
        <pt x="166" y="41" on="0"/>
        <pt x="84" y="141" on="0"/>
        <pt x="43" y="277" on="0"/>
        <pt x="43" y="355" on="1"/>
        <pt x="43" y="433" on="0"/>
        <pt x="87" y="570" on="0"/>
        <pt x="172" y="672" on="0"/>
        <pt x="298" y="731" on="0"/>
        <pt x="381" y="731" on="1"/>
        <pt x="437" y="731" on="0"/>
        <pt x="537" y="701" on="0"/>
        <pt x="615" y="643" on="0"/>
        <pt x="667" y="556" on="0"/>
        <pt x="675" y="499" on="1"/>
      </contour>
    </TTGlyph>
    <TTGlyph name="Cacute" xMin="43" yMin="-17" xMax="682" yMax="922">
      <component glyphName="C" x="0" y="0" flags="0x204"/>
      <component glyphName="acute" x="296" y="190" flags="0x4"/>
    </TTGlyph>
    <TTGlyph name="Ccaron" xMin="43" yMin="-17" xMax="682" yMax="922">
      <component glyphName="C" x="0" y="0" flags="0x204"/>
      <component glyphName="caron" x="266" y="190" flags="0x4"/>
    </TTGlyph>
    <TTGlyph name="Ccedilla" xMin="43" yMin="-210" xMax="682" yMax="731">
      <contour>
        <pt x="580" y="499" on="1"/>
        <pt x="572" y="537" on="0"/>
        <pt x="536" y="594" on="0"/>
        <pt x="483" y="632" on="0"/>
        <pt x="417" y="651" on="0"/>
        <pt x="380" y="651" on="1"/>
        <pt x="316" y="651" on="0"/>
        <pt x="225" y="603" on="0"/>
        <pt x="166" y="522" on="0"/>
        <pt x="138" y="418" on="0"/>
        <pt x="138" y="362" on="1"/>
        <pt x="138" y="301" on="0"/>
        <pt x="166" y="192" on="0"/>
        <pt x="225" y="111" on="0"/>
        <pt x="317" y="63" on="0"/>
        <pt x="381" y="63" on="1"/>
        <pt x="428" y="63" on="0"/>
        <pt x="501" y="94" on="0"/>
        <pt x="554" y="149" on="0"/>
        <pt x="584" y="225" on="0"/>
        <pt x="587" y="269" on="1"/>
        <pt x="682" y="269" on="1"/>
        <pt x="668" y="137" on="0"/>
        <pt x="513" y="-14" on="0"/>
        <pt x="381" y="-16" on="1"/>
        <pt x="352" y="-53" on="1"/>
        <pt x="354" y="-55" on="1"/>
        <pt x="364" y="-48" on="0"/>
        <pt x="387" y="-48" on="1"/>
        <pt x="403" y="-48" on="0"/>
        <pt x="433" y="-57" on="0"/>
        <pt x="457" y="-75" on="0"/>
        <pt x="471" y="-103" on="0"/>
        <pt x="471" y="-121" on="1"/>
        <pt x="471" y="-146" on="0"/>
        <pt x="448" y="-180" on="0"/>
        <pt x="412" y="-201" on="0"/>
        <pt x="368" y="-210" on="0"/>
        <pt x="347" y="-210" on="1"/>
        <pt x="323" y="-210" on="0"/>
        <pt x="278" y="-199" on="0"/>
        <pt x="255" y="-191" on="1"/>
        <pt x="273" y="-147" on="1"/>
        <pt x="285" y="-152" on="0"/>
        <pt x="318" y="-160" on="0"/>
        <pt x="334" y="-160" on="1"/>
        <pt x="344" y="-160" on="0"/>
        <pt x="366" y="-157" on="0"/>
        <pt x="384" y="-149" on="0"/>
        <pt x="396" y="-138" on="0"/>
        <pt x="396" y="-129" on="1"/>
        <pt x="396" y="-115" on="0"/>
        <pt x="369" y="-98" on="0"/>
        <pt x="349" y="-98" on="1"/>
        <pt x="337" y="-98" on="0"/>
        <pt x="319" y="-102" on="0"/>
        <pt x="308" y="-106" on="1"/>
        <pt x="291" y="-78" on="1"/>
        <pt x="340" y="-15" on="1"/>
        <pt x="265" y="-9" on="0"/>
        <pt x="153" y="52" on="0"/>
        <pt x="80" y="151" on="0"/>
        <pt x="43" y="281" on="0"/>
        <pt x="43" y="355" on="1"/>
        <pt x="43" y="433" on="0"/>
        <pt x="87" y="570" on="0"/>
        <pt x="172" y="672" on="0"/>
        <pt x="298" y="731" on="0"/>
        <pt x="381" y="731" on="1"/>
        <pt x="437" y="731" on="0"/>
        <pt x="537" y="701" on="0"/>
        <pt x="615" y="643" on="0"/>
        <pt x="667" y="556" on="0"/>
        <pt x="675" y="499" on="1"/>
      </contour>
    </TTGlyph>
    <TTGlyph name="Ccircumflex" xMin="43" yMin="-17" xMax="682" yMax="922">
      <component glyphName="C" x="0" y="0" flags="0x204"/>
      <component glyphName="circumflex" x="275" y="190" flags="0x4"/>
    </TTGlyph>
    <TTGlyph name="Cdotaccent" xMin="43" yMin="-17" xMax="682" yMax="898">
      <component glyphName="C" x="0" y="0" flags="0x204"/>
      <component glyphName="dotaccent" x="266" y="190" flags="0x4"/>
    </TTGlyph>
    <TTGlyph name="D" xMin="78" yMin="0" xMax="666" yMax="714">
      <contour>
        <pt x="173" y="80" on="1"/>
        <pt x="331" y="80" on="1"/>
        <pt x="347" y="80" on="0"/>
        <pt x="395" y="85" on="0"/>
        <pt x="449" y="104" on="0"/>
        <pt x="502" y="140" on="0"/>
        <pt x="544" y="202" on="0"/>
        <pt x="571" y="295" on="0"/>
        <pt x="571" y="361" on="1"/>
        <pt x="571" y="425" on="0"/>
        <pt x="546" y="526" on="0"/>
        <pt x="489" y="596" on="0"/>
        <pt x="399" y="634" on="0"/>
        <pt x="333" y="634" on="1"/>
        <pt x="173" y="634" on="1"/>
      </contour>
      <contour>
        <pt x="78" y="714" on="1"/>
        <pt x="323" y="714" on="1"/>
        <pt x="488" y="714" on="0"/>
        <pt x="666" y="546" on="0"/>
        <pt x="666" y="374" on="1"/>
        <pt x="666" y="284" on="0"/>
        <pt x="626" y="145" on="0"/>
        <pt x="542" y="50" on="0"/>
        <pt x="412" y="0" on="0"/>
        <pt x="323" y="0" on="1"/>
        <pt x="78" y="0" on="1"/>
      </contour>
    </TTGlyph>
    <TTGlyph name="Dcaron" xMin="78" yMin="0" xMax="666" yMax="922">
      <component glyphName="D" x="0" y="0" flags="0x204"/>
      <component glyphName="caron" x="206" y="190" flags="0x4"/>
    </TTGlyph>
    <TTGlyph name="Dcroat" xMin="8" yMin="0" xMax="666" yMax="714">
      <contour>
        <pt x="173" y="407" on="1"/>
        <pt x="387" y="407" on="1"/>
        <pt x="387" y="339" on="1"/>
        <pt x="173" y="339" on="1"/>
        <pt x="173" y="80" on="1"/>
        <pt x="331" y="80" on="1"/>
        <pt x="347" y="80" on="0"/>
        <pt x="395" y="85" on="0"/>
        <pt x="449" y="104" on="0"/>
        <pt x="502" y="140" on="0"/>
        <pt x="544" y="202" on="0"/>
        <pt x="571" y="295" on="0"/>
        <pt x="571" y="361" on="1"/>
        <pt x="571" y="425" on="0"/>
        <pt x="546" y="526" on="0"/>
        <pt x="489" y="596" on="0"/>
        <pt x="399" y="634" on="0"/>
        <pt x="333" y="634" on="1"/>
        <pt x="173" y="634" on="1"/>
      </contour>
      <contour>
        <pt x="78" y="339" on="1"/>
        <pt x="8" y="339" on="1"/>
        <pt x="8" y="407" on="1"/>
        <pt x="78" y="407" on="1"/>
        <pt x="78" y="714" on="1"/>
        <pt x="323" y="714" on="1"/>
        <pt x="488" y="714" on="0"/>
        <pt x="666" y="546" on="0"/>
        <pt x="666" y="374" on="1"/>
        <pt x="666" y="284" on="0"/>
        <pt x="626" y="145" on="0"/>
        <pt x="542" y="50" on="0"/>
        <pt x="412" y="0" on="0"/>
        <pt x="323" y="0" on="1"/>
        <pt x="78" y="0" on="1"/>
      </contour>
    </TTGlyph>
    <TTGlyph name="Delta" xMin="13" yMin="0" xMax="662" yMax="712">
      <contour>
        <pt x="333" y="628" on="1"/>
        <pt x="120" y="72" on="1"/>
        <pt x="550" y="72" on="1"/>
      </contour>
      <contour>
        <pt x="13" y="0" on="1"/>
        <pt x="292" y="712" on="1"/>
        <pt x="375" y="712" on="1"/>
        <pt x="662" y="0" on="1"/>
      </contour>
    </TTGlyph>
    <TTGlyph name="E" xMin="78" yMin="0" xMax="574" yMax="714">
      <contour>
        <pt x="78" y="714" on="1"/>
        <pt x="571" y="714" on="1"/>
        <pt x="571" y="634" on="1"/>
        <pt x="173" y="634" on="1"/>
        <pt x="173" y="407" on="1"/>
        <pt x="544" y="407" on="1"/>
        <pt x="544" y="327" on="1"/>
        <pt x="173" y="327" on="1"/>
        <pt x="173" y="80" on="1"/>
        <pt x="574" y="80" on="1"/>
        <pt x="574" y="0" on="1"/>
        <pt x="78" y="0" on="1"/>
      </contour>
    </TTGlyph>
    <TTGlyph name="Eacute" xMin="78" yMin="0" xMax="574" yMax="922">
      <component glyphName="E" x="0" y="0" flags="0x204"/>
      <component glyphName="acute" x="234" y="190" flags="0x4"/>
    </TTGlyph>
    <TTGlyph name="Ebreve" xMin="78" yMin="0" xMax="574" yMax="919">
      <component glyphName="E" x="0" y="0" flags="0x204"/>
      <component glyphName="breve" x="208" y="190" flags="0x4"/>
    </TTGlyph>
    <TTGlyph name="Ecaron" xMin="78" yMin="0" xMax="574" yMax="922">
      <component glyphName="E" x="0" y="0" flags="0x204"/>
      <component glyphName="caron" x="212" y="190" flags="0x4"/>
    </TTGlyph>
    <TTGlyph name="Ecircumflex" xMin="78" yMin="0" xMax="574" yMax="922">
      <component glyphName="E" x="0" y="0" flags="0x204"/>
      <component glyphName="circumflex" x="214" y="190" flags="0x4"/>
    </TTGlyph>
    <TTGlyph name="Edieresis" xMin="78" yMin="0" xMax="574" yMax="896">
      <component glyphName="E" x="0" y="0" flags="0x204"/>
      <component glyphName="dieresis" x="217" y="190" flags="0x4"/>
    </TTGlyph>
    <TTGlyph name="Edotaccent" xMin="78" yMin="0" xMax="574" yMax="898">
      <component glyphName="E" x="0" y="0" flags="0x204"/>
      <component glyphName="dotaccent" x="214" y="190" flags="0x4"/>
    </TTGlyph>
    <TTGlyph name="Egrave" xMin="78" yMin="0" xMax="574" yMax="922">
      <component glyphName="E" x="0" y="0" flags="0x204"/>
      <component glyphName="grave" x="191" y="190" flags="0x4"/>
    </TTGlyph>
    <TTGlyph name="Emacron" xMin="78" yMin="0" xMax="574" yMax="872">
      <component glyphName="E" x="0" y="0" flags="0x204"/>
      <component glyphName="macron" x="217" y="190" flags="0x4"/>
    </TTGlyph>
    <TTGlyph name="Eogonek" xMin="78" yMin="-210" xMax="574" yMax="714">
      <contour>
        <pt x="526" y="0" on="1"/>
        <pt x="500" y="-22" on="0"/>
        <pt x="468" y="-54" on="0"/>
        <pt x="449" y="-83" on="0"/>
        <pt x="442" y="-108" on="0"/>
        <pt x="442" y="-118" on="1"/>
        <pt x="442" y="-134" on="0"/>
        <pt x="460" y="-160" on="0"/>
        <pt x="480" y="-160" on="1"/>
        <pt x="503" y="-160" on="0"/>
        <pt x="531" y="-144" on="0"/>
        <pt x="542" y="-130" on="1"/>
        <pt x="574" y="-148" on="1"/>
        <pt x="554" y="-183" on="0"/>
        <pt x="497" y="-210" on="0"/>
        <pt x="466" y="-210" on="1"/>
        <pt x="457" y="-210" on="0"/>
        <pt x="426" y="-207" on="0"/>
        <pt x="396" y="-191" on="0"/>
        <pt x="374" y="-158" on="0"/>
        <pt x="374" y="-128" on="1"/>
        <pt x="374" y="-121" on="0"/>
        <pt x="381" y="-96" on="0"/>
        <pt x="405" y="-61" on="0"/>
        <pt x="450" y="-20" on="0"/>
        <pt x="486" y="0" on="1"/>
        <pt x="78" y="0" on="1"/>
        <pt x="78" y="714" on="1"/>
        <pt x="571" y="714" on="1"/>
        <pt x="571" y="634" on="1"/>
        <pt x="173" y="634" on="1"/>
        <pt x="173" y="407" on="1"/>
        <pt x="544" y="407" on="1"/>
        <pt x="544" y="327" on="1"/>
        <pt x="173" y="327" on="1"/>
        <pt x="173" y="80" on="1"/>
        <pt x="574" y="80" on="1"/>
        <pt x="574" y="0" on="1"/>
      </contour>
    </TTGlyph>
    <TTGlyph name="Eth" xMin="8" yMin="0" xMax="666" yMax="714">
      <contour>
        <pt x="173" y="407" on="1"/>
        <pt x="387" y="407" on="1"/>
        <pt x="387" y="339" on="1"/>
        <pt x="173" y="339" on="1"/>
        <pt x="173" y="80" on="1"/>
        <pt x="331" y="80" on="1"/>
        <pt x="347" y="80" on="0"/>
        <pt x="395" y="85" on="0"/>
        <pt x="449" y="104" on="0"/>
        <pt x="502" y="140" on="0"/>
        <pt x="544" y="202" on="0"/>
        <pt x="571" y="295" on="0"/>
        <pt x="571" y="361" on="1"/>
        <pt x="571" y="425" on="0"/>
        <pt x="546" y="526" on="0"/>
        <pt x="489" y="596" on="0"/>
        <pt x="399" y="634" on="0"/>
        <pt x="333" y="634" on="1"/>
        <pt x="173" y="634" on="1"/>
      </contour>
      <contour>
        <pt x="78" y="339" on="1"/>
        <pt x="8" y="339" on="1"/>
        <pt x="8" y="407" on="1"/>
        <pt x="78" y="407" on="1"/>
        <pt x="78" y="714" on="1"/>
        <pt x="323" y="714" on="1"/>
        <pt x="488" y="714" on="0"/>
        <pt x="666" y="546" on="0"/>
        <pt x="666" y="374" on="1"/>
        <pt x="666" y="284" on="0"/>
        <pt x="626" y="145" on="0"/>
        <pt x="542" y="50" on="0"/>
        <pt x="412" y="0" on="0"/>
        <pt x="323" y="0" on="1"/>
        <pt x="78" y="0" on="1"/>
      </contour>
    </TTGlyph>
    <TTGlyph name="Euro" xMin="13" yMin="-16" xMax="558" yMax="725">
      <contour>
        <pt x="512" y="579" on="1"/>
        <pt x="441" y="648" on="0"/>
        <pt x="369" y="648" on="1"/>
        <pt x="294" y="648" on="0"/>
        <pt x="245" y="584" on="1"/>
        <pt x="206" y="533" on="0"/>
        <pt x="189" y="450" on="1"/>
        <pt x="472" y="450" on="1"/>
        <pt x="445" y="389" on="1"/>
        <pt x="182" y="389" on="1"/>
        <pt x="181" y="381" on="0"/>
        <pt x="181" y="373" on="1"/>
        <pt x="181" y="365" on="0"/>
        <pt x="181" y="358" on="1"/>
        <pt x="181" y="352" on="0"/>
        <pt x="181" y="347" on="1"/>
        <pt x="181" y="342" on="0"/>
        <pt x="182" y="337" on="1"/>
        <pt x="431" y="337" on="1"/>
        <pt x="405" y="276" on="1"/>
        <pt x="187" y="276" on="1"/>
        <pt x="220" y="61" on="0"/>
        <pt x="377" y="61" on="1"/>
        <pt x="425" y="61" on="0"/>
        <pt x="462" y="80" on="1"/>
        <pt x="489" y="94" on="0"/>
        <pt x="531" y="133" on="1"/>
        <pt x="531" y="28" on="1"/>
        <pt x="463" y="-16" on="0"/>
        <pt x="377" y="-16" on="1"/>
        <pt x="132" y="-16" on="0"/>
        <pt x="90" y="276" on="1"/>
        <pt x="13" y="276" on="1"/>
        <pt x="40" y="337" on="1"/>
        <pt x="86" y="337" on="1"/>
        <pt x="85" y="342" on="0"/>
        <pt x="85" y="347" on="1"/>
        <pt x="85" y="352" on="0"/>
        <pt x="85" y="357" on="1"/>
        <pt x="85" y="366" on="0"/>
        <pt x="85" y="374" on="1"/>
        <pt x="85" y="382" on="0"/>
        <pt x="86" y="389" on="1"/>
        <pt x="13" y="389" on="1"/>
        <pt x="39" y="450" on="1"/>
        <pt x="93" y="450" on="1"/>
        <pt x="117" y="573" on="0"/>
        <pt x="184" y="644" on="1"/>
        <pt x="259" y="725" on="0"/>
        <pt x="377" y="725" on="1"/>
        <pt x="468" y="725" on="0"/>
        <pt x="558" y="662" on="1"/>
      </contour>
    </TTGlyph>
    <TTGlyph name="F" xMin="78" yMin="0" xMax="547" yMax="714">
      <contour>
        <pt x="78" y="714" on="1"/>
        <pt x="547" y="714" on="1"/>
        <pt x="547" y="634" on="1"/>
        <pt x="173" y="634" on="1"/>
        <pt x="173" y="407" on="1"/>
        <pt x="501" y="407" on="1"/>
        <pt x="501" y="327" on="1"/>
        <pt x="173" y="327" on="1"/>
        <pt x="173" y="0" on="1"/>
        <pt x="78" y="0" on="1"/>
      </contour>
    </TTGlyph>
    <TTGlyph name="G" xMin="43" yMin="-17" xMax="697" yMax="731">
      <contour>
        <pt x="612" y="89" on="1"/>
        <pt x="591" y="61" on="0"/>
        <pt x="538" y="21" on="0"/>
        <pt x="478" y="-5" on="0"/>
        <pt x="414" y="-17" on="0"/>
        <pt x="383" y="-17" on="1"/>
        <pt x="303" y="-17" on="0"/>
        <pt x="177" y="43" on="0"/>
        <pt x="89" y="143" on="0"/>
        <pt x="43" y="273" on="0"/>
        <pt x="43" y="343" on="1"/>
        <pt x="43" y="421" on="0"/>
        <pt x="86" y="562" on="0"/>
        <pt x="171" y="668" on="0"/>
        <pt x="298" y="731" on="0"/>
        <pt x="383" y="731" on="1"/>
        <pt x="441" y="731" on="0"/>
        <pt x="544" y="704" on="0"/>
        <pt x="625" y="646" on="0"/>
        <pt x="680" y="557" on="0"/>
        <pt x="690" y="494" on="1"/>
        <pt x="595" y="494" on="1"/>
        <pt x="588" y="534" on="0"/>
        <pt x="550" y="594" on="0"/>
        <pt x="494" y="632" on="0"/>
        <pt x="423" y="651" on="0"/>
        <pt x="383" y="651" on="1"/>
        <pt x="318" y="651" on="0"/>
        <pt x="225" y="599" on="0"/>
        <pt x="166" y="514" on="0"/>
        <pt x="138" y="405" on="0"/>
        <pt x="138" y="348" on="1"/>
        <pt x="138" y="292" on="0"/>
        <pt x="170" y="189" on="0"/>
        <pt x="232" y="110" on="0"/>
        <pt x="323" y="63" on="0"/>
        <pt x="383" y="63" on="1"/>
        <pt x="438" y="63" on="0"/>
        <pt x="525" y="99" on="0"/>
        <pt x="585" y="162" on="0"/>
        <pt x="614" y="247" on="0"/>
        <pt x="612" y="296" on="1"/>
        <pt x="384" y="296" on="1"/>
        <pt x="384" y="376" on="1"/>
        <pt x="697" y="376" on="1"/>
        <pt x="697" y="0" on="1"/>
        <pt x="637" y="0" on="1"/>
      </contour>
    </TTGlyph>
    <TTGlyph name="Gbreve" xMin="43" yMin="-17" xMax="697" yMax="919">
      <component glyphName="G" x="0" y="0" flags="0x204"/>
      <component glyphName="breve" x="270" y="190" flags="0x4"/>
    </TTGlyph>
    <TTGlyph name="Gcircumflex" xMin="43" yMin="-17" xMax="697" yMax="922">
      <component glyphName="G" x="0" y="0" flags="0x204"/>
      <component glyphName="circumflex" x="282" y="190" flags="0x4"/>
    </TTGlyph>
    <TTGlyph name="Gcommaaccent" xMin="43" yMin="-210" xMax="697" yMax="731">
      <component glyphName="G" x="0" y="0" flags="0x204"/>
      <component glyphName="commaaccent" x="240" y="0" flags="0x4"/>
    </TTGlyph>
    <TTGlyph name="Gdotaccent" xMin="43" yMin="-17" xMax="697" yMax="898">
      <component glyphName="G" x="0" y="0" flags="0x204"/>
      <component glyphName="dotaccent" x="273" y="190" flags="0x4"/>
    </TTGlyph>
    <TTGlyph name="H" xMin="78" yMin="0" xMax="644" yMax="714">
      <contour>
        <pt x="78" y="714" on="1"/>
        <pt x="173" y="714" on="1"/>
        <pt x="173" y="407" on="1"/>
        <pt x="549" y="407" on="1"/>
        <pt x="549" y="714" on="1"/>
        <pt x="644" y="714" on="1"/>
        <pt x="644" y="0" on="1"/>
        <pt x="549" y="0" on="1"/>
        <pt x="549" y="327" on="1"/>
        <pt x="173" y="327" on="1"/>
        <pt x="173" y="0" on="1"/>
        <pt x="78" y="0" on="1"/>
      </contour>
    </TTGlyph>
    <TTGlyph name="Hbar" xMin="78" yMin="0" xMax="644" yMax="714">
      <contour>
        <pt x="78" y="714" on="1"/>
        <pt x="173" y="714" on="1"/>
        <pt x="173" y="517" on="1"/>
        <pt x="549" y="517" on="1"/>
        <pt x="549" y="714" on="1"/>
        <pt x="644" y="714" on="1"/>
        <pt x="644" y="0" on="1"/>
        <pt x="549" y="0" on="1"/>
        <pt x="549" y="317" on="1"/>
        <pt x="173" y="317" on="1"/>
        <pt x="173" y="0" on="1"/>
        <pt x="78" y="0" on="1"/>
      </contour>
      <contour>
        <pt x="549" y="397" on="1"/>
        <pt x="549" y="462" on="1"/>
        <pt x="173" y="462" on="1"/>
        <pt x="173" y="397" on="1"/>
      </contour>
    </TTGlyph>
    <TTGlyph name="Hcircumflex" xMin="78" yMin="0" xMax="644" yMax="922">
      <component glyphName="H" x="0" y="0" flags="0x204"/>
      <component glyphName="circumflex" x="248" y="190" flags="0x4"/>
    </TTGlyph>
    <TTGlyph name="I" xMin="82" yMin="0" xMax="177" yMax="714">
      <contour>
        <pt x="82" y="714" on="1"/>
        <pt x="177" y="714" on="1"/>
        <pt x="177" y="0" on="1"/>
        <pt x="82" y="0" on="1"/>
      </contour>
    </TTGlyph>
    <TTGlyph name="IJ" xMin="82" yMin="-17" xMax="702" yMax="714">
      <component glyphName="I" x="0" y="0" flags="0x4"/>
      <component glyphName="J" x="261" y="0" flags="0x4"/>
    </TTGlyph>
    <TTGlyph name="Iacute" xMin="82" yMin="0" xMax="278" yMax="922">
      <component glyphName="I" x="0" y="0" flags="0x204"/>
      <component glyphName="acute" x="33" y="190" flags="0x4"/>
    </TTGlyph>
    <TTGlyph name="Icircumflex" xMin="-16" yMin="0" xMax="284" yMax="922">
      <component glyphName="I" x="0" y="0" flags="0x204"/>
      <component glyphName="circumflex" x="23" y="190" flags="0x4"/>
    </TTGlyph>
    <TTGlyph name="Idieresis" xMin="-9" yMin="0" xMax="269" yMax="896">
      <component glyphName="I" x="0" y="0" flags="0x204"/>
      <component glyphName="dieresis" x="19" y="190" flags="0x4"/>
    </TTGlyph>
    <TTGlyph name="Idotaccent" xMin="82" yMin="0" xMax="177" yMax="898">
      <component glyphName="I" x="0" y="0" flags="0x204"/>
      <component glyphName="dotaccent" x="19" y="190" flags="0x4"/>
    </TTGlyph>
    <TTGlyph name="Igrave" xMin="-18" yMin="0" xMax="177" yMax="922">
      <component glyphName="I" x="0" y="0" flags="0x204"/>
      <component glyphName="grave" x="5" y="190" flags="0x4"/>
    </TTGlyph>
    <TTGlyph name="Imacron" xMin="-40" yMin="0" xMax="301" yMax="872">
      <component glyphName="I" x="0" y="0" flags="0x204"/>
      <component glyphName="macron" x="19" y="190" flags="0x4"/>
    </TTGlyph>
    <TTGlyph name="Iogonek" xMin="40" yMin="-210" xMax="220" yMax="714">
      <contour>
        <pt x="82" y="714" on="1"/>
        <pt x="177" y="714" on="1"/>
        <pt x="177" y="0" on="1"/>
        <pt x="154" y="-22" on="0"/>
        <pt x="125" y="-54" on="0"/>
        <pt x="108" y="-83" on="0"/>
        <pt x="102" y="-108" on="0"/>
        <pt x="102" y="-118" on="1"/>
        <pt x="102" y="-137" on="0"/>
        <pt x="120" y="-160" on="0"/>
        <pt x="136" y="-160" on="1"/>
        <pt x="155" y="-160" on="0"/>
        <pt x="181" y="-144" on="0"/>
        <pt x="192" y="-130" on="1"/>
        <pt x="220" y="-148" on="1"/>
        <pt x="201" y="-182" on="0"/>
        <pt x="156" y="-210" on="0"/>
        <pt x="129" y="-210" on="1"/>
        <pt x="121" y="-210" on="0"/>
        <pt x="92" y="-207" on="0"/>
        <pt x="62" y="-191" on="0"/>
        <pt x="40" y="-158" on="0"/>
        <pt x="40" y="-128" on="1"/>
        <pt x="40" y="-121" on="0"/>
        <pt x="47" y="-94" on="0"/>
        <pt x="68" y="-61" on="0"/>
        <pt x="109" y="-20" on="0"/>
        <pt x="141" y="0" on="1"/>
        <pt x="82" y="0" on="1"/>
      </contour>
    </TTGlyph>
    <TTGlyph name="Itilde" xMin="-41" yMin="0" xMax="302" yMax="907">
      <component glyphName="I" x="0" y="0" flags="0x204"/>
      <component glyphName="tilde" x="17" y="190" flags="0x4"/>
    </TTGlyph>
    <TTGlyph name="J" xMin="22" yMin="-17" xMax="441" yMax="714">
      <contour>
        <pt x="441" y="178" on="1"/>
        <pt x="441" y="142" on="0"/>
        <pt x="420" y="72" on="0"/>
        <pt x="371" y="17" on="0"/>
        <pt x="290" y="-17" on="0"/>
        <pt x="230" y="-17" on="1"/>
        <pt x="130" y="-17" on="0"/>
        <pt x="22" y="90" on="0"/>
        <pt x="22" y="191" on="1"/>
        <pt x="22" y="235" on="1"/>
        <pt x="117" y="235" on="1"/>
        <pt x="117" y="205" on="1"/>
        <pt x="117" y="174" on="0"/>
        <pt x="127" y="122" on="0"/>
        <pt x="152" y="84" on="0"/>
        <pt x="197" y="63" on="0"/>
        <pt x="232" y="63" on="1"/>
        <pt x="297" y="63" on="0"/>
        <pt x="346" y="133" on="0"/>
        <pt x="346" y="192" on="1"/>
        <pt x="346" y="714" on="1"/>
        <pt x="441" y="714" on="1"/>
      </contour>
    </TTGlyph>
    <TTGlyph name="Jcircumflex" xMin="22" yMin="-17" xMax="541" yMax="922">
      <component glyphName="J" x="0" y="0" flags="0x204"/>
      <component glyphName="circumflex" x="280" y="190" flags="0x4"/>
    </TTGlyph>
    <TTGlyph name="K" xMin="78" yMin="0" xMax="670" yMax="714">
      <contour>
        <pt x="78" y="714" on="1"/>
        <pt x="173" y="714" on="1"/>
        <pt x="173" y="358" on="1"/>
        <pt x="535" y="714" on="1"/>
        <pt x="658" y="714" on="1"/>
        <pt x="357" y="426" on="1"/>
        <pt x="670" y="0" on="1"/>
        <pt x="550" y="0" on="1"/>
        <pt x="292" y="361" on="1"/>
        <pt x="173" y="250" on="1"/>
        <pt x="173" y="0" on="1"/>
        <pt x="78" y="0" on="1"/>
      </contour>
    </TTGlyph>
    <TTGlyph name="Kcommaaccent" xMin="78" yMin="-210" xMax="670" yMax="714">
      <component glyphName="K" x="0" y="0" flags="0x204"/>
      <component glyphName="commaaccent" x="205" y="0" flags="0x4"/>
    </TTGlyph>
    <TTGlyph name="L" xMin="78" yMin="0" xMax="551" yMax="714">
      <contour>
        <pt x="78" y="714" on="1"/>
        <pt x="173" y="714" on="1"/>
        <pt x="173" y="80" on="1"/>
        <pt x="551" y="80" on="1"/>
        <pt x="551" y="0" on="1"/>
        <pt x="78" y="0" on="1"/>
      </contour>
    </TTGlyph>
    <TTGlyph name="Lacute" xMin="78" yMin="0" xMax="551" yMax="922">
      <component glyphName="L" x="0" y="0" flags="0x204"/>
      <component glyphName="acute" x="43" y="190" flags="0x4"/>
    </TTGlyph>
    <TTGlyph name="Lcaron" xMin="78" yMin="0" xMax="551" yMax="714">
      <component glyphName="L" x="0" y="0" flags="0x204"/>
      <component glyphName="carontwo" x="200" y="0" flags="0x4"/>
    </TTGlyph>
    <TTGlyph name="Lcommaaccent" xMin="78" yMin="-210" xMax="551" yMax="714">
      <component glyphName="L" x="0" y="0" flags="0x204"/>
      <component glyphName="commaaccent" x="162" y="0" flags="0x4"/>
    </TTGlyph>
    <TTGlyph name="Ldot" xMin="78" yMin="0" xMax="551" yMax="714">
      <component glyphName="L" x="0" y="0" flags="0x204"/>
      <component glyphName="dotaccent" x="243" y="-190" flags="0x4"/>
    </TTGlyph>
    <TTGlyph name="Lslash" xMin="-1" yMin="0" xMax="551" yMax="714">
      <contour>
        <pt x="78" y="240" on="1"/>
        <pt x="-1" y="184" on="1"/>
        <pt x="-1" y="260" on="1"/>
        <pt x="78" y="316" on="1"/>
        <pt x="78" y="714" on="1"/>
        <pt x="173" y="714" on="1"/>
        <pt x="173" y="384" on="1"/>
        <pt x="401" y="544" on="1"/>
        <pt x="401" y="468" on="1"/>
        <pt x="173" y="308" on="1"/>
        <pt x="173" y="80" on="1"/>
        <pt x="551" y="80" on="1"/>
        <pt x="551" y="0" on="1"/>
        <pt x="78" y="0" on="1"/>
      </contour>
    </TTGlyph>
    <TTGlyph name="M" xMin="80" yMin="0" xMax="791" yMax="714">
      <contour>
        <pt x="80" y="714" on="1"/>
        <pt x="210" y="714" on="1"/>
        <pt x="435" y="114" on="1"/>
        <pt x="661" y="714" on="1"/>
        <pt x="791" y="714" on="1"/>
        <pt x="791" y="0" on="1"/>
        <pt x="701" y="0" on="1"/>
        <pt x="701" y="594" on="1"/>
        <pt x="699" y="594" on="1"/>
        <pt x="476" y="0" on="1"/>
        <pt x="395" y="0" on="1"/>
        <pt x="172" y="594" on="1"/>
        <pt x="170" y="594" on="1"/>
        <pt x="170" y="0" on="1"/>
        <pt x="80" y="0" on="1"/>
      </contour>
    </TTGlyph>
    <TTGlyph name="N" xMin="77" yMin="0" xMax="646" yMax="714">
      <contour>
        <pt x="77" y="714" on="1"/>
        <pt x="178" y="714" on="1"/>
        <pt x="554" y="135" on="1"/>
        <pt x="556" y="135" on="1"/>
        <pt x="556" y="714" on="1"/>
        <pt x="646" y="714" on="1"/>
        <pt x="646" y="0" on="1"/>
        <pt x="542" y="0" on="1"/>
        <pt x="169" y="573" on="1"/>
        <pt x="167" y="573" on="1"/>
        <pt x="167" y="0" on="1"/>
        <pt x="77" y="0" on="1"/>
      </contour>
    </TTGlyph>
    <TTGlyph name="Nacute" xMin="77" yMin="0" xMax="646" yMax="922">
      <component glyphName="N" x="0" y="0" flags="0x204"/>
      <component glyphName="acute" x="272" y="190" flags="0x4"/>
    </TTGlyph>
    <TTGlyph name="Ncaron" xMin="77" yMin="0" xMax="646" yMax="922">
      <component glyphName="N" x="0" y="0" flags="0x204"/>
      <component glyphName="caron" x="248" y="190" flags="0x4"/>
    </TTGlyph>
    <TTGlyph name="Ncommaaccent" xMin="77" yMin="-210" xMax="646" yMax="714">
      <component glyphName="N" x="0" y="0" flags="0x204"/>
      <component glyphName="commaaccent" x="221" y="0" flags="0x4"/>
    </TTGlyph>
    <TTGlyph name="Ntilde" xMin="77" yMin="0" xMax="646" yMax="907">
      <component glyphName="N" x="0" y="0" flags="0x204"/>
      <component glyphName="tilde" x="254" y="190" flags="0x4"/>
    </TTGlyph>
    <TTGlyph name="O" xMin="38" yMin="-17" xMax="722" yMax="731">
      <contour>
        <pt x="133" y="357" on="1"/>
        <pt x="133" y="303" on="0"/>
        <pt x="161" y="198" on="0"/>
        <pt x="221" y="114" on="0"/>
        <pt x="315" y="63" on="0"/>
        <pt x="380" y="63" on="1"/>
        <pt x="445" y="63" on="0"/>
        <pt x="539" y="114" on="0"/>
        <pt x="599" y="198" on="0"/>
        <pt x="627" y="303" on="0"/>
        <pt x="627" y="357" on="1"/>
        <pt x="627" y="411" on="0"/>
        <pt x="599" y="516" on="0"/>
        <pt x="539" y="600" on="0"/>
        <pt x="445" y="651" on="0"/>
        <pt x="380" y="651" on="1"/>
        <pt x="315" y="651" on="0"/>
        <pt x="221" y="600" on="0"/>
        <pt x="161" y="516" on="0"/>
        <pt x="133" y="411" on="0"/>
      </contour>
      <contour>
        <pt x="38" y="357" on="1"/>
        <pt x="38" y="430" on="0"/>
        <pt x="81" y="565" on="0"/>
        <pt x="167" y="669" on="0"/>
        <pt x="295" y="731" on="0"/>
        <pt x="380" y="731" on="1"/>
        <pt x="465" y="731" on="0"/>
        <pt x="593" y="669" on="0"/>
        <pt x="679" y="565" on="0"/>
        <pt x="722" y="430" on="0"/>
        <pt x="722" y="357" on="1"/>
        <pt x="722" y="284" on="0"/>
        <pt x="679" y="149" on="0"/>
        <pt x="593" y="45" on="0"/>
        <pt x="465" y="-17" on="0"/>
        <pt x="380" y="-17" on="1"/>
        <pt x="295" y="-17" on="0"/>
        <pt x="167" y="45" on="0"/>
        <pt x="81" y="149" on="0"/>
        <pt x="38" y="284" on="0"/>
      </contour>
    </TTGlyph>
    <TTGlyph name="OE" xMin="38" yMin="-17" xMax="1034" yMax="731">
      <contour>
        <pt x="551" y="69" on="1"/>
        <pt x="549" y="69" on="1"/>
        <pt x="536" y="48" on="0"/>
        <pt x="496" y="16" on="0"/>
        <pt x="447" y="-6" on="0"/>
        <pt x="392" y="-17" on="0"/>
        <pt x="365" y="-17" on="1"/>
        <pt x="286" y="-17" on="0"/>
        <pt x="164" y="40" on="0"/>
        <pt x="81" y="141" on="0"/>
        <pt x="38" y="277" on="0"/>
        <pt x="38" y="355" on="1"/>
        <pt x="38" y="436" on="0"/>
        <pt x="83" y="573" on="0"/>
        <pt x="169" y="674" on="0"/>
        <pt x="293" y="731" on="0"/>
        <pt x="373" y="731" on="1"/>
        <pt x="398" y="731" on="0"/>
        <pt x="451" y="722" on="0"/>
        <pt x="499" y="703" on="0"/>
        <pt x="538" y="674" on="0"/>
        <pt x="549" y="655" on="1"/>
        <pt x="551" y="655" on="1"/>
        <pt x="551" y="714" on="1"/>
        <pt x="1028" y="714" on="1"/>
        <pt x="1028" y="634" on="1"/>
        <pt x="646" y="634" on="1"/>
        <pt x="646" y="407" on="1"/>
        <pt x="996" y="407" on="1"/>
        <pt x="996" y="327" on="1"/>
        <pt x="646" y="327" on="1"/>
        <pt x="646" y="80" on="1"/>
        <pt x="1034" y="80" on="1"/>
        <pt x="1034" y="0" on="1"/>
        <pt x="551" y="0" on="1"/>
      </contour>
      <contour>
        <pt x="372" y="63" on="1"/>
        <pt x="409" y="63" on="0"/>
        <pt x="475" y="84" on="0"/>
        <pt x="523" y="121" on="0"/>
        <pt x="551" y="173" on="0"/>
        <pt x="551" y="204" on="1"/>
        <pt x="551" y="505" on="1"/>
        <pt x="551" y="521" on="0"/>
        <pt x="547" y="557" on="0"/>
        <pt x="536" y="574" on="1"/>
        <pt x="516" y="605" on="0"/>
        <pt x="431" y="651" on="0"/>
        <pt x="374" y="651" on="1"/>
        <pt x="313" y="651" on="0"/>
        <pt x="223" y="603" on="0"/>
        <pt x="163" y="520" on="0"/>
        <pt x="133" y="411" on="0"/>
        <pt x="133" y="351" on="1"/>
        <pt x="133" y="291" on="0"/>
        <pt x="164" y="186" on="0"/>
        <pt x="224" y="108" on="0"/>
        <pt x="313" y="63" on="0"/>
      </contour>
    </TTGlyph>
    <TTGlyph name="Oacute" xMin="38" yMin="-17" xMax="722" yMax="922">
      <component glyphName="O" x="0" y="0" flags="0x204"/>
      <component glyphName="acute" x="275" y="190" flags="0x4"/>
    </TTGlyph>
    <TTGlyph name="Obreve" xMin="38" yMin="-17" xMax="722" yMax="919">
      <component glyphName="O" x="0" y="0" flags="0x204"/>
      <component glyphName="breve" x="270" y="190" flags="0x4"/>
    </TTGlyph>
    <TTGlyph name="Ocircumflex" xMin="38" yMin="-17" xMax="722" yMax="922">
      <component glyphName="O" x="0" y="0" flags="0x204"/>
      <component glyphName="circumflex" x="271" y="190" flags="0x4"/>
    </TTGlyph>
    <TTGlyph name="Odieresis" xMin="38" yMin="-17" xMax="722" yMax="896">
      <component glyphName="O" x="0" y="0" flags="0x204"/>
      <component glyphName="dieresis" x="270" y="190" flags="0x4"/>
    </TTGlyph>
    <TTGlyph name="Ograve" xMin="38" yMin="-17" xMax="722" yMax="922">
      <component glyphName="O" x="0" y="0" flags="0x204"/>
      <component glyphName="grave" x="254" y="190" flags="0x4"/>
    </TTGlyph>
    <TTGlyph name="Ohungarumlaut" xMin="38" yMin="-17" xMax="722" yMax="922">
      <component glyphName="O" x="0" y="0" flags="0x204"/>
      <component glyphName="hungarumlaut" x="316" y="190" flags="0x4"/>
    </TTGlyph>
    <TTGlyph name="Omacron" xMin="38" yMin="-17" xMax="722" yMax="872">
      <component glyphName="O" x="0" y="0" flags="0x204"/>
      <component glyphName="macron" x="270" y="190" flags="0x4"/>
    </TTGlyph>
    <TTGlyph name="Omega" xMin="47" yMin="0" xMax="688" yMax="721">
      <contour>
        <pt x="432" y="0" on="1"/>
        <pt x="432" y="183" on="1"/>
        <pt x="519" y="200" on="0"/>
        <pt x="608" y="323" on="0"/>
        <pt x="608" y="410" on="1"/>
        <pt x="608" y="462" on="0"/>
        <pt x="572" y="549" on="0"/>
        <pt x="508" y="613" on="0"/>
        <pt x="420" y="649" on="0"/>
        <pt x="368" y="649" on="1"/>
        <pt x="317" y="649" on="0"/>
        <pt x="228" y="613" on="0"/>
        <pt x="164" y="549" on="0"/>
        <pt x="127" y="461" on="0"/>
        <pt x="127" y="410" on="1"/>
        <pt x="127" y="368" on="0"/>
        <pt x="150" y="291" on="0"/>
        <pt x="194" y="231" on="0"/>
        <pt x="260" y="190" on="0"/>
        <pt x="304" y="183" on="1"/>
        <pt x="304" y="0" on="1"/>
        <pt x="47" y="0" on="1"/>
        <pt x="47" y="67" on="1"/>
        <pt x="240" y="67" on="1"/>
        <pt x="240" y="139" on="1"/>
        <pt x="193" y="152" on="0"/>
        <pt x="122" y="206" on="0"/>
        <pt x="72" y="278" on="0"/>
        <pt x="47" y="366" on="0"/>
        <pt x="47" y="413" on="1"/>
        <pt x="47" y="480" on="0"/>
        <pt x="98" y="594" on="0"/>
        <pt x="186" y="675" on="0"/>
        <pt x="302" y="721" on="0"/>
        <pt x="368" y="721" on="1"/>
        <pt x="434" y="721" on="0"/>
        <pt x="550" y="676" on="0"/>
        <pt x="637" y="595" on="0"/>
        <pt x="688" y="482" on="0"/>
        <pt x="688" y="415" on="1"/>
        <pt x="688" y="367" on="0"/>
        <pt x="663" y="279" on="0"/>
        <pt x="615" y="206" on="0"/>
        <pt x="543" y="152" on="0"/>
        <pt x="496" y="139" on="1"/>
        <pt x="496" y="67" on="1"/>
        <pt x="688" y="67" on="1"/>
        <pt x="688" y="0" on="1"/>
      </contour>
    </TTGlyph>
    <TTGlyph name="Oslash" xMin="37" yMin="-20" xMax="723" yMax="731">
      <contour>
        <pt x="723" y="700" on="1"/>
        <pt x="641" y="610" on="1"/>
        <pt x="682" y="558" on="0"/>
        <pt x="722" y="428" on="0"/>
        <pt x="722" y="357" on="1"/>
        <pt x="722" y="284" on="0"/>
        <pt x="679" y="149" on="0"/>
        <pt x="593" y="45" on="0"/>
        <pt x="465" y="-17" on="0"/>
        <pt x="380" y="-17" on="1"/>
        <pt x="307" y="-17" on="0"/>
        <pt x="193" y="29" on="0"/>
        <pt x="151" y="69" on="1"/>
        <pt x="70" y="-20" on="1"/>
        <pt x="37" y="10" on="1"/>
        <pt x="121" y="102" on="1"/>
        <pt x="79" y="153" on="0"/>
        <pt x="38" y="285" on="0"/>
        <pt x="38" y="357" on="1"/>
        <pt x="38" y="430" on="0"/>
        <pt x="81" y="565" on="0"/>
        <pt x="167" y="669" on="0"/>
        <pt x="295" y="731" on="0"/>
        <pt x="380" y="731" on="1"/>
        <pt x="455" y="731" on="0"/>
        <pt x="570" y="684" on="0"/>
        <pt x="612" y="643" on="1"/>
        <pt x="691" y="730" on="1"/>
      </contour>
      <contour>
        <pt x="210" y="134" on="1"/>
        <pt x="239" y="101" on="0"/>
        <pt x="323" y="63" on="0"/>
        <pt x="380" y="63" on="1"/>
        <pt x="445" y="63" on="0"/>
        <pt x="539" y="114" on="0"/>
        <pt x="599" y="198" on="0"/>
        <pt x="627" y="303" on="0"/>
        <pt x="627" y="357" on="1"/>
        <pt x="627" y="406" on="0"/>
        <pt x="604" y="502" on="0"/>
        <pt x="579" y="541" on="1"/>
      </contour>
      <contour>
        <pt x="552" y="577" on="1"/>
        <pt x="523" y="611" on="0"/>
        <pt x="437" y="651" on="0"/>
        <pt x="380" y="651" on="1"/>
        <pt x="315" y="651" on="0"/>
        <pt x="221" y="600" on="0"/>
        <pt x="161" y="516" on="0"/>
        <pt x="133" y="411" on="0"/>
        <pt x="133" y="357" on="1"/>
        <pt x="133" y="306" on="0"/>
        <pt x="157" y="210" on="0"/>
        <pt x="183" y="170" on="1"/>
      </contour>
    </TTGlyph>
    <TTGlyph name="Otilde" xMin="38" yMin="-17" xMax="722" yMax="907">
      <component glyphName="O" x="0" y="0" flags="0x204"/>
      <component glyphName="tilde" x="269" y="190" flags="0x4"/>
    </TTGlyph>
    <TTGlyph name="P" xMin="78" yMin="0" xMax="610" yMax="714">
      <contour>
        <pt x="173" y="372" on="1"/>
        <pt x="359" y="372" on="1"/>
        <pt x="440" y="371" on="0"/>
        <pt x="515" y="439" on="0"/>
        <pt x="515" y="503" on="1"/>
        <pt x="515" y="567" on="0"/>
        <pt x="440" y="634" on="0"/>
        <pt x="359" y="634" on="1"/>
        <pt x="173" y="634" on="1"/>
      </contour>
      <contour>
        <pt x="78" y="714" on="1"/>
        <pt x="391" y="714" on="1"/>
        <pt x="498" y="714" on="0"/>
        <pt x="610" y="603" on="0"/>
        <pt x="610" y="503" on="1"/>
        <pt x="610" y="403" on="0"/>
        <pt x="498" y="291" on="0"/>
        <pt x="391" y="292" on="1"/>
        <pt x="173" y="292" on="1"/>
        <pt x="173" y="0" on="1"/>
        <pt x="78" y="0" on="1"/>
      </contour>
    </TTGlyph>
    <TTGlyph name="Q" xMin="38" yMin="-62" xMax="722" yMax="731">
      <contour>
        <pt x="450" y="204" on="1"/>
        <pt x="545" y="128" on="1"/>
        <pt x="587" y="170" on="0"/>
        <pt x="627" y="292" on="0"/>
        <pt x="627" y="357" on="1"/>
        <pt x="627" y="411" on="0"/>
        <pt x="599" y="516" on="0"/>
        <pt x="539" y="600" on="0"/>
        <pt x="445" y="651" on="0"/>
        <pt x="380" y="651" on="1"/>
        <pt x="315" y="651" on="0"/>
        <pt x="221" y="600" on="0"/>
        <pt x="161" y="516" on="0"/>
        <pt x="133" y="411" on="0"/>
        <pt x="133" y="357" on="1"/>
        <pt x="133" y="303" on="0"/>
        <pt x="161" y="198" on="0"/>
        <pt x="221" y="114" on="0"/>
        <pt x="315" y="63" on="0"/>
        <pt x="380" y="63" on="1"/>
        <pt x="433" y="63" on="0"/>
        <pt x="479" y="83" on="1"/>
        <pt x="400" y="146" on="1"/>
      </contour>
      <contour>
        <pt x="660" y="-62" on="1"/>
        <pt x="551" y="26" on="1"/>
        <pt x="479" y="-17" on="0"/>
        <pt x="380" y="-17" on="1"/>
        <pt x="295" y="-17" on="0"/>
        <pt x="167" y="45" on="0"/>
        <pt x="81" y="149" on="0"/>
        <pt x="38" y="284" on="0"/>
        <pt x="38" y="357" on="1"/>
        <pt x="38" y="430" on="0"/>
        <pt x="81" y="565" on="0"/>
        <pt x="167" y="669" on="0"/>
        <pt x="295" y="731" on="0"/>
        <pt x="380" y="731" on="1"/>
        <pt x="465" y="731" on="0"/>
        <pt x="593" y="669" on="0"/>
        <pt x="679" y="565" on="0"/>
        <pt x="722" y="430" on="0"/>
        <pt x="722" y="357" on="1"/>
        <pt x="722" y="275" on="0"/>
        <pt x="668" y="126" on="0"/>
        <pt x="614" y="73" on="1"/>
        <pt x="708" y="-2" on="1"/>
      </contour>
    </TTGlyph>
    <TTGlyph name="R" xMin="78" yMin="0" xMax="656" yMax="714">
      <contour>
        <pt x="78" y="714" on="1"/>
        <pt x="414" y="714" on="1"/>
        <pt x="515" y="714" on="0"/>
        <pt x="631" y="613" on="0"/>
        <pt x="631" y="527" on="1"/>
        <pt x="631" y="462" on="0"/>
        <pt x="572" y="364" on="0"/>
        <pt x="507" y="346" on="1"/>
        <pt x="507" y="344" on="1"/>
        <pt x="538" y="338" on="0"/>
        <pt x="577" y="310" on="0"/>
        <pt x="601" y="271" on="0"/>
        <pt x="611" y="223" on="0"/>
        <pt x="614" y="197" on="1"/>
        <pt x="616" y="171" on="0"/>
        <pt x="619" y="116" on="0"/>
        <pt x="626" y="65" on="0"/>
        <pt x="641" y="18" on="0"/>
        <pt x="656" y="0" on="1"/>
        <pt x="550" y="0" on="1"/>
        <pt x="540" y="11" on="0"/>
        <pt x="533" y="49" on="0"/>
        <pt x="531" y="96" on="0"/>
        <pt x="529" y="150" on="0"/>
        <pt x="524" y="176" on="1"/>
        <pt x="520" y="202" on="0"/>
        <pt x="508" y="249" on="0"/>
        <pt x="482" y="284" on="0"/>
        <pt x="439" y="305" on="0"/>
        <pt x="405" y="305" on="1"/>
        <pt x="173" y="305" on="1"/>
        <pt x="173" y="0" on="1"/>
        <pt x="78" y="0" on="1"/>
      </contour>
      <contour>
        <pt x="371" y="385" on="1"/>
        <pt x="404" y="385" on="0"/>
        <pt x="464" y="395" on="0"/>
        <pt x="509" y="424" on="0"/>
        <pt x="536" y="473" on="0"/>
        <pt x="536" y="512" on="1"/>
        <pt x="536" y="565" on="0"/>
        <pt x="476" y="634" on="0"/>
        <pt x="409" y="634" on="1"/>
        <pt x="173" y="634" on="1"/>
        <pt x="173" y="385" on="1"/>
      </contour>
    </TTGlyph>
    <TTGlyph name="Racute" xMin="78" yMin="0" xMax="656" yMax="922">
      <component glyphName="R" x="0" y="0" flags="0x204"/>
      <component glyphName="acute" x="234" y="190" flags="0x4"/>
    </TTGlyph>
    <TTGlyph name="Rcaron" xMin="78" yMin="0" xMax="656" yMax="922">
      <component glyphName="R" x="0" y="0" flags="0x204"/>
      <component glyphName="caron" x="230" y="190" flags="0x4"/>
    </TTGlyph>
    <TTGlyph name="Rcommaaccent" xMin="78" yMin="-210" xMax="656" yMax="714">
      <component glyphName="R" x="0" y="0" flags="0x204"/>
      <component glyphName="commaaccent" x="214" y="0" flags="0x4"/>
    </TTGlyph>
    <TTGlyph name="S" xMin="37" yMin="-17" xMax="611" yMax="731">
      <contour>
        <pt x="491" y="505" on="1"/>
        <pt x="483" y="582" on="0"/>
        <pt x="388" y="651" on="0"/>
        <pt x="314" y="651" on="1"/>
        <pt x="284" y="651" on="0"/>
        <pt x="226" y="639" on="0"/>
        <pt x="181" y="611" on="0"/>
        <pt x="154" y="564" on="0"/>
        <pt x="154" y="529" on="1"/>
        <pt x="154" y="496" on="0"/>
        <pt x="193" y="455" on="0"/>
        <pt x="258" y="429" on="0"/>
        <pt x="340" y="412" on="0"/>
        <pt x="426" y="392" on="0"/>
        <pt x="508" y="365" on="0"/>
        <pt x="572" y="319" on="0"/>
        <pt x="611" y="248" on="0"/>
        <pt x="611" y="196" on="1"/>
        <pt x="611" y="139" on="0"/>
        <pt x="560" y="58" on="0"/>
        <pt x="480" y="7" on="0"/>
        <pt x="381" y="-17" on="0"/>
        <pt x="332" y="-17" on="1"/>
        <pt x="272" y="-17" on="0"/>
        <pt x="165" y="13" on="0"/>
        <pt x="84" y="75" on="0"/>
        <pt x="37" y="170" on="0"/>
        <pt x="37" y="235" on="1"/>
        <pt x="127" y="235" on="1"/>
        <pt x="127" y="190" on="0"/>
        <pt x="162" y="125" on="0"/>
        <pt x="219" y="83" on="0"/>
        <pt x="294" y="63" on="0"/>
        <pt x="335" y="63" on="1"/>
        <pt x="367" y="63" on="0"/>
        <pt x="432" y="75" on="0"/>
        <pt x="484" y="104" on="0"/>
        <pt x="516" y="154" on="0"/>
        <pt x="516" y="193" on="1"/>
        <pt x="516" y="230" on="0"/>
        <pt x="477" y="276" on="0"/>
        <pt x="413" y="305" on="0"/>
        <pt x="331" y="324" on="0"/>
        <pt x="245" y="342" on="0"/>
        <pt x="163" y="367" on="0"/>
        <pt x="98" y="409" on="0"/>
        <pt x="59" y="473" on="0"/>
        <pt x="59" y="522" on="1"/>
        <pt x="59" y="576" on="0"/>
        <pt x="103" y="655" on="0"/>
        <pt x="176" y="706" on="0"/>
        <pt x="269" y="731" on="0"/>
        <pt x="318" y="731" on="1"/>
        <pt x="373" y="731" on="0"/>
        <pt x="467" y="705" on="0"/>
        <pt x="537" y="649" on="0"/>
        <pt x="579" y="564" on="0"/>
        <pt x="581" y="505" on="1"/>
      </contour>
    </TTGlyph>
    <TTGlyph name="Sacute" xMin="37" yMin="-17" xMax="611" yMax="922">
      <component glyphName="S" x="0" y="0" flags="0x204"/>
      <component glyphName="acute" x="231" y="190" flags="0x4"/>
    </TTGlyph>
    <TTGlyph name="Scaron" xMin="37" yMin="-17" xMax="611" yMax="922">
      <component glyphName="S" x="0" y="0" flags="0x204"/>
      <component glyphName="caron" x="215" y="190" flags="0x4"/>
    </TTGlyph>
    <TTGlyph name="Scedilla" xMin="37" yMin="-210" xMax="611" yMax="731">
      <contour>
        <pt x="217" y="-147" on="1"/>
        <pt x="229" y="-152" on="0"/>
        <pt x="262" y="-160" on="0"/>
        <pt x="278" y="-160" on="1"/>
        <pt x="288" y="-160" on="0"/>
        <pt x="310" y="-157" on="0"/>
        <pt x="328" y="-149" on="0"/>
        <pt x="340" y="-138" on="0"/>
        <pt x="340" y="-129" on="1"/>
        <pt x="340" y="-115" on="0"/>
        <pt x="313" y="-98" on="0"/>
        <pt x="293" y="-98" on="1"/>
        <pt x="281" y="-98" on="0"/>
        <pt x="263" y="-102" on="0"/>
        <pt x="252" y="-106" on="1"/>
        <pt x="235" y="-78" on="1"/>
        <pt x="284" y="-14" on="1"/>
        <pt x="250" y="-11" on="0"/>
        <pt x="218" y="-2" on="1"/>
        <pt x="165" y="13" on="0"/>
        <pt x="84" y="75" on="0"/>
        <pt x="37" y="170" on="0"/>
        <pt x="37" y="235" on="1"/>
        <pt x="127" y="235" on="1"/>
        <pt x="127" y="190" on="0"/>
        <pt x="162" y="125" on="0"/>
        <pt x="219" y="83" on="0"/>
        <pt x="294" y="63" on="0"/>
        <pt x="335" y="63" on="1"/>
        <pt x="367" y="63" on="0"/>
        <pt x="432" y="75" on="0"/>
        <pt x="484" y="104" on="0"/>
        <pt x="516" y="154" on="0"/>
        <pt x="516" y="193" on="1"/>
        <pt x="516" y="230" on="0"/>
        <pt x="477" y="276" on="0"/>
        <pt x="413" y="305" on="0"/>
        <pt x="331" y="324" on="0"/>
        <pt x="245" y="342" on="0"/>
        <pt x="163" y="367" on="0"/>
        <pt x="98" y="409" on="0"/>
        <pt x="59" y="473" on="0"/>
        <pt x="59" y="522" on="1"/>
        <pt x="59" y="576" on="0"/>
        <pt x="103" y="655" on="0"/>
        <pt x="176" y="706" on="0"/>
        <pt x="269" y="731" on="0"/>
        <pt x="318" y="731" on="1"/>
        <pt x="373" y="731" on="0"/>
        <pt x="467" y="705" on="0"/>
        <pt x="537" y="649" on="0"/>
        <pt x="579" y="564" on="0"/>
        <pt x="581" y="505" on="1"/>
        <pt x="491" y="505" on="1"/>
        <pt x="483" y="582" on="0"/>
        <pt x="388" y="651" on="0"/>
        <pt x="314" y="651" on="1"/>
        <pt x="284" y="651" on="0"/>
        <pt x="226" y="639" on="0"/>
        <pt x="181" y="611" on="0"/>
        <pt x="154" y="564" on="0"/>
        <pt x="154" y="529" on="1"/>
        <pt x="154" y="496" on="0"/>
        <pt x="193" y="455" on="0"/>
        <pt x="258" y="429" on="0"/>
        <pt x="340" y="412" on="0"/>
        <pt x="426" y="392" on="0"/>
        <pt x="508" y="365" on="0"/>
        <pt x="572" y="319" on="0"/>
        <pt x="611" y="248" on="0"/>
        <pt x="611" y="196" on="1"/>
        <pt x="611" y="139" on="0"/>
        <pt x="560" y="58" on="0"/>
        <pt x="480" y="7" on="0"/>
        <pt x="381" y="-17" on="0"/>
        <pt x="332" y="-17" on="1"/>
        <pt x="324" y="-17" on="1"/>
        <pt x="296" y="-53" on="1"/>
        <pt x="298" y="-55" on="1"/>
        <pt x="308" y="-48" on="0"/>
        <pt x="331" y="-48" on="1"/>
        <pt x="347" y="-48" on="0"/>
        <pt x="377" y="-57" on="0"/>
        <pt x="401" y="-75" on="0"/>
        <pt x="415" y="-103" on="0"/>
        <pt x="415" y="-121" on="1"/>
        <pt x="415" y="-146" on="0"/>
        <pt x="392" y="-180" on="0"/>
        <pt x="356" y="-201" on="0"/>
        <pt x="312" y="-210" on="0"/>
        <pt x="291" y="-210" on="1"/>
        <pt x="267" y="-210" on="0"/>
        <pt x="222" y="-199" on="0"/>
        <pt x="199" y="-191" on="1"/>
      </contour>
    </TTGlyph>
    <TTGlyph name="Scircumflex" xMin="37" yMin="-17" xMax="611" yMax="922">
      <component glyphName="S" x="0" y="0" flags="0x204"/>
      <component glyphName="circumflex" x="214" y="190" flags="0x4"/>
    </TTGlyph>
    <TTGlyph name="Scommaaccent" xMin="37" yMin="-210" xMax="611" yMax="731">
      <component glyphName="S" x="0" y="0" flags="0x204"/>
      <component glyphName="commaaccent" x="189" y="0" flags="0x4"/>
    </TTGlyph>
    <TTGlyph name="T" xMin="2" yMin="0" xMax="573" yMax="714">
      <contour>
        <pt x="240" y="634" on="1"/>
        <pt x="2" y="634" on="1"/>
        <pt x="2" y="714" on="1"/>
        <pt x="573" y="714" on="1"/>
        <pt x="573" y="634" on="1"/>
        <pt x="335" y="634" on="1"/>
        <pt x="335" y="0" on="1"/>
        <pt x="240" y="0" on="1"/>
      </contour>
    </TTGlyph>
    <TTGlyph name="Tbar" xMin="2" yMin="0" xMax="573" yMax="714">
      <contour>
        <pt x="98" y="486" on="1"/>
        <pt x="240" y="486" on="1"/>
        <pt x="240" y="634" on="1"/>
        <pt x="2" y="634" on="1"/>
        <pt x="2" y="714" on="1"/>
        <pt x="573" y="714" on="1"/>
        <pt x="573" y="634" on="1"/>
        <pt x="335" y="634" on="1"/>
        <pt x="335" y="486" on="1"/>
        <pt x="479" y="486" on="1"/>
        <pt x="479" y="431" on="1"/>
        <pt x="335" y="431" on="1"/>
        <pt x="335" y="0" on="1"/>
        <pt x="240" y="0" on="1"/>
        <pt x="240" y="431" on="1"/>
        <pt x="98" y="431" on="1"/>
      </contour>
    </TTGlyph>
    <TTGlyph name="Tcaron" xMin="2" yMin="0" xMax="573" yMax="922">
      <component glyphName="T" x="0" y="0" flags="0x204"/>
      <component glyphName="caron" x="174" y="190" flags="0x4"/>
    </TTGlyph>
    <TTGlyph name="Tcommaaccent" xMin="2" yMin="-210" xMax="573" yMax="714">
      <component glyphName="T" x="0" y="0" flags="0x204"/>
      <component glyphName="commaaccent" x="150" y="0" flags="0x4"/>
    </TTGlyph>
    <TTGlyph name="Thorn" xMin="78" yMin="0" xMax="610" yMax="714">
      <contour>
        <pt x="173" y="258" on="1"/>
        <pt x="359" y="258" on="1"/>
        <pt x="440" y="257" on="0"/>
        <pt x="515" y="324" on="0"/>
        <pt x="515" y="388" on="1"/>
        <pt x="515" y="453" on="0"/>
        <pt x="440" y="520" on="0"/>
        <pt x="359" y="520" on="1"/>
        <pt x="173" y="520" on="1"/>
      </contour>
      <contour>
        <pt x="78" y="0" on="1"/>
        <pt x="78" y="714" on="1"/>
        <pt x="173" y="714" on="1"/>
        <pt x="173" y="600" on="1"/>
        <pt x="391" y="600" on="1"/>
        <pt x="498" y="600" on="0"/>
        <pt x="610" y="488" on="0"/>
        <pt x="610" y="388" on="1"/>
        <pt x="610" y="288" on="0"/>
        <pt x="498" y="177" on="0"/>
        <pt x="391" y="178" on="1"/>
        <pt x="173" y="178" on="1"/>
        <pt x="173" y="0" on="1"/>
      </contour>
    </TTGlyph>
    <TTGlyph name="U" xMin="74" yMin="-17" xMax="648" yMax="714">
      <contour>
        <pt x="648" y="258" on="1"/>
        <pt x="648" y="122" on="0"/>
        <pt x="501" y="-17" on="0"/>
        <pt x="367" y="-17" on="1"/>
        <pt x="298" y="-17" on="0"/>
        <pt x="189" y="15" on="0"/>
        <pt x="114" y="83" on="0"/>
        <pt x="74" y="187" on="0"/>
        <pt x="74" y="258" on="1"/>
        <pt x="74" y="714" on="1"/>
        <pt x="169" y="714" on="1"/>
        <pt x="169" y="258" on="1"/>
        <pt x="169" y="163" on="0"/>
        <pt x="272" y="63" on="0"/>
        <pt x="367" y="63" on="1"/>
        <pt x="458" y="63" on="0"/>
        <pt x="553" y="163" on="0"/>
        <pt x="553" y="258" on="1"/>
        <pt x="553" y="714" on="1"/>
        <pt x="648" y="714" on="1"/>
      </contour>
    </TTGlyph>
    <TTGlyph name="Uacute" xMin="74" yMin="-17" xMax="648" yMax="922">
      <component glyphName="U" x="0" y="0" flags="0x204"/>
      <component glyphName="acute" x="265" y="190" flags="0x4"/>
    </TTGlyph>
    <TTGlyph name="Ubreve" xMin="74" yMin="-17" xMax="648" yMax="919">
      <component glyphName="U" x="0" y="0" flags="0x204"/>
      <component glyphName="breve" x="245" y="190" flags="0x4"/>
    </TTGlyph>
    <TTGlyph name="Ucircumflex" xMin="74" yMin="-17" xMax="648" yMax="922">
      <component glyphName="U" x="0" y="0" flags="0x204"/>
      <component glyphName="circumflex" x="254" y="190" flags="0x4"/>
    </TTGlyph>
    <TTGlyph name="Udieresis" xMin="74" yMin="-17" xMax="648" yMax="896">
      <component glyphName="U" x="0" y="0" flags="0x204"/>
      <component glyphName="dieresis" x="251" y="190" flags="0x4"/>
    </TTGlyph>
    <TTGlyph name="Ugrave" xMin="74" yMin="-17" xMax="648" yMax="922">
      <component glyphName="U" x="0" y="0" flags="0x204"/>
      <component glyphName="grave" x="236" y="190" flags="0x4"/>
    </TTGlyph>
    <TTGlyph name="Uhungarumlaut" xMin="74" yMin="-17" xMax="648" yMax="922">
      <component glyphName="U" x="0" y="0" flags="0x204"/>
      <component glyphName="hungarumlaut" x="296" y="190" flags="0x4"/>
    </TTGlyph>
    <TTGlyph name="Umacron" xMin="74" yMin="-17" xMax="648" yMax="872">
      <component glyphName="U" x="0" y="0" flags="0x204"/>
      <component glyphName="macron" x="251" y="190" flags="0x4"/>
    </TTGlyph>
    <TTGlyph name="Uogonek" xMin="74" yMin="-210" xMax="648" yMax="714">
      <contour>
        <pt x="648" y="258" on="1"/>
        <pt x="648" y="122" on="0"/>
        <pt x="574" y="52" on="1"/>
        <pt x="509" y="-9" on="0"/>
        <pt x="397" y="-16" on="1"/>
        <pt x="384" y="-28" on="0"/>
        <pt x="374" y="-38" on="1"/>
        <pt x="358" y="-54" on="0"/>
        <pt x="339" y="-83" on="0"/>
        <pt x="332" y="-108" on="0"/>
        <pt x="332" y="-118" on="1"/>
        <pt x="332" y="-134" on="0"/>
        <pt x="350" y="-160" on="0"/>
        <pt x="370" y="-160" on="1"/>
        <pt x="393" y="-160" on="0"/>
        <pt x="421" y="-144" on="0"/>
        <pt x="432" y="-130" on="1"/>
        <pt x="464" y="-148" on="1"/>
        <pt x="444" y="-183" on="0"/>
        <pt x="387" y="-210" on="0"/>
        <pt x="356" y="-210" on="1"/>
        <pt x="347" y="-210" on="0"/>
        <pt x="316" y="-207" on="0"/>
        <pt x="286" y="-191" on="0"/>
        <pt x="264" y="-158" on="0"/>
        <pt x="264" y="-128" on="1"/>
        <pt x="264" y="-121" on="0"/>
        <pt x="271" y="-96" on="0"/>
        <pt x="295" y="-61" on="0"/>
        <pt x="317" y="-40" on="1"/>
        <pt x="330" y="-28" on="0"/>
        <pt x="348" y="-17" on="1"/>
        <pt x="290" y="-15" on="0"/>
        <pt x="243" y="-1" on="1"/>
        <pt x="189" y="15" on="0"/>
        <pt x="114" y="83" on="0"/>
        <pt x="74" y="187" on="0"/>
        <pt x="74" y="258" on="1"/>
        <pt x="74" y="714" on="1"/>
        <pt x="169" y="714" on="1"/>
        <pt x="169" y="258" on="1"/>
        <pt x="169" y="163" on="0"/>
        <pt x="272" y="63" on="0"/>
        <pt x="367" y="63" on="1"/>
        <pt x="458" y="63" on="0"/>
        <pt x="553" y="163" on="0"/>
        <pt x="553" y="258" on="1"/>
        <pt x="553" y="714" on="1"/>
        <pt x="648" y="714" on="1"/>
      </contour>
    </TTGlyph>
    <TTGlyph name="Uring" xMin="74" yMin="-17" xMax="648" yMax="973">
      <component glyphName="U" x="0" y="0" flags="0x204"/>
      <component glyphName="ring" x="249" y="180" flags="0x4"/>
    </TTGlyph>
    <TTGlyph name="Utilde" xMin="74" yMin="-17" xMax="648" yMax="907">
      <component glyphName="U" x="0" y="0" flags="0x204"/>
      <component glyphName="tilde" x="249" y="190" flags="0x4"/>
    </TTGlyph>
    <TTGlyph name="V" xMin="-1" yMin="0" xMax="613" yMax="714">
      <contour>
        <pt x="359" y="0" on="1"/>
        <pt x="251" y="0" on="1"/>
        <pt x="-1" y="714" on="1"/>
        <pt x="102" y="714" on="1"/>
        <pt x="306" y="95" on="1"/>
        <pt x="308" y="95" on="1"/>
        <pt x="514" y="714" on="1"/>
        <pt x="613" y="714" on="1"/>
      </contour>
    </TTGlyph>
    <TTGlyph name="W" xMin="12" yMin="0" xMax="914" yMax="714">
      <contour>
        <pt x="723" y="0" on="1"/>
        <pt x="624" y="0" on="1"/>
        <pt x="461" y="600" on="1"/>
        <pt x="459" y="600" on="1"/>
        <pt x="294" y="0" on="1"/>
        <pt x="195" y="0" on="1"/>
        <pt x="12" y="714" on="1"/>
        <pt x="109" y="714" on="1"/>
        <pt x="249" y="120" on="1"/>
        <pt x="251" y="120" on="1"/>
        <pt x="411" y="714" on="1"/>
        <pt x="514" y="714" on="1"/>
        <pt x="672" y="120" on="1"/>
        <pt x="674" y="120" on="1"/>
        <pt x="819" y="714" on="1"/>
        <pt x="914" y="714" on="1"/>
      </contour>
    </TTGlyph>
    <TTGlyph name="Wcircumflex" xMin="12" yMin="0" xMax="914" yMax="922">
      <component glyphName="W" x="0" y="0" flags="0x204"/>
      <component glyphName="circumflex" x="352" y="190" flags="0x4"/>
    </TTGlyph>
    <TTGlyph name="X" xMin="-1" yMin="0" xMax="612" yMax="714">
      <contour>
        <pt x="248" y="367" on="1"/>
        <pt x="13" y="714" on="1"/>
        <pt x="127" y="714" on="1"/>
        <pt x="305" y="435" on="1"/>
        <pt x="491" y="714" on="1"/>
        <pt x="597" y="714" on="1"/>
        <pt x="361" y="367" on="1"/>
        <pt x="612" y="0" on="1"/>
        <pt x="496" y="0" on="1"/>
        <pt x="304" y="295" on="1"/>
        <pt x="106" y="0" on="1"/>
        <pt x="-1" y="0" on="1"/>
      </contour>
    </TTGlyph>
    <TTGlyph name="Y" xMin="2" yMin="0" xMax="646" yMax="714">
      <contour>
        <pt x="373" y="292" on="1"/>
        <pt x="373" y="0" on="1"/>
        <pt x="278" y="0" on="1"/>
        <pt x="278" y="292" on="1"/>
        <pt x="2" y="714" on="1"/>
        <pt x="115" y="714" on="1"/>
        <pt x="329" y="374" on="1"/>
        <pt x="538" y="714" on="1"/>
        <pt x="646" y="714" on="1"/>
      </contour>
    </TTGlyph>
    <TTGlyph name="Yacute" xMin="2" yMin="0" xMax="646" yMax="922">
      <component glyphName="Y" x="0" y="0" flags="0x204"/>
      <component glyphName="acute" x="244" y="190" flags="0x4"/>
    </TTGlyph>
    <TTGlyph name="Ycircumflex" xMin="2" yMin="0" xMax="646" yMax="922">
      <component glyphName="Y" x="0" y="0" flags="0x204"/>
      <component glyphName="circumflex" x="218" y="190" flags="0x4"/>
    </TTGlyph>
    <TTGlyph name="Ydieresis" xMin="2" yMin="0" xMax="646" yMax="896">
      <component glyphName="Y" x="0" y="0" flags="0x204"/>
      <component glyphName="dieresis" x="217" y="190" flags="0x4"/>
    </TTGlyph>
    <TTGlyph name="Z" xMin="22" yMin="0" xMax="590" yMax="714">
      <contour>
        <pt x="22" y="80" on="1"/>
        <pt x="466" y="634" on="1"/>
        <pt x="56" y="634" on="1"/>
        <pt x="56" y="714" on="1"/>
        <pt x="578" y="714" on="1"/>
        <pt x="578" y="634" on="1"/>
        <pt x="135" y="80" on="1"/>
        <pt x="590" y="80" on="1"/>
        <pt x="590" y="0" on="1"/>
        <pt x="22" y="0" on="1"/>
      </contour>
    </TTGlyph>
    <TTGlyph name="Zacute" xMin="22" yMin="0" xMax="590" yMax="922">
      <component glyphName="Z" x="0" y="0" flags="0x204"/>
      <component glyphName="acute" x="221" y="190" flags="0x4"/>
    </TTGlyph>
    <TTGlyph name="Zcaron" xMin="22" yMin="0" xMax="590" yMax="922">
      <component glyphName="Z" x="0" y="0" flags="0x204"/>
      <component glyphName="caron" x="202" y="190" flags="0x4"/>
    </TTGlyph>
    <TTGlyph name="Zdotaccent" xMin="22" yMin="0" xMax="590" yMax="898">
      <component glyphName="Z" x="0" y="0" flags="0x204"/>
      <component glyphName="dotaccent" x="203" y="190" flags="0x4"/>
    </TTGlyph>
    <TTGlyph name="a" xMin="36" yMin="-12" xMax="522" yMax="529">
      <contour>
        <pt x="522" y="2" on="1"/>
        <pt x="499" y="-12" on="0"/>
        <pt x="461" y="-12" on="1"/>
        <pt x="428" y="-12" on="0"/>
        <pt x="389" y="26" on="0"/>
        <pt x="389" y="68" on="1"/>
        <pt x="354" y="26" on="0"/>
        <pt x="261" y="-12" on="0"/>
        <pt x="207" y="-12" on="1"/>
        <pt x="172" y="-12" on="0"/>
        <pt x="109" y="4" on="0"/>
        <pt x="63" y="39" on="0"/>
        <pt x="36" y="94" on="0"/>
        <pt x="36" y="133" on="1"/>
        <pt x="36" y="177" on="0"/>
        <pt x="66" y="233" on="0"/>
        <pt x="115" y="267" on="0"/>
        <pt x="178" y="286" on="0"/>
        <pt x="211" y="292" on="1"/>
        <pt x="246" y="299" on="0"/>
        <pt x="309" y="306" on="0"/>
        <pt x="357" y="319" on="0"/>
        <pt x="385" y="344" on="0"/>
        <pt x="385" y="368" on="1"/>
        <pt x="385" y="396" on="0"/>
        <pt x="364" y="430" on="0"/>
        <pt x="331" y="448" on="0"/>
        <pt x="290" y="454" on="0"/>
        <pt x="270" y="454" on="1"/>
        <pt x="216" y="454" on="0"/>
        <pt x="144" y="413" on="0"/>
        <pt x="141" y="356" on="1"/>
        <pt x="56" y="356" on="1"/>
        <pt x="58" y="404" on="0"/>
        <pt x="94" y="470" on="0"/>
        <pt x="154" y="511" on="0"/>
        <pt x="232" y="529" on="0"/>
        <pt x="275" y="529" on="1"/>
        <pt x="310" y="529" on="0"/>
        <pt x="379" y="519" on="0"/>
        <pt x="435" y="488" on="0"/>
        <pt x="469" y="432" on="0"/>
        <pt x="469" y="387" on="1"/>
        <pt x="469" y="121" on="1"/>
        <pt x="469" y="91" on="0"/>
        <pt x="476" y="63" on="0"/>
        <pt x="496" y="63" on="1"/>
        <pt x="508" y="63" on="0"/>
        <pt x="522" y="68" on="1"/>
      </contour>
      <contour>
        <pt x="384" y="267" on="1"/>
        <pt x="372" y="258" on="0"/>
        <pt x="336" y="248" on="0"/>
        <pt x="296" y="241" on="0"/>
        <pt x="251" y="236" on="0"/>
        <pt x="209" y="228" on="0"/>
        <pt x="171" y="216" on="0"/>
        <pt x="143" y="195" on="0"/>
        <pt x="126" y="163" on="0"/>
        <pt x="126" y="139" on="1"/>
        <pt x="126" y="118" on="0"/>
        <pt x="143" y="89" on="0"/>
        <pt x="170" y="71" on="0"/>
        <pt x="206" y="63" on="0"/>
        <pt x="226" y="63" on="1"/>
        <pt x="268" y="63" on="0"/>
        <pt x="328" y="86" on="0"/>
        <pt x="366" y="121" on="0"/>
        <pt x="384" y="162" on="0"/>
        <pt x="384" y="180" on="1"/>
      </contour>
    </TTGlyph>
    <TTGlyph name="aacute" xMin="36" yMin="-12" xMax="522" yMax="732">
      <component glyphName="a" x="0" y="0" flags="0x204"/>
      <component glyphName="acute" x="182" y="0" flags="0x4"/>
    </TTGlyph>
    <TTGlyph name="abreve" xMin="36" yMin="-12" xMax="522" yMax="729">
      <component glyphName="a" x="0" y="0" flags="0x204"/>
      <component glyphName="breve" x="165" y="0" flags="0x4"/>
    </TTGlyph>
    <TTGlyph name="acircumflex" xMin="36" yMin="-12" xMax="522" yMax="732">
      <component glyphName="a" x="0" y="0" flags="0x204"/>
      <component glyphName="circumflex" x="163" y="0" flags="0x4"/>
    </TTGlyph>
    <TTGlyph name="acute" xMin="50" yMin="589" xMax="245" yMax="732">
      <contour>
        <pt x="136" y="732" on="1"/>
        <pt x="245" y="732" on="1"/>
        <pt x="114" y="589" on="1"/>
        <pt x="50" y="589" on="1"/>
      </contour>
    </TTGlyph>
    <TTGlyph name="acute.cap" xMin="50" yMin="779" xMax="245" yMax="922">
      <contour>
        <pt x="136" y="922" on="1"/>
        <pt x="245" y="922" on="1"/>
        <pt x="114" y="779" on="1"/>
        <pt x="50" y="779" on="1"/>
      </contour>
    </TTGlyph>
    <TTGlyph name="adieresis" xMin="36" yMin="-12" xMax="522" yMax="706">
      <component glyphName="dieresis" x="161" y="0" flags="0x4"/>
      <component glyphName="a" x="0" y="0" flags="0x4"/>
    </TTGlyph>
    <TTGlyph name="ae" xMin="36" yMin="-12" xMax="846" yMax="529">
      <contour>
        <pt x="467" y="233" on="1"/>
        <pt x="467" y="198" on="0"/>
        <pt x="486" y="137" on="0"/>
        <pt x="524" y="90" on="0"/>
        <pt x="583" y="63" on="0"/>
        <pt x="622" y="63" on="1"/>
        <pt x="670" y="63" on="0"/>
        <pt x="741" y="112" on="0"/>
        <pt x="753" y="163" on="1"/>
        <pt x="840" y="163" on="1"/>
        <pt x="821" y="78" on="0"/>
        <pt x="703" y="-12" on="0"/>
        <pt x="616" y="-12" on="1"/>
        <pt x="586" y="-12" on="0"/>
        <pt x="530" y="-2" on="0"/>
        <pt x="481" y="21" on="0"/>
        <pt x="442" y="60" on="0"/>
        <pt x="429" y="89" on="1"/>
        <pt x="400" y="36" on="0"/>
        <pt x="283" y="-12" on="0"/>
        <pt x="211" y="-12" on="1"/>
        <pt x="174" y="-12" on="0"/>
        <pt x="110" y="4" on="0"/>
        <pt x="63" y="39" on="0"/>
        <pt x="36" y="94" on="0"/>
        <pt x="36" y="133" on="1"/>
        <pt x="36" y="177" on="0"/>
        <pt x="66" y="233" on="0"/>
        <pt x="115" y="267" on="0"/>
        <pt x="178" y="286" on="0"/>
        <pt x="211" y="292" on="1"/>
        <pt x="258" y="301" on="0"/>
        <pt x="325" y="311" on="0"/>
        <pt x="367" y="326" on="0"/>
        <pt x="387" y="351" on="0"/>
        <pt x="387" y="374" on="1"/>
        <pt x="387" y="400" on="0"/>
        <pt x="366" y="432" on="0"/>
        <pt x="333" y="449" on="0"/>
        <pt x="291" y="454" on="0"/>
        <pt x="270" y="454" on="1"/>
        <pt x="216" y="454" on="0"/>
        <pt x="144" y="413" on="0"/>
        <pt x="141" y="356" on="1"/>
        <pt x="56" y="356" on="1"/>
        <pt x="58" y="404" on="0"/>
        <pt x="94" y="470" on="0"/>
        <pt x="154" y="511" on="0"/>
        <pt x="232" y="529" on="0"/>
        <pt x="275" y="529" on="1"/>
        <pt x="297" y="529" on="0"/>
        <pt x="348" y="524" on="0"/>
        <pt x="396" y="508" on="0"/>
        <pt x="436" y="478" on="0"/>
        <pt x="448" y="454" on="1"/>
        <pt x="474" y="494" on="0"/>
        <pt x="566" y="529" on="0"/>
        <pt x="613" y="529" on="1"/>
        <pt x="680" y="529" on="0"/>
        <pt x="770" y="482" on="0"/>
        <pt x="824" y="401" on="0"/>
        <pt x="846" y="293" on="0"/>
        <pt x="846" y="233" on="1"/>
      </contour>
      <contour>
        <pt x="126" y="139" on="1"/>
        <pt x="126" y="118" on="0"/>
        <pt x="143" y="89" on="0"/>
        <pt x="170" y="71" on="0"/>
        <pt x="206" y="63" on="0"/>
        <pt x="226" y="63" on="1"/>
        <pt x="268" y="63" on="0"/>
        <pt x="329" y="86" on="0"/>
        <pt x="368" y="121" on="0"/>
        <pt x="387" y="162" on="0"/>
        <pt x="387" y="180" on="1"/>
        <pt x="387" y="267" on="1"/>
        <pt x="374" y="259" on="0"/>
        <pt x="337" y="249" on="0"/>
        <pt x="295" y="241" on="0"/>
        <pt x="250" y="236" on="0"/>
        <pt x="230" y="232" on="1"/>
        <pt x="209" y="228" on="0"/>
        <pt x="171" y="216" on="0"/>
        <pt x="143" y="195" on="0"/>
        <pt x="126" y="163" on="0"/>
      </contour>
      <contour>
        <pt x="756" y="308" on="1"/>
        <pt x="755" y="338" on="0"/>
        <pt x="736" y="392" on="0"/>
        <pt x="699" y="431" on="0"/>
        <pt x="647" y="454" on="0"/>
        <pt x="613" y="454" on="1"/>
        <pt x="579" y="454" on="0"/>
        <pt x="525" y="432" on="0"/>
        <pt x="487" y="393" on="0"/>
        <pt x="467" y="339" on="0"/>
        <pt x="467" y="308" on="1"/>
      </contour>
    </TTGlyph>
    <TTGlyph name="afii61289" xMin="72" yMin="-14" xMax="415" yMax="721">
      <contour>
        <pt x="415" y="41" on="1"/>
        <pt x="356" y="-14" on="0"/>
        <pt x="285" y="-14" on="1"/>
        <pt x="230" y="-14" on="0"/>
        <pt x="158" y="49" on="0"/>
        <pt x="158" y="114" on="1"/>
        <pt x="158" y="228" on="1"/>
        <pt x="100" y="166" on="1"/>
        <pt x="98" y="166" on="1"/>
        <pt x="72" y="203" on="1"/>
        <pt x="158" y="287" on="1"/>
        <pt x="158" y="546" on="1"/>
        <pt x="158" y="588" on="0"/>
        <pt x="178" y="653" on="0"/>
        <pt x="213" y="698" on="0"/>
        <pt x="260" y="721" on="0"/>
        <pt x="287" y="721" on="1"/>
        <pt x="335" y="721" on="0"/>
        <pt x="397" y="653" on="0"/>
        <pt x="397" y="593" on="1"/>
        <pt x="397" y="519" on="0"/>
        <pt x="310" y="361" on="0"/>
        <pt x="226" y="275" on="1"/>
        <pt x="226" y="125" on="1"/>
        <pt x="226" y="99" on="0"/>
        <pt x="240" y="65" on="0"/>
        <pt x="262" y="46" on="0"/>
        <pt x="288" y="38" on="0"/>
        <pt x="301" y="38" on="1"/>
        <pt x="321" y="38" on="0"/>
        <pt x="366" y="56" on="0"/>
        <pt x="389" y="76" on="1"/>
        <pt x="391" y="76" on="1"/>
        <pt x="415" y="41" on="1"/>
      </contour>
      <contour>
        <pt x="340" y="588" on="1"/>
        <pt x="340" y="626" on="0"/>
        <pt x="310" y="673" on="0"/>
        <pt x="287" y="673" on="1"/>
        <pt x="264" y="673" on="0"/>
        <pt x="226" y="617" on="0"/>
        <pt x="226" y="557" on="1"/>
        <pt x="226" y="335" on="1"/>
        <pt x="282" y="400" on="0"/>
        <pt x="340" y="531" on="0"/>
      </contour>
    </TTGlyph>
    <TTGlyph name="agrave" xMin="36" yMin="-12" xMax="522" yMax="732">
      <component glyphName="a" x="0" y="0" flags="0x204"/>
      <component glyphName="grave" x="163" y="0" flags="0x4"/>
    </TTGlyph>
    <TTGlyph name="amacron" xMin="36" yMin="-12" xMax="522" yMax="682">
      <component glyphName="a" x="0" y="0" flags="0x204"/>
      <component glyphName="macron" x="167" y="0" flags="0x4"/>
    </TTGlyph>
    <TTGlyph name="ampersand" xMin="33" yMin="-12" xMax="645" yMax="714">
      <contour>
        <pt x="275" y="439" on="1"/>
        <pt x="290" y="449" on="0"/>
        <pt x="324" y="473" on="0"/>
        <pt x="352" y="503" on="0"/>
        <pt x="370" y="540" on="0"/>
        <pt x="370" y="563" on="1"/>
        <pt x="370" y="594" on="0"/>
        <pt x="326" y="639" on="0"/>
        <pt x="288" y="639" on="1"/>
        <pt x="258" y="639" on="0"/>
        <pt x="206" y="602" on="0"/>
        <pt x="206" y="563" on="1"/>
        <pt x="206" y="547" on="0"/>
        <pt x="219" y="515" on="0"/>
        <pt x="239" y="484" on="0"/>
        <pt x="263" y="454" on="0"/>
      </contour>
      <contour>
        <pt x="458" y="89" on="1"/>
        <pt x="442" y="64" on="0"/>
        <pt x="397" y="26" on="0"/>
        <pt x="344" y="1" on="0"/>
        <pt x="285" y="-12" on="0"/>
        <pt x="256" y="-12" on="1"/>
        <pt x="184" y="-12" on="0"/>
        <pt x="96" y="33" on="0"/>
        <pt x="48" y="95" on="0"/>
        <pt x="33" y="161" on="0"/>
        <pt x="33" y="183" on="1"/>
        <pt x="33" y="225" on="0"/>
        <pt x="60" y="289" on="0"/>
        <pt x="105" y="340" on="0"/>
        <pt x="166" y="381" on="0"/>
        <pt x="200" y="399" on="1"/>
        <pt x="185" y="420" on="0"/>
        <pt x="157" y="458" on="0"/>
        <pt x="134" y="496" on="0"/>
        <pt x="121" y="540" on="0"/>
        <pt x="121" y="567" on="1"/>
        <pt x="121" y="596" on="0"/>
        <pt x="142" y="649" on="0"/>
        <pt x="183" y="690" on="0"/>
        <pt x="243" y="714" on="0"/>
        <pt x="282" y="714" on="1"/>
        <pt x="315" y="714" on="0"/>
        <pt x="378" y="696" on="0"/>
        <pt x="426" y="659" on="0"/>
        <pt x="455" y="604" on="0"/>
        <pt x="455" y="568" on="1"/>
        <pt x="455" y="536" on="0"/>
        <pt x="433" y="481" on="0"/>
        <pt x="395" y="435" on="0"/>
        <pt x="347" y="398" on="0"/>
        <pt x="321" y="383" on="1"/>
        <pt x="450" y="226" on="1"/>
        <pt x="470" y="280" on="0"/>
        <pt x="473" y="337" on="1"/>
        <pt x="554" y="337" on="1"/>
        <pt x="551" y="305" on="0"/>
        <pt x="544" y="260" on="0"/>
        <pt x="533" y="222" on="0"/>
        <pt x="517" y="185" on="0"/>
        <pt x="506" y="161" on="1"/>
        <pt x="645" y="0" on="1"/>
        <pt x="534" y="0" on="1"/>
      </contour>
      <contour>
        <pt x="247" y="345" on="1"/>
        <pt x="222" y="331" on="0"/>
        <pt x="177" y="301" on="0"/>
        <pt x="143" y="263" on="0"/>
        <pt x="123" y="216" on="0"/>
        <pt x="123" y="184" on="1"/>
        <pt x="123" y="157" on="0"/>
        <pt x="146" y="112" on="0"/>
        <pt x="184" y="81" on="0"/>
        <pt x="233" y="63" on="0"/>
        <pt x="259" y="63" on="1"/>
        <pt x="308" y="63" on="0"/>
        <pt x="385" y="109" on="0"/>
        <pt x="411" y="148" on="1"/>
      </contour>
    </TTGlyph>
    <TTGlyph name="aogonek" xMin="36" yMin="-210" xMax="522" yMax="529">
      <contour>
        <pt x="522" y="2" on="1"/>
        <pt x="499" y="-12" on="0"/>
        <pt x="461" y="-12" on="1"/>
        <pt x="456" y="-12" on="0"/>
        <pt x="452" y="-11" on="1"/>
        <pt x="435" y="-26" on="0"/>
        <pt x="424" y="-38" on="1"/>
        <pt x="408" y="-54" on="0"/>
        <pt x="389" y="-83" on="0"/>
        <pt x="382" y="-108" on="0"/>
        <pt x="382" y="-118" on="1"/>
        <pt x="382" y="-134" on="0"/>
        <pt x="400" y="-160" on="0"/>
        <pt x="420" y="-160" on="1"/>
        <pt x="443" y="-160" on="0"/>
        <pt x="471" y="-144" on="0"/>
        <pt x="482" y="-130" on="1"/>
        <pt x="514" y="-148" on="1"/>
        <pt x="494" y="-183" on="0"/>
        <pt x="437" y="-210" on="0"/>
        <pt x="406" y="-210" on="1"/>
        <pt x="397" y="-210" on="0"/>
        <pt x="366" y="-207" on="0"/>
        <pt x="336" y="-191" on="0"/>
        <pt x="314" y="-158" on="0"/>
        <pt x="314" y="-128" on="1"/>
        <pt x="314" y="-121" on="0"/>
        <pt x="321" y="-96" on="0"/>
        <pt x="345" y="-61" on="0"/>
        <pt x="367" y="-40" on="1"/>
        <pt x="388" y="-21" on="0"/>
        <pt x="421" y="-2" on="1"/>
        <pt x="414" y="1" on="0"/>
        <pt x="408" y="7" on="1"/>
        <pt x="389" y="26" on="0"/>
        <pt x="389" y="68" on="1"/>
        <pt x="354" y="26" on="0"/>
        <pt x="261" y="-12" on="0"/>
        <pt x="207" y="-12" on="1"/>
        <pt x="172" y="-12" on="0"/>
        <pt x="109" y="4" on="0"/>
        <pt x="63" y="39" on="0"/>
        <pt x="36" y="94" on="0"/>
        <pt x="36" y="133" on="1"/>
        <pt x="36" y="177" on="0"/>
        <pt x="66" y="233" on="0"/>
        <pt x="115" y="267" on="0"/>
        <pt x="178" y="286" on="0"/>
        <pt x="211" y="292" on="1"/>
        <pt x="246" y="299" on="0"/>
        <pt x="309" y="306" on="0"/>
        <pt x="357" y="319" on="0"/>
        <pt x="385" y="344" on="0"/>
        <pt x="385" y="368" on="1"/>
        <pt x="385" y="396" on="0"/>
        <pt x="364" y="430" on="0"/>
        <pt x="331" y="448" on="0"/>
        <pt x="290" y="454" on="0"/>
        <pt x="270" y="454" on="1"/>
        <pt x="216" y="454" on="0"/>
        <pt x="144" y="413" on="0"/>
        <pt x="141" y="356" on="1"/>
        <pt x="56" y="356" on="1"/>
        <pt x="58" y="404" on="0"/>
        <pt x="94" y="470" on="0"/>
        <pt x="154" y="511" on="0"/>
        <pt x="232" y="529" on="0"/>
        <pt x="275" y="529" on="1"/>
        <pt x="310" y="529" on="0"/>
        <pt x="379" y="519" on="0"/>
        <pt x="435" y="488" on="0"/>
        <pt x="469" y="432" on="0"/>
        <pt x="469" y="387" on="1"/>
        <pt x="469" y="121" on="1"/>
        <pt x="469" y="91" on="0"/>
        <pt x="476" y="63" on="0"/>
        <pt x="496" y="63" on="1"/>
        <pt x="508" y="63" on="0"/>
        <pt x="522" y="68" on="1"/>
      </contour>
      <contour>
        <pt x="384" y="267" on="1"/>
        <pt x="372" y="258" on="0"/>
        <pt x="336" y="248" on="0"/>
        <pt x="296" y="241" on="0"/>
        <pt x="251" y="236" on="0"/>
        <pt x="209" y="228" on="0"/>
        <pt x="171" y="216" on="0"/>
        <pt x="143" y="195" on="0"/>
        <pt x="126" y="163" on="0"/>
        <pt x="126" y="139" on="1"/>
        <pt x="126" y="118" on="0"/>
        <pt x="143" y="89" on="0"/>
        <pt x="170" y="71" on="0"/>
        <pt x="206" y="63" on="0"/>
        <pt x="226" y="63" on="1"/>
        <pt x="268" y="63" on="0"/>
        <pt x="328" y="86" on="0"/>
        <pt x="366" y="121" on="0"/>
        <pt x="384" y="162" on="0"/>
        <pt x="384" y="180" on="1"/>
      </contour>
    </TTGlyph>
    <TTGlyph name="approxequal" xMin="32" yMin="83" xMax="561" yMax="415">
      <contour>
        <pt x="560" y="234" on="1"/>
        <pt x="557" y="206" on="0"/>
        <pt x="540" y="154" on="0"/>
        <pt x="509" y="113" on="0"/>
        <pt x="463" y="89" on="0"/>
        <pt x="431" y="89" on="1"/>
        <pt x="399" y="89" on="0"/>
        <pt x="325" y="111" on="0"/>
        <pt x="251" y="138" on="0"/>
        <pt x="184" y="161" on="0"/>
        <pt x="159" y="161" on="1"/>
        <pt x="127" y="161" on="0"/>
        <pt x="88" y="112" on="0"/>
        <pt x="84" y="83" on="1"/>
        <pt x="32" y="83" on="1"/>
        <pt x="36" y="110" on="0"/>
        <pt x="53" y="163" on="0"/>
        <pt x="84" y="205" on="0"/>
        <pt x="129" y="231" on="0"/>
        <pt x="161" y="231" on="1"/>
        <pt x="194" y="231" on="0"/>
        <pt x="265" y="209" on="0"/>
        <pt x="337" y="182" on="0"/>
        <pt x="405" y="160" on="0"/>
        <pt x="435" y="160" on="1"/>
        <pt x="469" y="160" on="0"/>
        <pt x="504" y="204" on="0"/>
        <pt x="510" y="234" on="1"/>
        <pt x="560" y="234" on="1"/>
      </contour>
      <contour>
        <pt x="561" y="415" on="1"/>
        <pt x="558" y="387" on="0"/>
        <pt x="541" y="334" on="0"/>
        <pt x="509" y="294" on="0"/>
        <pt x="463" y="269" on="0"/>
        <pt x="431" y="269" on="1"/>
        <pt x="398" y="269" on="0"/>
        <pt x="325" y="291" on="0"/>
        <pt x="252" y="318" on="0"/>
        <pt x="185" y="340" on="0"/>
        <pt x="160" y="340" on="1"/>
        <pt x="128" y="340" on="0"/>
        <pt x="89" y="292" on="0"/>
        <pt x="84" y="263" on="1"/>
        <pt x="33" y="263" on="1"/>
        <pt x="36" y="290" on="0"/>
        <pt x="54" y="343" on="0"/>
        <pt x="84" y="385" on="0"/>
        <pt x="130" y="411" on="0"/>
        <pt x="162" y="411" on="1"/>
        <pt x="194" y="411" on="0"/>
        <pt x="266" y="389" on="0"/>
        <pt x="338" y="362" on="0"/>
        <pt x="406" y="340" on="0"/>
        <pt x="436" y="340" on="1"/>
        <pt x="470" y="340" on="0"/>
        <pt x="505" y="385" on="0"/>
        <pt x="511" y="415" on="1"/>
        <pt x="561" y="415" on="1"/>
      </contour>
    </TTGlyph>
    <TTGlyph name="aring" xMin="36" yMin="-12" xMax="522" yMax="788">
      <component glyphName="a" x="0" y="0" flags="0x204"/>
      <component glyphName="ring" x="162" y="-5" flags="0x4"/>
    </TTGlyph>
    <TTGlyph name="asciicircum" xMin="50" yMin="264" xMax="550" yMax="697">
      <contour>
        <pt x="268" y="697" on="1"/>
        <pt x="332" y="697" on="1"/>
        <pt x="550" y="264" on="1"/>
        <pt x="480" y="264" on="1"/>
        <pt x="299" y="624" on="1"/>
        <pt x="121" y="264" on="1"/>
        <pt x="50" y="264" on="1"/>
      </contour>
    </TTGlyph>
    <TTGlyph name="asciitilde" xMin="69" yMin="179" xMax="531" yMax="319">
      <contour>
        <pt x="531" y="269" on="1"/>
        <pt x="520" y="253" on="0"/>
        <pt x="495" y="222" on="0"/>
        <pt x="466" y="198" on="0"/>
        <pt x="429" y="183" on="0"/>
        <pt x="406" y="183" on="1"/>
        <pt x="378" y="183" on="0"/>
        <pt x="329" y="202" on="0"/>
        <pt x="304" y="216" on="1"/>
        <pt x="280" y="230" on="0"/>
        <pt x="224" y="255" on="0"/>
        <pt x="189" y="255" on="1"/>
        <pt x="172" y="255" on="0"/>
        <pt x="147" y="241" on="0"/>
        <pt x="126" y="219" on="0"/>
        <pt x="111" y="192" on="0"/>
        <pt x="105" y="179" on="1"/>
        <pt x="69" y="229" on="1"/>
        <pt x="77" y="245" on="0"/>
        <pt x="100" y="276" on="0"/>
        <pt x="130" y="300" on="0"/>
        <pt x="169" y="315" on="0"/>
        <pt x="194" y="315" on="1"/>
        <pt x="220" y="315" on="0"/>
        <pt x="276" y="296" on="0"/>
        <pt x="305" y="283" on="1"/>
        <pt x="333" y="271" on="0"/>
        <pt x="387" y="243" on="0"/>
        <pt x="407" y="243" on="1"/>
        <pt x="422" y="243" on="0"/>
        <pt x="447" y="257" on="0"/>
        <pt x="468" y="279" on="0"/>
        <pt x="486" y="306" on="0"/>
        <pt x="495" y="319" on="1"/>
      </contour>
    </TTGlyph>
    <TTGlyph name="asterisk" xMin="24" yMin="433" xMax="328" yMax="714">
      <contour>
        <pt x="201" y="601" on="1"/>
        <pt x="308" y="641" on="1"/>
        <pt x="328" y="593" on="1"/>
        <pt x="219" y="555" on="1"/>
        <pt x="285" y="464" on="1"/>
        <pt x="244" y="433" on="1"/>
        <pt x="175" y="529" on="1"/>
        <pt x="110" y="433" on="1"/>
        <pt x="65" y="464" on="1"/>
        <pt x="130" y="555" on="1"/>
        <pt x="24" y="593" on="1"/>
        <pt x="42" y="641" on="1"/>
        <pt x="148" y="601" on="1"/>
        <pt x="148" y="714" on="1"/>
        <pt x="201" y="714" on="1"/>
      </contour>
    </TTGlyph>
    <TTGlyph name="at" xMin="42" yMin="-17" xMax="753" yMax="731">
      <contour>
        <pt x="534" y="270" on="1"/>
        <pt x="530" y="257" on="0"/>
        <pt x="523" y="230" on="0"/>
        <pt x="523" y="219" on="1"/>
        <pt x="523" y="205" on="0"/>
        <pt x="534" y="188" on="0"/>
        <pt x="547" y="188" on="1"/>
        <pt x="570" y="188" on="0"/>
        <pt x="619" y="230" on="0"/>
        <pt x="659" y="296" on="0"/>
        <pt x="685" y="378" on="0"/>
        <pt x="685" y="418" on="1"/>
        <pt x="685" y="477" on="0"/>
        <pt x="640" y="573" on="0"/>
        <pt x="564" y="640" on="0"/>
        <pt x="466" y="676" on="0"/>
        <pt x="414" y="676" on="1"/>
        <pt x="350" y="676" on="0"/>
        <pt x="239" y="625" on="0"/>
        <pt x="157" y="537" on="0"/>
        <pt x="110" y="421" on="0"/>
        <pt x="110" y="355" on="1"/>
        <pt x="110" y="288" on="0"/>
        <pt x="159" y="172" on="0"/>
        <pt x="244" y="87" on="0"/>
        <pt x="356" y="38" on="0"/>
        <pt x="419" y="38" on="1"/>
        <pt x="455" y="38" on="0"/>
        <pt x="525" y="55" on="0"/>
        <pt x="590" y="87" on="0"/>
        <pt x="646" y="132" on="0"/>
        <pt x="667" y="159" on="1"/>
        <pt x="730" y="159" on="1"/>
        <pt x="706" y="118" on="0"/>
        <pt x="638" y="52" on="0"/>
        <pt x="557" y="7" on="0"/>
        <pt x="465" y="-17" on="0"/>
        <pt x="417" y="-17" on="1"/>
        <pt x="338" y="-17" on="0"/>
        <pt x="201" y="41" on="0"/>
        <pt x="100" y="143" on="0"/>
        <pt x="42" y="281" on="0"/>
        <pt x="42" y="360" on="1"/>
        <pt x="42" y="437" on="0"/>
        <pt x="101" y="572" on="0"/>
        <pt x="202" y="673" on="0"/>
        <pt x="337" y="731" on="0"/>
        <pt x="413" y="731" on="1"/>
        <pt x="482" y="731" on="0"/>
        <pt x="606" y="685" on="0"/>
        <pt x="699" y="604" on="0"/>
        <pt x="753" y="490" on="0"/>
        <pt x="753" y="423" on="1"/>
        <pt x="753" y="358" on="0"/>
        <pt x="706" y="251" on="0"/>
        <pt x="636" y="175" on="0"/>
        <pt x="554" y="133" on="0"/>
        <pt x="519" y="133" on="1"/>
        <pt x="493" y="133" on="0"/>
        <pt x="457" y="165" on="0"/>
        <pt x="455" y="198" on="1"/>
        <pt x="452" y="198" on="1"/>
        <pt x="429" y="172" on="0"/>
        <pt x="365" y="131" on="0"/>
        <pt x="328" y="131" on="1"/>
        <pt x="296" y="131" on="0"/>
        <pt x="243" y="156" on="0"/>
        <pt x="206" y="198" on="0"/>
        <pt x="185" y="256" on="0"/>
        <pt x="185" y="289" on="1"/>
        <pt x="185" y="341" on="0"/>
        <pt x="219" y="443" on="0"/>
        <pt x="280" y="523" on="0"/>
        <pt x="367" y="573" on="0"/>
        <pt x="420" y="573" on="1"/>
        <pt x="455" y="573" on="0"/>
        <pt x="515" y="536" on="0"/>
        <pt x="532" y="491" on="1"/>
        <pt x="555" y="554" on="1"/>
        <pt x="618" y="554" on="1"/>
      </contour>
      <contour>
        <pt x="420" y="505" on="1"/>
        <pt x="385" y="505" on="0"/>
        <pt x="326" y="464" on="0"/>
        <pt x="284" y="402" on="0"/>
        <pt x="260" y="329" on="0"/>
        <pt x="260" y="296" on="1"/>
        <pt x="260" y="254" on="0"/>
        <pt x="308" y="199" on="0"/>
        <pt x="346" y="199" on="1"/>
        <pt x="379" y="199" on="0"/>
        <pt x="435" y="242" on="0"/>
        <pt x="477" y="307" on="0"/>
        <pt x="501" y="381" on="0"/>
        <pt x="501" y="412" on="1"/>
        <pt x="501" y="430" on="0"/>
        <pt x="487" y="464" on="0"/>
        <pt x="465" y="489" on="0"/>
        <pt x="436" y="505" on="0"/>
      </contour>
    </TTGlyph>
    <TTGlyph name="atilde" xMin="36" yMin="-12" xMax="522" yMax="717">
      <component glyphName="a" x="0" y="0" flags="0x204"/>
      <component glyphName="tilde" x="162" y="0" flags="0x4"/>
    </TTGlyph>
    <TTGlyph name="b" xMin="67" yMin="-12" xMax="557" yMax="714">
      <contour>
        <pt x="67" y="714" on="1"/>
        <pt x="152" y="714" on="1"/>
        <pt x="152" y="447" on="1"/>
        <pt x="154" y="447" on="1"/>
        <pt x="175" y="490" on="0"/>
        <pt x="265" y="529" on="0"/>
        <pt x="319" y="529" on="1"/>
        <pt x="379" y="529" on="0"/>
        <pt x="468" y="485" on="0"/>
        <pt x="527" y="410" on="0"/>
        <pt x="557" y="312" on="0"/>
        <pt x="557" y="257" on="1"/>
        <pt x="557" y="202" on="0"/>
        <pt x="528" y="104" on="0"/>
        <pt x="469" y="31" on="0"/>
        <pt x="380" y="-12" on="0"/>
        <pt x="321" y="-12" on="1"/>
        <pt x="301" y="-12" on="0"/>
        <pt x="255" y="-4" on="0"/>
        <pt x="209" y="15" on="0"/>
        <pt x="168" y="46" on="0"/>
        <pt x="154" y="69" on="1"/>
        <pt x="152" y="69" on="1"/>
        <pt x="152" y="0" on="1"/>
        <pt x="67" y="0" on="1"/>
      </contour>
      <contour>
        <pt x="467" y="263" on="1"/>
        <pt x="467" y="299" on="0"/>
        <pt x="448" y="368" on="0"/>
        <pt x="409" y="422" on="0"/>
        <pt x="348" y="454" on="0"/>
        <pt x="307" y="454" on="1"/>
        <pt x="264" y="454" on="0"/>
        <pt x="204" y="420" on="0"/>
        <pt x="166" y="365" on="0"/>
        <pt x="149" y="295" on="0"/>
        <pt x="149" y="259" on="1"/>
        <pt x="149" y="221" on="0"/>
        <pt x="167" y="150" on="0"/>
        <pt x="206" y="96" on="0"/>
        <pt x="268" y="63" on="0"/>
        <pt x="312" y="63" on="1"/>
        <pt x="355" y="63" on="0"/>
        <pt x="415" y="97" on="0"/>
        <pt x="451" y="153" on="0"/>
        <pt x="467" y="225" on="0"/>
      </contour>
    </TTGlyph>
    <TTGlyph name="backslash" xMin="-18" yMin="-17" xMax="351" yMax="731">
      <contour>
        <pt x="351" y="-17" on="1"/>
        <pt x="278" y="-17" on="1"/>
        <pt x="-18" y="731" on="1"/>
        <pt x="55" y="731" on="1"/>
      </contour>
    </TTGlyph>
    <TTGlyph name="bar" xMin="77" yMin="-214" xMax="145" yMax="786">
      <contour>
        <pt x="77" y="786" on="1"/>
        <pt x="145" y="786" on="1"/>
        <pt x="145" y="-214" on="1"/>
        <pt x="77" y="-214" on="1"/>
      </contour>
    </TTGlyph>
    <TTGlyph name="braceleft" xMin="48" yMin="-198" xMax="309" yMax="731">
      <contour>
        <pt x="309" y="671" on="1"/>
        <pt x="259" y="671" on="1"/>
        <pt x="244" y="671" on="0"/>
        <pt x="226" y="656" on="0"/>
        <pt x="215" y="632" on="0"/>
        <pt x="211" y="601" on="0"/>
        <pt x="211" y="585" on="1"/>
        <pt x="211" y="402" on="1"/>
        <pt x="211" y="367" on="0"/>
        <pt x="190" y="318" on="0"/>
        <pt x="162" y="286" on="0"/>
        <pt x="133" y="270" on="0"/>
        <pt x="124" y="268" on="1"/>
        <pt x="124" y="265" on="1"/>
        <pt x="133" y="264" on="0"/>
        <pt x="162" y="250" on="0"/>
        <pt x="190" y="220" on="0"/>
        <pt x="211" y="169" on="0"/>
        <pt x="211" y="131" on="1"/>
        <pt x="211" y="-52" on="1"/>
        <pt x="211" y="-67" on="0"/>
        <pt x="215" y="-98" on="0"/>
        <pt x="226" y="-123" on="0"/>
        <pt x="244" y="-138" on="0"/>
        <pt x="259" y="-138" on="1"/>
        <pt x="309" y="-138" on="1"/>
        <pt x="309" y="-198" on="1"/>
        <pt x="239" y="-198" on="1"/>
        <pt x="220" y="-198" on="0"/>
        <pt x="182" y="-181" on="0"/>
        <pt x="151" y="-148" on="0"/>
        <pt x="131" y="-99" on="0"/>
        <pt x="131" y="-67" on="1"/>
        <pt x="131" y="115" on="1"/>
        <pt x="131" y="170" on="0"/>
        <pt x="80" y="232" on="0"/>
        <pt x="48" y="232" on="1"/>
        <pt x="48" y="300" on="1"/>
        <pt x="64" y="300" on="0"/>
        <pt x="94" y="317" on="0"/>
        <pt x="117" y="348" on="0"/>
        <pt x="131" y="392" on="0"/>
        <pt x="131" y="418" on="1"/>
        <pt x="131" y="600" on="1"/>
        <pt x="131" y="632" on="0"/>
        <pt x="151" y="681" on="0"/>
        <pt x="182" y="714" on="0"/>
        <pt x="220" y="731" on="0"/>
        <pt x="239" y="731" on="1"/>
        <pt x="309" y="731" on="1"/>
      </contour>
    </TTGlyph>
    <TTGlyph name="braceright" xMin="24" yMin="-198" xMax="285" yMax="731">
      <contour>
        <pt x="24" y="-138" on="1"/>
        <pt x="74" y="-138" on="1"/>
        <pt x="89" y="-138" on="0"/>
        <pt x="107" y="-123" on="0"/>
        <pt x="118" y="-99" on="0"/>
        <pt x="122" y="-68" on="0"/>
        <pt x="122" y="-52" on="1"/>
        <pt x="122" y="131" on="1"/>
        <pt x="122" y="166" on="0"/>
        <pt x="143" y="215" on="0"/>
        <pt x="171" y="247" on="0"/>
        <pt x="200" y="263" on="0"/>
        <pt x="209" y="265" on="1"/>
        <pt x="209" y="268" on="1"/>
        <pt x="200" y="269" on="0"/>
        <pt x="171" y="283" on="0"/>
        <pt x="143" y="313" on="0"/>
        <pt x="122" y="364" on="0"/>
        <pt x="122" y="402" on="1"/>
        <pt x="122" y="583" on="1"/>
        <pt x="122" y="599" on="0"/>
        <pt x="118" y="631" on="0"/>
        <pt x="107" y="656" on="0"/>
        <pt x="89" y="671" on="0"/>
        <pt x="74" y="671" on="1"/>
        <pt x="24" y="671" on="1"/>
        <pt x="24" y="731" on="1"/>
        <pt x="94" y="731" on="1"/>
        <pt x="113" y="731" on="0"/>
        <pt x="151" y="714" on="0"/>
        <pt x="182" y="681" on="0"/>
        <pt x="202" y="632" on="0"/>
        <pt x="202" y="600" on="1"/>
        <pt x="202" y="418" on="1"/>
        <pt x="202" y="391" on="0"/>
        <pt x="216" y="347" on="0"/>
        <pt x="239" y="316" on="0"/>
        <pt x="269" y="300" on="0"/>
        <pt x="285" y="300" on="1"/>
        <pt x="285" y="232" on="1"/>
        <pt x="269" y="232" on="0"/>
        <pt x="239" y="215" on="0"/>
        <pt x="216" y="184" on="0"/>
        <pt x="202" y="141" on="0"/>
        <pt x="202" y="115" on="1"/>
        <pt x="202" y="-67" on="1"/>
        <pt x="202" y="-99" on="0"/>
        <pt x="182" y="-148" on="0"/>
        <pt x="151" y="-181" on="0"/>
        <pt x="113" y="-198" on="0"/>
        <pt x="94" y="-198" on="1"/>
        <pt x="24" y="-198" on="1"/>
      </contour>
    </TTGlyph>
    <TTGlyph name="bracketleft" xMin="72" yMin="-198" xMax="259" yMax="731">
      <contour>
        <pt x="259" y="663" on="1"/>
        <pt x="152" y="663" on="1"/>
        <pt x="152" y="-130" on="1"/>
        <pt x="259" y="-130" on="1"/>
        <pt x="259" y="-198" on="1"/>
        <pt x="72" y="-198" on="1"/>
        <pt x="72" y="731" on="1"/>
        <pt x="259" y="731" on="1"/>
      </contour>
    </TTGlyph>
    <TTGlyph name="bracketright" xMin="0" yMin="-198" xMax="187" yMax="731">
      <contour>
        <pt x="0" y="-130" on="1"/>
        <pt x="107" y="-130" on="1"/>
        <pt x="107" y="663" on="1"/>
        <pt x="0" y="663" on="1"/>
        <pt x="0" y="731" on="1"/>
        <pt x="187" y="731" on="1"/>
        <pt x="187" y="-198" on="1"/>
        <pt x="0" y="-198" on="1"/>
      </contour>
    </TTGlyph>
    <TTGlyph name="breve" xMin="-45" yMin="591" xMax="267" yMax="729">
      <contour>
        <pt x="5" y="729" on="1"/>
        <pt x="29" y="646" on="0"/>
        <pt x="117" y="646" on="1"/>
        <pt x="160" y="646" on="0"/>
        <pt x="201" y="691" on="0"/>
        <pt x="216" y="729" on="1"/>
        <pt x="267" y="729" on="1"/>
        <pt x="256" y="665" on="0"/>
        <pt x="175" y="591" on="0"/>
        <pt x="109" y="591" on="1"/>
        <pt x="40" y="591" on="0"/>
        <pt x="-35" y="662" on="0"/>
        <pt x="-45" y="729" on="1"/>
      </contour>
    </TTGlyph>
    <TTGlyph name="breve.cap" xMin="-45" yMin="781" xMax="267" yMax="919">
      <contour>
        <pt x="5" y="919" on="1"/>
        <pt x="29" y="836" on="0"/>
        <pt x="117" y="836" on="1"/>
        <pt x="160" y="836" on="0"/>
        <pt x="201" y="881" on="0"/>
        <pt x="216" y="919" on="1"/>
        <pt x="267" y="919" on="1"/>
        <pt x="256" y="855" on="0"/>
        <pt x="175" y="781" on="0"/>
        <pt x="109" y="781" on="1"/>
        <pt x="40" y="781" on="0"/>
        <pt x="-35" y="852" on="0"/>
        <pt x="-45" y="919" on="1"/>
      </contour>
    </TTGlyph>
    <TTGlyph name="brokenbar" xMin="77" yMin="-89" xMax="145" yMax="661">
      <contour>
        <pt x="145" y="411" on="1"/>
        <pt x="77" y="411" on="1"/>
        <pt x="77" y="661" on="1"/>
        <pt x="145" y="661" on="1"/>
      </contour>
      <contour>
        <pt x="77" y="161" on="1"/>
        <pt x="145" y="161" on="1"/>
        <pt x="145" y="-89" on="1"/>
        <pt x="77" y="-89" on="1"/>
      </contour>
    </TTGlyph>
    <TTGlyph name="bullet" xMin="72" yMin="178" xMax="429" yMax="535">
      <contour>
        <pt x="72" y="357" on="1"/>
        <pt x="72" y="394" on="0"/>
        <pt x="100" y="459" on="0"/>
        <pt x="148" y="507" on="0"/>
        <pt x="213" y="535" on="0"/>
        <pt x="250" y="535" on="1"/>
        <pt x="287" y="535" on="0"/>
        <pt x="352" y="507" on="0"/>
        <pt x="401" y="459" on="0"/>
        <pt x="429" y="394" on="0"/>
        <pt x="429" y="357" on="1"/>
        <pt x="429" y="320" on="0"/>
        <pt x="401" y="255" on="0"/>
        <pt x="352" y="206" on="0"/>
        <pt x="287" y="178" on="0"/>
        <pt x="250" y="178" on="1"/>
        <pt x="213" y="178" on="0"/>
        <pt x="148" y="206" on="0"/>
        <pt x="100" y="255" on="0"/>
        <pt x="72" y="320" on="0"/>
      </contour>
    </TTGlyph>
    <TTGlyph name="c" xMin="36" yMin="-12" xMax="506" yMax="529">
      <contour>
        <pt x="415" y="351" on="1"/>
        <pt x="405" y="400" on="0"/>
        <pt x="340" y="454" on="0"/>
        <pt x="287" y="454" on="1"/>
        <pt x="241" y="454" on="0"/>
        <pt x="179" y="420" on="0"/>
        <pt x="142" y="364" on="0"/>
        <pt x="126" y="291" on="0"/>
        <pt x="126" y="252" on="1"/>
        <pt x="126" y="216" on="0"/>
        <pt x="143" y="148" on="0"/>
        <pt x="179" y="95" on="0"/>
        <pt x="236" y="63" on="0"/>
        <pt x="277" y="63" on="1"/>
        <pt x="339" y="63" on="0"/>
        <pt x="411" y="130" on="0"/>
        <pt x="419" y="189" on="1"/>
        <pt x="506" y="189" on="1"/>
        <pt x="492" y="94" on="0"/>
        <pt x="376" y="-12" on="0"/>
        <pt x="278" y="-12" on="1"/>
        <pt x="219" y="-12" on="0"/>
        <pt x="128" y="27" on="0"/>
        <pt x="67" y="97" on="0"/>
        <pt x="36" y="194" on="0"/>
        <pt x="36" y="252" on="1"/>
        <pt x="36" y="310" on="0"/>
        <pt x="66" y="411" on="0"/>
        <pt x="127" y="486" on="0"/>
        <pt x="218" y="529" on="0"/>
        <pt x="280" y="529" on="1"/>
        <pt x="324" y="529" on="0"/>
        <pt x="401" y="508" on="0"/>
        <pt x="461" y="464" on="0"/>
        <pt x="498" y="397" on="0"/>
        <pt x="503" y="351" on="1"/>
      </contour>
    </TTGlyph>
    <TTGlyph name="cacute" xMin="36" yMin="-12" xMax="506" yMax="732">
      <component glyphName="c" x="0" y="0" flags="0x204"/>
      <component glyphName="acute" x="193" y="0" flags="0x4"/>
    </TTGlyph>
    <TTGlyph name="caron" xMin="-39" yMin="589" xMax="261" yMax="732">
      <contour>
        <pt x="158" y="589" on="1"/>
        <pt x="65" y="589" on="1"/>
        <pt x="-39" y="732" on="1"/>
        <pt x="45" y="732" on="1"/>
        <pt x="114" y="636" on="1"/>
        <pt x="184" y="732" on="1"/>
        <pt x="261" y="732" on="1"/>
      </contour>
    </TTGlyph>
    <TTGlyph name="caron.alt" xMin="80" yMin="571" xMax="215" yMax="714">
      <contour>
        <pt x="106" y="714" on="1"/>
        <pt x="215" y="714" on="1"/>
        <pt x="140" y="571" on="1"/>
        <pt x="80" y="571" on="1"/>
      </contour>
    </TTGlyph>
    <TTGlyph name="caron.cap" xMin="-39" yMin="779" xMax="261" yMax="922">
      <contour>
        <pt x="158" y="779" on="1"/>
        <pt x="65" y="779" on="1"/>
        <pt x="-39" y="922" on="1"/>
        <pt x="45" y="922" on="1"/>
        <pt x="114" y="826" on="1"/>
        <pt x="184" y="922" on="1"/>
        <pt x="261" y="922" on="1"/>
      </contour>
    </TTGlyph>
    <TTGlyph name="carontwo" xMin="80" yMin="571" xMax="215" yMax="714">
      <contour>
        <pt x="106" y="714" on="1"/>
        <pt x="215" y="714" on="1"/>
        <pt x="140" y="571" on="1"/>
        <pt x="80" y="571" on="1"/>
      </contour>
    </TTGlyph>
    <TTGlyph name="ccaron" xMin="36" yMin="-12" xMax="506" yMax="732">
      <component glyphName="c" x="0" y="0" flags="0x204"/>
      <component glyphName="caron" x="165" y="0" flags="0x4"/>
    </TTGlyph>
    <TTGlyph name="ccedilla" xMin="36" yMin="-210" xMax="506" yMax="529">
      <contour>
        <pt x="415" y="351" on="1"/>
        <pt x="405" y="400" on="0"/>
        <pt x="340" y="454" on="0"/>
        <pt x="287" y="454" on="1"/>
        <pt x="241" y="454" on="0"/>
        <pt x="179" y="420" on="0"/>
        <pt x="142" y="364" on="0"/>
        <pt x="126" y="291" on="0"/>
        <pt x="126" y="252" on="1"/>
        <pt x="126" y="216" on="0"/>
        <pt x="143" y="148" on="0"/>
        <pt x="179" y="95" on="0"/>
        <pt x="236" y="63" on="0"/>
        <pt x="277" y="63" on="1"/>
        <pt x="339" y="63" on="0"/>
        <pt x="411" y="130" on="0"/>
        <pt x="419" y="189" on="1"/>
        <pt x="506" y="189" on="1"/>
        <pt x="492" y="98" on="0"/>
        <pt x="384" y="-7" on="0"/>
        <pt x="293" y="-11" on="1"/>
        <pt x="260" y="-53" on="1"/>
        <pt x="262" y="-55" on="1"/>
        <pt x="272" y="-48" on="0"/>
        <pt x="295" y="-48" on="1"/>
        <pt x="311" y="-48" on="0"/>
        <pt x="341" y="-57" on="0"/>
        <pt x="365" y="-75" on="0"/>
        <pt x="379" y="-103" on="0"/>
        <pt x="379" y="-121" on="1"/>
        <pt x="379" y="-146" on="0"/>
        <pt x="356" y="-180" on="0"/>
        <pt x="320" y="-201" on="0"/>
        <pt x="276" y="-210" on="0"/>
        <pt x="255" y="-210" on="1"/>
        <pt x="231" y="-210" on="0"/>
        <pt x="186" y="-199" on="0"/>
        <pt x="163" y="-191" on="1"/>
        <pt x="181" y="-147" on="1"/>
        <pt x="193" y="-152" on="0"/>
        <pt x="226" y="-160" on="0"/>
        <pt x="242" y="-160" on="1"/>
        <pt x="252" y="-160" on="0"/>
        <pt x="274" y="-157" on="0"/>
        <pt x="292" y="-149" on="0"/>
        <pt x="304" y="-138" on="0"/>
        <pt x="304" y="-129" on="1"/>
        <pt x="304" y="-115" on="0"/>
        <pt x="277" y="-98" on="0"/>
        <pt x="257" y="-98" on="1"/>
        <pt x="245" y="-98" on="0"/>
        <pt x="227" y="-102" on="0"/>
        <pt x="216" y="-106" on="1"/>
        <pt x="199" y="-78" on="1"/>
        <pt x="252" y="-10" on="1"/>
        <pt x="199" y="-6" on="0"/>
        <pt x="118" y="36" on="0"/>
        <pt x="64" y="105" on="0"/>
        <pt x="36" y="198" on="0"/>
        <pt x="36" y="252" on="1"/>
        <pt x="36" y="310" on="0"/>
        <pt x="66" y="411" on="0"/>
        <pt x="127" y="486" on="0"/>
        <pt x="218" y="529" on="0"/>
        <pt x="280" y="529" on="1"/>
        <pt x="324" y="529" on="0"/>
        <pt x="401" y="508" on="0"/>
        <pt x="461" y="464" on="0"/>
        <pt x="498" y="397" on="0"/>
        <pt x="503" y="351" on="1"/>
      </contour>
    </TTGlyph>
    <TTGlyph name="ccircumflex" xMin="36" yMin="-12" xMax="506" yMax="732">
      <component glyphName="c" x="0" y="0" flags="0x204"/>
      <component glyphName="circumflex" x="175" y="0" flags="0x4"/>
    </TTGlyph>
    <TTGlyph name="cdotaccent" xMin="36" yMin="-12" xMax="506" yMax="708">
      <component glyphName="c" x="0" y="0" flags="0x204"/>
      <component glyphName="dotaccent" x="170" y="0" flags="0x4"/>
    </TTGlyph>
    <TTGlyph name="cedilla" xMin="5" yMin="-210" xMax="221" yMax="0">
      <contour>
        <pt x="23" y="-147" on="1"/>
        <pt x="35" y="-152" on="0"/>
        <pt x="68" y="-160" on="0"/>
        <pt x="84" y="-160" on="1"/>
        <pt x="94" y="-160" on="0"/>
        <pt x="116" y="-157" on="0"/>
        <pt x="134" y="-149" on="0"/>
        <pt x="146" y="-138" on="0"/>
        <pt x="146" y="-129" on="1"/>
        <pt x="146" y="-115" on="0"/>
        <pt x="119" y="-98" on="0"/>
        <pt x="99" y="-98" on="1"/>
        <pt x="87" y="-98" on="0"/>
        <pt x="69" y="-102" on="0"/>
        <pt x="58" y="-106" on="1"/>
        <pt x="41" y="-78" on="1"/>
        <pt x="102" y="0" on="1"/>
        <pt x="144" y="0" on="1"/>
        <pt x="102" y="-53" on="1"/>
        <pt x="104" y="-55" on="1"/>
        <pt x="114" y="-48" on="0"/>
        <pt x="137" y="-48" on="1"/>
        <pt x="153" y="-48" on="0"/>
        <pt x="183" y="-57" on="0"/>
        <pt x="207" y="-75" on="0"/>
        <pt x="221" y="-103" on="0"/>
        <pt x="221" y="-121" on="1"/>
        <pt x="221" y="-146" on="0"/>
        <pt x="198" y="-180" on="0"/>
        <pt x="162" y="-201" on="0"/>
        <pt x="118" y="-210" on="0"/>
        <pt x="97" y="-210" on="1"/>
        <pt x="73" y="-210" on="0"/>
        <pt x="28" y="-199" on="0"/>
        <pt x="5" y="-191" on="1"/>
      </contour>
    </TTGlyph>
    <TTGlyph name="cent" xMin="46" yMin="-116" xMax="517" yMax="624">
      <contour>
        <pt x="272" y="-12" on="1"/>
        <pt x="217" y="-10" on="0"/>
        <pt x="133" y="32" on="0"/>
        <pt x="76" y="102" on="0"/>
        <pt x="46" y="196" on="0"/>
        <pt x="46" y="252" on="1"/>
        <pt x="46" y="306" on="0"/>
        <pt x="74" y="403" on="0"/>
        <pt x="131" y="478" on="0"/>
        <pt x="216" y="525" on="0"/>
        <pt x="272" y="529" on="1"/>
        <pt x="272" y="624" on="1"/>
        <pt x="311" y="624" on="1"/>
        <pt x="311" y="529" on="1"/>
        <pt x="393" y="527" on="0"/>
        <pt x="503" y="442" on="0"/>
        <pt x="514" y="351" on="1"/>
        <pt x="427" y="351" on="1"/>
        <pt x="417" y="397" on="0"/>
        <pt x="359" y="452" on="0"/>
        <pt x="311" y="454" on="1"/>
        <pt x="311" y="63" on="1"/>
        <pt x="365" y="68" on="0"/>
        <pt x="424" y="138" on="0"/>
        <pt x="432" y="189" on="1"/>
        <pt x="517" y="189" on="1"/>
        <pt x="513" y="152" on="0"/>
        <pt x="483" y="80" on="0"/>
        <pt x="431" y="23" on="0"/>
        <pt x="358" y="-12" on="0"/>
        <pt x="311" y="-12" on="1"/>
        <pt x="311" y="-116" on="1"/>
        <pt x="272" y="-116" on="1"/>
      </contour>
      <contour>
        <pt x="272" y="454" on="1"/>
        <pt x="233" y="449" on="0"/>
        <pt x="181" y="413" on="0"/>
        <pt x="150" y="358" on="0"/>
        <pt x="136" y="289" on="0"/>
        <pt x="136" y="252" on="1"/>
        <pt x="136" y="218" on="0"/>
        <pt x="151" y="152" on="0"/>
        <pt x="184" y="100" on="0"/>
        <pt x="236" y="66" on="0"/>
        <pt x="272" y="63" on="1"/>
      </contour>
    </TTGlyph>
    <TTGlyph name="circumflex" xMin="-39" yMin="589" xMax="261" yMax="732">
      <contour>
        <pt x="64" y="732" on="1"/>
        <pt x="157" y="732" on="1"/>
        <pt x="261" y="589" on="1"/>
        <pt x="177" y="589" on="1"/>
        <pt x="108" y="685" on="1"/>
        <pt x="38" y="589" on="1"/>
        <pt x="-39" y="589" on="1"/>
      </contour>
    </TTGlyph>
    <TTGlyph name="circumflex.cap" xMin="-39" yMin="779" xMax="261" yMax="922">
      <contour>
        <pt x="64" y="922" on="1"/>
        <pt x="157" y="922" on="1"/>
        <pt x="261" y="779" on="1"/>
        <pt x="177" y="779" on="1"/>
        <pt x="108" y="875" on="1"/>
        <pt x="38" y="779" on="1"/>
        <pt x="-39" y="779" on="1"/>
      </contour>
    </TTGlyph>
    <TTGlyph name="colon" xMin="83" yMin="0" xMax="194" yMax="517">
      <contour>
        <pt x="194" y="406" on="1"/>
        <pt x="83" y="406" on="1"/>
        <pt x="83" y="517" on="1"/>
        <pt x="194" y="517" on="1"/>
      </contour>
      <contour>
        <pt x="83" y="111" on="1"/>
        <pt x="194" y="111" on="1"/>
        <pt x="194" y="0" on="1"/>
        <pt x="83" y="0" on="1"/>
      </contour>
    </TTGlyph>
    <TTGlyph name="comma" xMin="83" yMin="-147" xMax="194" yMax="111">
      <contour>
        <pt x="83" y="111" on="1"/>
        <pt x="194" y="111" on="1"/>
        <pt x="194" y="10" on="1"/>
        <pt x="194" y="-47" on="0"/>
        <pt x="142" y="-130" on="0"/>
        <pt x="84" y="-147" on="1"/>
        <pt x="84" y="-97" on="1"/>
        <pt x="101" y="-91" on="0"/>
        <pt x="124" y="-69" on="0"/>
        <pt x="137" y="-41" on="0"/>
        <pt x="143" y="-12" on="0"/>
        <pt x="142" y="0" on="1"/>
        <pt x="83" y="0" on="1"/>
      </contour>
    </TTGlyph>
    <TTGlyph name="commaaccent" xMin="81" yMin="-210" xMax="192" yMax="-50">
      <contour>
        <pt x="81" y="-50" on="1"/>
        <pt x="192" y="-50" on="1"/>
        <pt x="192" y="-127" on="1"/>
        <pt x="192" y="-170" on="0"/>
        <pt x="137" y="-210" on="0"/>
        <pt x="93" y="-210" on="1"/>
        <pt x="93" y="-175" on="1"/>
        <pt x="115" y="-169" on="0"/>
        <pt x="129" y="-157" on="0"/>
        <pt x="133" y="-144" on="0"/>
        <pt x="133" y="-138" on="1"/>
        <pt x="81" y="-138" on="1"/>
      </contour>
    </TTGlyph>
    <TTGlyph name="commaaccent.alt" xMin="83" yMin="626" xMax="194" yMax="786">
      <contour>
        <pt x="194" y="626" on="1"/>
        <pt x="83" y="626" on="1"/>
        <pt x="83" y="703" on="1"/>
        <pt x="83" y="746" on="0"/>
        <pt x="137" y="786" on="0"/>
        <pt x="182" y="786" on="1"/>
        <pt x="182" y="751" on="1"/>
        <pt x="167" y="747" on="0"/>
        <pt x="150" y="738" on="0"/>
        <pt x="143" y="728" on="0"/>
        <pt x="142" y="718" on="0"/>
        <pt x="142" y="714" on="1"/>
        <pt x="194" y="714" on="1"/>
      </contour>
    </TTGlyph>
    <TTGlyph name="commaaccenttwo" xMin="83" yMin="626" xMax="194" yMax="786">
      <contour>
        <pt x="194" y="626" on="1"/>
        <pt x="83" y="626" on="1"/>
        <pt x="83" y="703" on="1"/>
        <pt x="83" y="746" on="0"/>
        <pt x="138" y="786" on="0"/>
        <pt x="182" y="786" on="1"/>
        <pt x="182" y="751" on="1"/>
        <pt x="160" y="745" on="0"/>
        <pt x="146" y="733" on="0"/>
        <pt x="142" y="720" on="0"/>
        <pt x="142" y="714" on="1"/>
        <pt x="194" y="714" on="1"/>
      </contour>
    </TTGlyph>
    <TTGlyph name="copyright" xMin="24" yMin="-17" xMax="776" yMax="731">
      <contour>
        <pt x="599" y="285" on="1"/>
        <pt x="583" y="212" on="0"/>
        <pt x="482" y="128" on="0"/>
        <pt x="413" y="128" on="1"/>
        <pt x="362" y="128" on="0"/>
        <pt x="280" y="163" on="0"/>
        <pt x="222" y="224" on="0"/>
        <pt x="191" y="308" on="0"/>
        <pt x="191" y="357" on="1"/>
        <pt x="191" y="407" on="0"/>
        <pt x="221" y="491" on="0"/>
        <pt x="277" y="551" on="0"/>
        <pt x="359" y="585" on="0"/>
        <pt x="410" y="585" on="1"/>
        <pt x="446" y="585" on="0"/>
        <pt x="509" y="566" on="0"/>
        <pt x="559" y="527" on="0"/>
        <pt x="592" y="470" on="0"/>
        <pt x="598" y="433" on="1"/>
        <pt x="535" y="433" on="1"/>
        <pt x="527" y="475" on="0"/>
        <pt x="461" y="530" on="0"/>
        <pt x="411" y="530" on="1"/>
        <pt x="374" y="530" on="0"/>
        <pt x="317" y="504" on="0"/>
        <pt x="279" y="457" on="0"/>
        <pt x="259" y="395" on="0"/>
        <pt x="259" y="359" on="1"/>
        <pt x="259" y="324" on="0"/>
        <pt x="280" y="260" on="0"/>
        <pt x="320" y="212" on="0"/>
        <pt x="377" y="183" on="0"/>
        <pt x="413" y="183" on="1"/>
        <pt x="463" y="183" on="0"/>
        <pt x="528" y="240" on="0"/>
        <pt x="535" y="285" on="1"/>
      </contour>
      <contour>
        <pt x="92" y="359" on="1"/>
        <pt x="92" y="290" on="0"/>
        <pt x="139" y="173" on="0"/>
        <pt x="222" y="87" on="0"/>
        <pt x="335" y="38" on="0"/>
        <pt x="401" y="38" on="1"/>
        <pt x="466" y="38" on="0"/>
        <pt x="578" y="87" on="0"/>
        <pt x="661" y="173" on="0"/>
        <pt x="708" y="290" on="0"/>
        <pt x="708" y="359" on="1"/>
        <pt x="708" y="426" on="0"/>
        <pt x="661" y="541" on="0"/>
        <pt x="578" y="627" on="0"/>
        <pt x="466" y="676" on="0"/>
        <pt x="401" y="676" on="1"/>
        <pt x="335" y="676" on="0"/>
        <pt x="222" y="627" on="0"/>
        <pt x="139" y="541" on="0"/>
        <pt x="92" y="426" on="0"/>
      </contour>
      <contour>
        <pt x="24" y="359" on="1"/>
        <pt x="24" y="438" on="0"/>
        <pt x="84" y="574" on="0"/>
        <pt x="187" y="674" on="0"/>
        <pt x="324" y="731" on="0"/>
        <pt x="401" y="731" on="1"/>
        <pt x="477" y="731" on="0"/>
        <pt x="614" y="674" on="0"/>
        <pt x="716" y="574" on="0"/>
        <pt x="776" y="438" on="0"/>
        <pt x="776" y="359" on="1"/>
        <pt x="776" y="278" on="0"/>
        <pt x="716" y="141" on="0"/>
        <pt x="614" y="40" on="0"/>
        <pt x="477" y="-17" on="0"/>
        <pt x="401" y="-17" on="1"/>
        <pt x="324" y="-17" on="0"/>
        <pt x="187" y="40" on="0"/>
        <pt x="84" y="141" on="0"/>
        <pt x="24" y="278" on="0"/>
      </contour>
    </TTGlyph>
    <TTGlyph name="currency" xMin="25" yMin="97" xMax="531" yMax="605">
      <contour>
        <pt x="281" y="524" on="1"/>
        <pt x="245" y="524" on="0"/>
        <pt x="184" y="497" on="0"/>
        <pt x="139" y="450" on="0"/>
        <pt x="113" y="386" on="0"/>
        <pt x="113" y="349" on="1"/>
        <pt x="113" y="313" on="0"/>
        <pt x="139" y="249" on="0"/>
        <pt x="184" y="203" on="0"/>
        <pt x="245" y="176" on="0"/>
        <pt x="280" y="176" on="1"/>
        <pt x="315" y="176" on="0"/>
        <pt x="375" y="204" on="0"/>
        <pt x="418" y="251" on="0"/>
        <pt x="443" y="315" on="0"/>
        <pt x="443" y="351" on="1"/>
        <pt x="443" y="386" on="0"/>
        <pt x="418" y="449" on="0"/>
        <pt x="375" y="496" on="0"/>
        <pt x="315" y="524" on="0"/>
      </contour>
      <contour>
        <pt x="74" y="604" on="1"/>
        <pt x="130" y="548" on="1"/>
        <pt x="159" y="572" on="0"/>
        <pt x="239" y="599" on="0"/>
        <pt x="281" y="599" on="1"/>
        <pt x="321" y="599" on="0"/>
        <pt x="397" y="572" on="0"/>
        <pt x="424" y="549" on="1"/>
        <pt x="481" y="605" on="1"/>
        <pt x="531" y="554" on="1"/>
        <pt x="476" y="499" on="1"/>
        <pt x="502" y="471" on="0"/>
        <pt x="528" y="393" on="0"/>
        <pt x="528" y="351" on="1"/>
        <pt x="528" y="309" on="0"/>
        <pt x="502" y="232" on="0"/>
        <pt x="476" y="201" on="1"/>
        <pt x="531" y="145" on="1"/>
        <pt x="484" y="98" on="1"/>
        <pt x="428" y="156" on="1"/>
        <pt x="399" y="129" on="0"/>
        <pt x="322" y="101" on="0"/>
        <pt x="280" y="101" on="1"/>
        <pt x="236" y="101" on="0"/>
        <pt x="158" y="128" on="0"/>
        <pt x="128" y="155" on="1"/>
        <pt x="73" y="97" on="1"/>
        <pt x="25" y="145" on="1"/>
        <pt x="80" y="203" on="1"/>
        <pt x="55" y="233" on="0"/>
        <pt x="28" y="307" on="0"/>
        <pt x="28" y="349" on="1"/>
        <pt x="28" y="391" on="0"/>
        <pt x="54" y="469" on="0"/>
        <pt x="82" y="497" on="1"/>
        <pt x="25" y="555" on="1"/>
      </contour>
    </TTGlyph>
    <TTGlyph name="d" xMin="36" yMin="-12" xMax="526" yMax="714">
      <contour>
        <pt x="126" y="254" on="1"/>
        <pt x="126" y="218" on="0"/>
        <pt x="145" y="149" on="0"/>
        <pt x="184" y="95" on="0"/>
        <pt x="245" y="63" on="0"/>
        <pt x="286" y="63" on="1"/>
        <pt x="329" y="63" on="0"/>
        <pt x="389" y="97" on="0"/>
        <pt x="427" y="152" on="0"/>
        <pt x="444" y="222" on="0"/>
        <pt x="444" y="258" on="1"/>
        <pt x="444" y="296" on="0"/>
        <pt x="426" y="367" on="0"/>
        <pt x="387" y="421" on="0"/>
        <pt x="325" y="454" on="0"/>
        <pt x="281" y="454" on="1"/>
        <pt x="237" y="454" on="0"/>
        <pt x="178" y="420" on="0"/>
        <pt x="142" y="364" on="0"/>
        <pt x="126" y="292" on="0"/>
      </contour>
      <contour>
        <pt x="526" y="0" on="1"/>
        <pt x="441" y="0" on="1"/>
        <pt x="441" y="70" on="1"/>
        <pt x="439" y="70" on="1"/>
        <pt x="418" y="27" on="0"/>
        <pt x="328" y="-12" on="0"/>
        <pt x="274" y="-12" on="1"/>
        <pt x="214" y="-12" on="0"/>
        <pt x="125" y="32" on="0"/>
        <pt x="66" y="107" on="0"/>
        <pt x="36" y="205" on="0"/>
        <pt x="36" y="260" on="1"/>
        <pt x="36" y="315" on="0"/>
        <pt x="65" y="412" on="0"/>
        <pt x="124" y="486" on="0"/>
        <pt x="213" y="529" on="0"/>
        <pt x="272" y="529" on="1"/>
        <pt x="292" y="529" on="0"/>
        <pt x="338" y="521" on="0"/>
        <pt x="384" y="502" on="0"/>
        <pt x="425" y="471" on="0"/>
        <pt x="439" y="448" on="1"/>
        <pt x="441" y="448" on="1"/>
        <pt x="441" y="714" on="1"/>
        <pt x="526" y="714" on="1"/>
      </contour>
    </TTGlyph>
    <TTGlyph name="dagger" xMin="42" yMin="-155" xMax="514" yMax="714">
      <contour>
        <pt x="236" y="442" on="1"/>
        <pt x="42" y="442" on="1"/>
        <pt x="42" y="517" on="1"/>
        <pt x="236" y="517" on="1"/>
        <pt x="236" y="714" on="1"/>
        <pt x="316" y="714" on="1"/>
        <pt x="316" y="517" on="1"/>
        <pt x="514" y="517" on="1"/>
        <pt x="514" y="442" on="1"/>
        <pt x="316" y="442" on="1"/>
        <pt x="316" y="-155" on="1"/>
        <pt x="236" y="-155" on="1"/>
      </contour>
    </TTGlyph>
    <TTGlyph name="daggerdbl" xMin="42" yMin="-155" xMax="514" yMax="714">
      <contour>
        <pt x="236" y="42" on="1"/>
        <pt x="42" y="42" on="1"/>
        <pt x="42" y="117" on="1"/>
        <pt x="236" y="117" on="1"/>
        <pt x="236" y="442" on="1"/>
        <pt x="42" y="442" on="1"/>
        <pt x="42" y="517" on="1"/>
        <pt x="236" y="517" on="1"/>
        <pt x="236" y="714" on="1"/>
        <pt x="316" y="714" on="1"/>
        <pt x="316" y="517" on="1"/>
        <pt x="514" y="517" on="1"/>
        <pt x="514" y="442" on="1"/>
        <pt x="316" y="442" on="1"/>
        <pt x="316" y="117" on="1"/>
        <pt x="514" y="117" on="1"/>
        <pt x="514" y="42" on="1"/>
        <pt x="316" y="42" on="1"/>
        <pt x="316" y="-155" on="1"/>
        <pt x="236" y="-155" on="1"/>
      </contour>
    </TTGlyph>
    <TTGlyph name="dcaron" xMin="36" yMin="-12" xMax="711" yMax="714">
      <component glyphName="d" x="0" y="0" flags="0x4"/>
      <component glyphName="carontwo" x="496" y="0" flags="0x4"/>
    </TTGlyph>
    <TTGlyph name="dcroat" xMin="36" yMin="-12" xMax="612" yMax="714">
      <contour>
        <pt x="271" y="638" on="1"/>
        <pt x="441" y="638" on="1"/>
        <pt x="441" y="714" on="1"/>
        <pt x="526" y="714" on="1"/>
        <pt x="526" y="638" on="1"/>
        <pt x="612" y="638" on="1"/>
        <pt x="612" y="583" on="1"/>
        <pt x="526" y="583" on="1"/>
        <pt x="526" y="0" on="1"/>
        <pt x="441" y="0" on="1"/>
        <pt x="441" y="70" on="1"/>
        <pt x="439" y="70" on="1"/>
        <pt x="418" y="27" on="0"/>
        <pt x="328" y="-12" on="0"/>
        <pt x="274" y="-12" on="1"/>
        <pt x="214" y="-12" on="0"/>
        <pt x="125" y="32" on="0"/>
        <pt x="66" y="107" on="0"/>
        <pt x="36" y="205" on="0"/>
        <pt x="36" y="260" on="1"/>
        <pt x="36" y="315" on="0"/>
        <pt x="65" y="412" on="0"/>
        <pt x="124" y="486" on="0"/>
        <pt x="213" y="529" on="0"/>
        <pt x="272" y="529" on="1"/>
        <pt x="292" y="529" on="0"/>
        <pt x="338" y="521" on="0"/>
        <pt x="384" y="502" on="0"/>
        <pt x="425" y="471" on="0"/>
        <pt x="439" y="448" on="1"/>
        <pt x="441" y="448" on="1"/>
        <pt x="441" y="583" on="1"/>
        <pt x="271" y="583" on="1"/>
      </contour>
      <contour>
        <pt x="126" y="254" on="1"/>
        <pt x="126" y="218" on="0"/>
        <pt x="145" y="149" on="0"/>
        <pt x="184" y="95" on="0"/>
        <pt x="245" y="63" on="0"/>
        <pt x="286" y="63" on="1"/>
        <pt x="329" y="63" on="0"/>
        <pt x="389" y="97" on="0"/>
        <pt x="427" y="152" on="0"/>
        <pt x="444" y="222" on="0"/>
        <pt x="444" y="258" on="1"/>
        <pt x="444" y="296" on="0"/>
        <pt x="426" y="367" on="0"/>
        <pt x="387" y="421" on="0"/>
        <pt x="325" y="454" on="0"/>
        <pt x="281" y="454" on="1"/>
        <pt x="237" y="454" on="0"/>
        <pt x="178" y="420" on="0"/>
        <pt x="142" y="364" on="0"/>
        <pt x="126" y="292" on="0"/>
      </contour>
    </TTGlyph>
    <TTGlyph name="degree" xMin="56" yMin="421" xMax="344" yMax="709">
      <contour>
        <pt x="106" y="565" on="1"/>
        <pt x="106" y="547" on="0"/>
        <pt x="119" y="514" on="0"/>
        <pt x="143" y="487" on="0"/>
        <pt x="178" y="471" on="0"/>
        <pt x="200" y="471" on="1"/>
        <pt x="222" y="471" on="0"/>
        <pt x="257" y="487" on="0"/>
        <pt x="281" y="514" on="0"/>
        <pt x="294" y="547" on="0"/>
        <pt x="294" y="565" on="1"/>
        <pt x="294" y="583" on="0"/>
        <pt x="281" y="616" on="0"/>
        <pt x="257" y="643" on="0"/>
        <pt x="222" y="659" on="0"/>
        <pt x="200" y="659" on="1"/>
        <pt x="178" y="659" on="0"/>
        <pt x="143" y="643" on="0"/>
        <pt x="119" y="616" on="0"/>
        <pt x="106" y="583" on="0"/>
      </contour>
      <contour>
        <pt x="56" y="565" on="1"/>
        <pt x="56" y="595" on="0"/>
        <pt x="78" y="647" on="0"/>
        <pt x="117" y="686" on="0"/>
        <pt x="170" y="709" on="0"/>
        <pt x="200" y="709" on="1"/>
        <pt x="230" y="709" on="0"/>
        <pt x="282" y="686" on="0"/>
        <pt x="321" y="647" on="0"/>
        <pt x="344" y="595" on="0"/>
        <pt x="344" y="565" on="1"/>
        <pt x="344" y="535" on="0"/>
        <pt x="321" y="482" on="0"/>
        <pt x="282" y="443" on="0"/>
        <pt x="230" y="421" on="0"/>
        <pt x="200" y="421" on="1"/>
        <pt x="170" y="421" on="0"/>
        <pt x="117" y="443" on="0"/>
        <pt x="78" y="482" on="0"/>
        <pt x="56" y="535" on="0"/>
      </contour>
    </TTGlyph>
    <TTGlyph name="dieresis" xMin="-28" yMin="602" xMax="250" yMax="706">
      <contour>
        <pt x="-28" y="706" on="1"/>
        <pt x="62" y="706" on="1"/>
        <pt x="62" y="602" on="1"/>
        <pt x="-28" y="602" on="1"/>
      </contour>
      <contour>
        <pt x="160" y="706" on="1"/>
        <pt x="250" y="706" on="1"/>
        <pt x="250" y="602" on="1"/>
        <pt x="160" y="602" on="1"/>
      </contour>
    </TTGlyph>
    <TTGlyph name="dieresis.cap" xMin="-28" yMin="793" xMax="250" yMax="897">
      <contour>
        <pt x="-28" y="897" on="1"/>
        <pt x="62" y="897" on="1"/>
        <pt x="62" y="793" on="1"/>
        <pt x="-28" y="793" on="1"/>
      </contour>
      <contour>
        <pt x="160" y="897" on="1"/>
        <pt x="250" y="897" on="1"/>
        <pt x="250" y="793" on="1"/>
        <pt x="160" y="793" on="1"/>
      </contour>
    </TTGlyph>
    <TTGlyph name="divide" xMin="48" yMin="-17" xMax="552" yMax="523">
      <contour>
        <pt x="236" y="47" on="1"/>
        <pt x="236" y="73" on="0"/>
        <pt x="274" y="111" on="0"/>
        <pt x="300" y="111" on="1"/>
        <pt x="326" y="111" on="0"/>
        <pt x="364" y="73" on="0"/>
        <pt x="364" y="47" on="1"/>
        <pt x="364" y="23" on="0"/>
        <pt x="326" y="-17" on="0"/>
        <pt x="301" y="-17" on="1"/>
        <pt x="275" y="-17" on="0"/>
        <pt x="236" y="21" on="0"/>
      </contour>
      <contour>
        <pt x="236" y="459" on="1"/>
        <pt x="236" y="485" on="0"/>
        <pt x="274" y="523" on="0"/>
        <pt x="300" y="523" on="1"/>
        <pt x="326" y="523" on="0"/>
        <pt x="364" y="485" on="0"/>
        <pt x="364" y="459" on="1"/>
        <pt x="364" y="435" on="0"/>
        <pt x="326" y="395" on="0"/>
        <pt x="301" y="395" on="1"/>
        <pt x="275" y="395" on="0"/>
        <pt x="236" y="433" on="0"/>
      </contour>
      <contour>
        <pt x="48" y="287" on="1"/>
        <pt x="552" y="287" on="1"/>
        <pt x="552" y="219" on="1"/>
        <pt x="48" y="219" on="1"/>
      </contour>
    </TTGlyph>
    <TTGlyph name="dollar" xMin="25" yMin="-99" xMax="525" yMax="797">
      <contour>
        <pt x="110" y="218" on="1"/>
        <pt x="112" y="151" on="0"/>
        <pt x="191" y="73" on="0"/>
        <pt x="251" y="63" on="1"/>
        <pt x="251" y="328" on="1"/>
        <pt x="198" y="341" on="0"/>
        <pt x="121" y="371" on="0"/>
        <pt x="70" y="415" on="0"/>
        <pt x="46" y="477" on="0"/>
        <pt x="46" y="521" on="1"/>
        <pt x="46" y="566" on="0"/>
        <pt x="78" y="641" on="0"/>
        <pt x="133" y="696" on="0"/>
        <pt x="208" y="728" on="0"/>
        <pt x="251" y="731" on="1"/>
        <pt x="251" y="797" on="1"/>
        <pt x="306" y="797" on="1"/>
        <pt x="306" y="730" on="1"/>
        <pt x="387" y="720" on="0"/>
        <pt x="483" y="619" on="0"/>
        <pt x="503" y="532" on="1"/>
        <pt x="418" y="532" on="1"/>
        <pt x="398" y="631" on="0"/>
        <pt x="306" y="648" on="1"/>
        <pt x="306" y="402" on="1"/>
        <pt x="366" y="386" on="1"/>
        <pt x="385" y="381" on="0"/>
        <pt x="440" y="356" on="0"/>
        <pt x="490" y="312" on="0"/>
        <pt x="525" y="246" on="0"/>
        <pt x="525" y="200" on="1"/>
        <pt x="525" y="152" on="0"/>
        <pt x="492" y="75" on="0"/>
        <pt x="434" y="19" on="0"/>
        <pt x="354" y="-13" on="0"/>
        <pt x="306" y="-17" on="1"/>
        <pt x="306" y="-99" on="1"/>
        <pt x="251" y="-99" on="1"/>
        <pt x="251" y="-17" on="1"/>
        <pt x="152" y="-7" on="0"/>
        <pt x="33" y="114" on="0"/>
        <pt x="25" y="218" on="1"/>
      </contour>
      <contour>
        <pt x="306" y="63" on="1"/>
        <pt x="334" y="65" on="0"/>
        <pt x="381" y="82" on="0"/>
        <pt x="416" y="112" on="0"/>
        <pt x="435" y="159" on="0"/>
        <pt x="435" y="191" on="1"/>
        <pt x="435" y="219" on="0"/>
        <pt x="415" y="259" on="0"/>
        <pt x="381" y="287" on="0"/>
        <pt x="333" y="306" on="0"/>
        <pt x="306" y="314" on="1"/>
      </contour>
      <contour>
        <pt x="251" y="651" on="1"/>
        <pt x="203" y="646" on="0"/>
        <pt x="136" y="587" on="0"/>
        <pt x="136" y="530" on="1"/>
        <pt x="136" y="503" on="0"/>
        <pt x="153" y="467" on="0"/>
        <pt x="184" y="442" on="0"/>
        <pt x="226" y="424" on="0"/>
        <pt x="251" y="417" on="1"/>
      </contour>
    </TTGlyph>
    <TTGlyph name="dotaccent" xMin="66" yMin="604" xMax="156" yMax="708">
      <contour>
        <pt x="156" y="604" on="1"/>
        <pt x="66" y="604" on="1"/>
        <pt x="66" y="708" on="1"/>
        <pt x="156" y="708" on="1"/>
      </contour>
    </TTGlyph>
    <TTGlyph name="dotaccent.cap" xMin="66" yMin="793" xMax="156" yMax="897">
      <contour>
        <pt x="156" y="793" on="1"/>
        <pt x="66" y="793" on="1"/>
        <pt x="66" y="897" on="1"/>
        <pt x="156" y="897" on="1"/>
      </contour>
    </TTGlyph>
    <TTGlyph name="dotlessi" xMin="69" yMin="0" xMax="154" yMax="517">
      <contour>
        <pt x="69" y="0" on="1"/>
        <pt x="69" y="517" on="1"/>
        <pt x="154" y="517" on="1"/>
        <pt x="154" y="0" on="1"/>
      </contour>
    </TTGlyph>
    <TTGlyph name="dotlessj" xMin="-14" yMin="-198" xMax="154" yMax="517">
      <contour>
        <pt x="154" y="-66" on="1"/>
        <pt x="154" y="-135" on="0"/>
        <pt x="87" y="-198" on="0"/>
        <pt x="30" y="-198" on="1"/>
        <pt x="19" y="-198" on="0"/>
        <pt x="-3" y="-196" on="0"/>
        <pt x="-14" y="-194" on="1"/>
        <pt x="-14" y="-121" on="1"/>
        <pt x="-5" y="-123" on="0"/>
        <pt x="3" y="-123" on="1"/>
        <pt x="12" y="-123" on="0"/>
        <pt x="21" y="-123" on="1"/>
        <pt x="49" y="-123" on="0"/>
        <pt x="69" y="-92" on="0"/>
        <pt x="69" y="-52" on="1"/>
        <pt x="69" y="517" on="1"/>
        <pt x="154" y="517" on="1"/>
      </contour>
    </TTGlyph>
    <TTGlyph name="e" xMin="36" yMin="-12" xMax="515" yMax="529">
      <contour>
        <pt x="423" y="308" on="1"/>
        <pt x="421" y="338" on="0"/>
        <pt x="398" y="392" on="0"/>
        <pt x="359" y="431" on="0"/>
        <pt x="305" y="454" on="0"/>
        <pt x="274" y="454" on="1"/>
        <pt x="241" y="454" on="0"/>
        <pt x="188" y="431" on="0"/>
        <pt x="150" y="391" on="0"/>
        <pt x="128" y="338" on="0"/>
        <pt x="126" y="308" on="1"/>
      </contour>
      <contour>
        <pt x="505" y="164" on="1"/>
        <pt x="488" y="78" on="0"/>
        <pt x="372" y="-12" on="0"/>
        <pt x="284" y="-12" on="1"/>
        <pt x="222" y="-12" on="0"/>
        <pt x="131" y="29" on="0"/>
        <pt x="69" y="101" on="0"/>
        <pt x="38" y="201" on="0"/>
        <pt x="36" y="260" on="1"/>
        <pt x="36" y="318" on="0"/>
        <pt x="72" y="417" on="0"/>
        <pt x="137" y="489" on="0"/>
        <pt x="226" y="529" on="0"/>
        <pt x="279" y="529" on="1"/>
        <pt x="348" y="529" on="0"/>
        <pt x="439" y="472" on="0"/>
        <pt x="494" y="384" on="0"/>
        <pt x="515" y="280" on="0"/>
        <pt x="513" y="233" on="1"/>
        <pt x="126" y="233" on="1"/>
        <pt x="125" y="199" on="0"/>
        <pt x="143" y="138" on="0"/>
        <pt x="183" y="91" on="0"/>
        <pt x="245" y="63" on="0"/>
        <pt x="287" y="63" on="1"/>
        <pt x="340" y="63" on="0"/>
        <pt x="410" y="113" on="0"/>
        <pt x="421" y="164" on="1"/>
      </contour>
    </TTGlyph>
    <TTGlyph name="eacute" xMin="36" yMin="-12" xMax="515" yMax="732">
      <component glyphName="e" x="0" y="0" flags="0x204"/>
      <component glyphName="acute" x="190" y="0" flags="0x4"/>
    </TTGlyph>
    <TTGlyph name="ebreve" xMin="36" yMin="-12" xMax="515" yMax="729">
      <component glyphName="e" x="0" y="0" flags="0x204"/>
      <component glyphName="breve" x="169" y="0" flags="0x4"/>
    </TTGlyph>
    <TTGlyph name="ecaron" xMin="36" yMin="-12" xMax="515" yMax="732">
      <component glyphName="e" x="0" y="0" flags="0x204"/>
      <component glyphName="caron" x="165" y="0" flags="0x4"/>
    </TTGlyph>
    <TTGlyph name="ecircumflex" xMin="36" yMin="-12" xMax="515" yMax="732">
      <component glyphName="e" x="0" y="0" flags="0x204"/>
      <component glyphName="circumflex" x="170" y="0" flags="0x4"/>
    </TTGlyph>
    <TTGlyph name="edieresis" xMin="36" yMin="-12" xMax="515" yMax="706">
      <component glyphName="e" x="0" y="0" flags="0x204"/>
      <component glyphName="dieresis" x="167" y="0" flags="0x4"/>
    </TTGlyph>
    <TTGlyph name="edotaccent" xMin="36" yMin="-12" xMax="515" yMax="708">
      <component glyphName="e" x="0" y="0" flags="0x204"/>
      <component glyphName="dotaccent" x="169" y="0" flags="0x4"/>
    </TTGlyph>
    <TTGlyph name="egrave" xMin="36" yMin="-12" xMax="515" yMax="732">
      <component glyphName="e" x="0" y="0" flags="0x204"/>
      <component glyphName="grave" x="172" y="0" flags="0x4"/>
    </TTGlyph>
    <TTGlyph name="eight" xMin="40" yMin="-12" xMax="516" yMax="709">
      <contour>
        <pt x="155" y="525" on="1"/>
        <pt x="155" y="496" on="0"/>
        <pt x="175" y="453" on="0"/>
        <pt x="209" y="425" on="0"/>
        <pt x="255" y="411" on="0"/>
        <pt x="281" y="411" on="1"/>
        <pt x="332" y="411" on="0"/>
        <pt x="398" y="471" on="0"/>
        <pt x="398" y="525" on="1"/>
        <pt x="398" y="579" on="0"/>
        <pt x="331" y="634" on="0"/>
        <pt x="279" y="634" on="1"/>
        <pt x="253" y="634" on="0"/>
        <pt x="208" y="620" on="0"/>
        <pt x="175" y="592" on="0"/>
        <pt x="155" y="552" on="0"/>
      </contour>
      <contour>
        <pt x="65" y="528" on="1"/>
        <pt x="65" y="572" on="0"/>
        <pt x="99" y="639" on="0"/>
        <pt x="157" y="685" on="0"/>
        <pt x="232" y="709" on="0"/>
        <pt x="273" y="709" on="1"/>
        <pt x="331" y="709" on="0"/>
        <pt x="413" y="678" on="0"/>
        <pt x="464" y="627" on="0"/>
        <pt x="488" y="562" on="0"/>
        <pt x="488" y="528" on="1"/>
        <pt x="488" y="480" on="0"/>
        <pt x="434" y="401" on="0"/>
        <pt x="390" y="381" on="1"/>
        <pt x="454" y="361" on="0"/>
        <pt x="516" y="270" on="0"/>
        <pt x="516" y="204" on="1"/>
        <pt x="516" y="153" on="0"/>
        <pt x="479" y="72" on="0"/>
        <pt x="416" y="17" on="0"/>
        <pt x="330" y="-12" on="0"/>
        <pt x="281" y="-12" on="1"/>
        <pt x="230" y="-12" on="0"/>
        <pt x="142" y="15" on="0"/>
        <pt x="77" y="69" on="0"/>
        <pt x="40" y="150" on="0"/>
        <pt x="40" y="204" on="1"/>
        <pt x="40" y="267" on="0"/>
        <pt x="104" y="360" on="0"/>
        <pt x="164" y="381" on="1"/>
        <pt x="119" y="399" on="0"/>
        <pt x="65" y="480" on="0"/>
      </contour>
      <contour>
        <pt x="130" y="200" on="1"/>
        <pt x="130" y="136" on="0"/>
        <pt x="215" y="63" on="0"/>
        <pt x="281" y="63" on="1"/>
        <pt x="313" y="63" on="0"/>
        <pt x="366" y="84" on="0"/>
        <pt x="405" y="121" on="0"/>
        <pt x="426" y="171" on="0"/>
        <pt x="426" y="201" on="1"/>
        <pt x="426" y="230" on="0"/>
        <pt x="403" y="279" on="0"/>
        <pt x="363" y="315" on="0"/>
        <pt x="310" y="336" on="0"/>
        <pt x="280" y="336" on="1"/>
        <pt x="248" y="336" on="0"/>
        <pt x="194" y="317" on="0"/>
        <pt x="153" y="281" on="0"/>
        <pt x="130" y="231" on="0"/>
      </contour>
    </TTGlyph>
    <TTGlyph name="ellipsis" xMin="111" yMin="0" xMax="888" yMax="111">
      <contour>
        <pt x="777" y="111" on="1"/>
        <pt x="888" y="111" on="1"/>
        <pt x="888" y="0" on="1"/>
        <pt x="777" y="0" on="1"/>
      </contour>
      <contour>
        <pt x="444" y="111" on="1"/>
        <pt x="555" y="111" on="1"/>
        <pt x="555" y="0" on="1"/>
        <pt x="444" y="0" on="1"/>
      </contour>
      <contour>
        <pt x="111" y="111" on="1"/>
        <pt x="222" y="111" on="1"/>
        <pt x="222" y="0" on="1"/>
        <pt x="111" y="0" on="1"/>
      </contour>
    </TTGlyph>
    <TTGlyph name="emacron" xMin="36" yMin="-12" xMax="515" yMax="682">
      <component glyphName="e" x="0" y="0" flags="0x204"/>
      <component glyphName="macron" x="171" y="0" flags="0x4"/>
    </TTGlyph>
    <TTGlyph name="emdash" xMin="130" yMin="238" xMax="870" yMax="318">
      <contour>
        <pt x="130" y="318" on="1"/>
        <pt x="870" y="318" on="1"/>
        <pt x="870" y="238" on="1"/>
        <pt x="130" y="238" on="1"/>
      </contour>
    </TTGlyph>
    <TTGlyph name="endash" xMin="0" yMin="238" xMax="500" yMax="318">
      <contour>
        <pt x="0" y="318" on="1"/>
        <pt x="500" y="318" on="1"/>
        <pt x="500" y="238" on="1"/>
        <pt x="0" y="238" on="1"/>
      </contour>
    </TTGlyph>
    <TTGlyph name="eogonek" xMin="36" yMin="-210" xMax="515" yMax="529">
      <contour>
        <pt x="505" y="164" on="1"/>
        <pt x="488" y="78" on="0"/>
        <pt x="430" y="33" on="1"/>
        <pt x="382" y="-4" on="0"/>
        <pt x="313" y="-10" on="1"/>
        <pt x="296" y="-26" on="0"/>
        <pt x="284" y="-38" on="1"/>
        <pt x="268" y="-54" on="0"/>
        <pt x="249" y="-83" on="0"/>
        <pt x="242" y="-108" on="0"/>
        <pt x="242" y="-118" on="1"/>
        <pt x="242" y="-134" on="0"/>
        <pt x="260" y="-160" on="0"/>
        <pt x="280" y="-160" on="1"/>
        <pt x="303" y="-160" on="0"/>
        <pt x="331" y="-144" on="0"/>
        <pt x="342" y="-130" on="1"/>
        <pt x="374" y="-148" on="1"/>
        <pt x="354" y="-183" on="0"/>
        <pt x="297" y="-210" on="0"/>
        <pt x="266" y="-210" on="1"/>
        <pt x="257" y="-210" on="0"/>
        <pt x="226" y="-207" on="0"/>
        <pt x="196" y="-191" on="0"/>
        <pt x="174" y="-158" on="0"/>
        <pt x="174" y="-128" on="1"/>
        <pt x="174" y="-121" on="0"/>
        <pt x="181" y="-96" on="0"/>
        <pt x="205" y="-61" on="0"/>
        <pt x="227" y="-40" on="1"/>
        <pt x="243" y="-26" on="0"/>
        <pt x="266" y="-11" on="1"/>
        <pt x="215" y="-9" on="0"/>
        <pt x="176" y="8" on="1"/>
        <pt x="131" y="29" on="0"/>
        <pt x="69" y="101" on="0"/>
        <pt x="38" y="201" on="0"/>
        <pt x="36" y="260" on="1"/>
        <pt x="36" y="318" on="0"/>
        <pt x="72" y="417" on="0"/>
        <pt x="137" y="489" on="0"/>
        <pt x="226" y="529" on="0"/>
        <pt x="279" y="529" on="1"/>
        <pt x="348" y="529" on="0"/>
        <pt x="439" y="472" on="0"/>
        <pt x="494" y="384" on="0"/>
        <pt x="515" y="280" on="0"/>
        <pt x="513" y="233" on="1"/>
        <pt x="126" y="233" on="1"/>
        <pt x="125" y="199" on="0"/>
        <pt x="143" y="138" on="0"/>
        <pt x="183" y="91" on="0"/>
        <pt x="245" y="63" on="0"/>
        <pt x="287" y="63" on="1"/>
        <pt x="340" y="63" on="0"/>
        <pt x="410" y="113" on="0"/>
        <pt x="421" y="164" on="1"/>
      </contour>
      <contour>
        <pt x="423" y="308" on="1"/>
        <pt x="421" y="338" on="0"/>
        <pt x="398" y="392" on="0"/>
        <pt x="359" y="431" on="0"/>
        <pt x="305" y="454" on="0"/>
        <pt x="274" y="454" on="1"/>
        <pt x="241" y="454" on="0"/>
        <pt x="188" y="431" on="0"/>
        <pt x="150" y="391" on="0"/>
        <pt x="128" y="338" on="0"/>
        <pt x="126" y="308" on="1"/>
      </contour>
    </TTGlyph>
    <TTGlyph name="equal" xMin="48" yMin="118" xMax="552" yMax="388">
      <contour>
        <pt x="48" y="186" on="1"/>
        <pt x="552" y="186" on="1"/>
        <pt x="552" y="118" on="1"/>
        <pt x="48" y="118" on="1"/>
      </contour>
      <contour>
        <pt x="552" y="320" on="1"/>
        <pt x="48" y="320" on="1"/>
        <pt x="48" y="388" on="1"/>
        <pt x="552" y="388" on="1"/>
      </contour>
    </TTGlyph>
    <TTGlyph name="estimated" xMin="44" yMin="-17" xMax="561" yMax="535">
      <contour>
        <pt x="157" y="259" on="1"/>
        <pt x="157" y="78" on="1"/>
        <pt x="216" y="19" on="0"/>
        <pt x="302" y="19" on="1"/>
        <pt x="365" y="19" on="0"/>
        <pt x="457" y="76" on="0"/>
        <pt x="495" y="139" on="1"/>
        <pt x="530" y="118" on="1"/>
        <pt x="507" y="82" on="0"/>
        <pt x="460" y="31" on="0"/>
        <pt x="405" y="-2" on="0"/>
        <pt x="341" y="-17" on="0"/>
        <pt x="302" y="-17" on="1"/>
        <pt x="243" y="-17" on="0"/>
        <pt x="148" y="26" on="0"/>
        <pt x="80" y="101" on="0"/>
        <pt x="44" y="201" on="0"/>
        <pt x="44" y="259" on="1"/>
        <pt x="44" y="317" on="0"/>
        <pt x="80" y="418" on="0"/>
        <pt x="148" y="492" on="0"/>
        <pt x="243" y="535" on="0"/>
        <pt x="302" y="535" on="1"/>
        <pt x="360" y="535" on="0"/>
        <pt x="455" y="494" on="0"/>
        <pt x="523" y="421" on="0"/>
        <pt x="561" y="320" on="0"/>
        <pt x="561" y="259" on="1"/>
      </contour>
      <contour>
        <pt x="448" y="295" on="1"/>
        <pt x="448" y="440" on="1"/>
        <pt x="385" y="500" on="0"/>
        <pt x="301" y="500" on="1"/>
        <pt x="217" y="500" on="0"/>
        <pt x="157" y="440" on="1"/>
        <pt x="157" y="295" on="1"/>
      </contour>
    </TTGlyph>
    <TTGlyph name="eth" xMin="36" yMin="-12" xMax="538" yMax="731">
      <contour>
        <pt x="282" y="431" on="1"/>
        <pt x="205" y="431" on="0"/>
        <pt x="126" y="335" on="0"/>
        <pt x="126" y="258" on="1"/>
        <pt x="126" y="211" on="0"/>
        <pt x="151" y="138" on="0"/>
        <pt x="195" y="89" on="0"/>
        <pt x="254" y="63" on="0"/>
        <pt x="287" y="63" on="1"/>
        <pt x="320" y="63" on="0"/>
        <pt x="379" y="89" on="0"/>
        <pt x="423" y="138" on="0"/>
        <pt x="448" y="211" on="0"/>
        <pt x="448" y="258" on="1"/>
        <pt x="448" y="292" on="0"/>
        <pt x="429" y="355" on="0"/>
        <pt x="389" y="403" on="0"/>
        <pt x="326" y="431" on="0"/>
      </contour>
      <contour>
        <pt x="272" y="506" on="1"/>
        <pt x="312" y="506" on="0"/>
        <pt x="384" y="481" on="0"/>
        <pt x="411" y="450" on="1"/>
        <pt x="413" y="450" on="1"/>
        <pt x="401" y="476" on="0"/>
        <pt x="369" y="523" on="0"/>
        <pt x="335" y="563" on="0"/>
        <pt x="303" y="593" on="0"/>
        <pt x="291" y="601" on="1"/>
        <pt x="176" y="547" on="1"/>
        <pt x="138" y="587" on="1"/>
        <pt x="247" y="638" on="1"/>
        <pt x="231" y="652" on="0"/>
        <pt x="191" y="678" on="0"/>
        <pt x="177" y="686" on="1"/>
        <pt x="247" y="731" on="1"/>
        <pt x="261" y="721" on="0"/>
        <pt x="304" y="691" on="0"/>
        <pt x="324" y="675" on="1"/>
        <pt x="444" y="731" on="1"/>
        <pt x="479" y="694" on="1"/>
        <pt x="364" y="641" on="1"/>
        <pt x="454" y="567" on="0"/>
        <pt x="538" y="373" on="0"/>
        <pt x="538" y="258" on="1"/>
        <pt x="538" y="201" on="0"/>
        <pt x="506" y="103" on="0"/>
        <pt x="442" y="30" on="0"/>
        <pt x="348" y="-12" on="0"/>
        <pt x="287" y="-12" on="1"/>
        <pt x="225" y="-12" on="0"/>
        <pt x="132" y="30" on="0"/>
        <pt x="68" y="103" on="0"/>
        <pt x="36" y="201" on="0"/>
        <pt x="36" y="258" on="1"/>
        <pt x="36" y="307" on="0"/>
        <pt x="67" y="396" on="0"/>
        <pt x="127" y="465" on="0"/>
        <pt x="215" y="506" on="0"/>
      </contour>
    </TTGlyph>
    <TTGlyph name="exclam" xMin="74" yMin="0" xMax="185" yMax="714">
      <contour>
        <pt x="74" y="111" on="1"/>
        <pt x="185" y="111" on="1"/>
        <pt x="185" y="0" on="1"/>
        <pt x="74" y="0" on="1"/>
      </contour>
      <contour>
        <pt x="177" y="494" on="1"/>
        <pt x="152" y="183" on="1"/>
        <pt x="107" y="183" on="1"/>
        <pt x="82" y="494" on="1"/>
        <pt x="82" y="714" on="1"/>
        <pt x="177" y="714" on="1"/>
      </contour>
    </TTGlyph>
    <TTGlyph name="exclamdown" xMin="74" yMin="-198" xMax="185" yMax="517">
      <contour>
        <pt x="185" y="406" on="1"/>
        <pt x="74" y="406" on="1"/>
        <pt x="74" y="517" on="1"/>
        <pt x="185" y="517" on="1"/>
      </contour>
      <contour>
        <pt x="82" y="22" on="1"/>
        <pt x="107" y="333" on="1"/>
        <pt x="152" y="333" on="1"/>
        <pt x="177" y="22" on="1"/>
        <pt x="177" y="-198" on="1"/>
        <pt x="82" y="-198" on="1"/>
      </contour>
    </TTGlyph>
    <TTGlyph name="f" xMin="12" yMin="0" xMax="297" yMax="722">
      <contour>
        <pt x="99" y="442" on="1"/>
        <pt x="12" y="442" on="1"/>
        <pt x="12" y="517" on="1"/>
        <pt x="99" y="517" on="1"/>
        <pt x="99" y="594" on="1"/>
        <pt x="99" y="657" on="0"/>
        <pt x="172" y="722" on="0"/>
        <pt x="242" y="722" on="1"/>
        <pt x="254" y="722" on="0"/>
        <pt x="285" y="718" on="0"/>
        <pt x="297" y="714" on="1"/>
        <pt x="297" y="640" on="1"/>
        <pt x="286" y="644" on="0"/>
        <pt x="260" y="647" on="0"/>
        <pt x="249" y="647" on="1"/>
        <pt x="218" y="647" on="0"/>
        <pt x="184" y="623" on="0"/>
        <pt x="184" y="589" on="1"/>
        <pt x="184" y="517" on="1"/>
        <pt x="284" y="517" on="1"/>
        <pt x="284" y="442" on="1"/>
        <pt x="184" y="442" on="1"/>
        <pt x="184" y="0" on="1"/>
        <pt x="99" y="0" on="1"/>
      </contour>
    </TTGlyph>
    <TTGlyph name="fi" xMin="12" yMin="0" xMax="450" yMax="722">
      <contour>
        <pt x="365" y="0" on="1"/>
        <pt x="365" y="517" on="1"/>
        <pt x="450" y="517" on="1"/>
        <pt x="450" y="0" on="1"/>
      </contour>
      <contour>
        <pt x="365" y="610" on="1"/>
        <pt x="365" y="714" on="1"/>
        <pt x="450" y="714" on="1"/>
        <pt x="450" y="610" on="1"/>
      </contour>
      <contour>
        <pt x="99" y="442" on="1"/>
        <pt x="12" y="442" on="1"/>
        <pt x="12" y="517" on="1"/>
        <pt x="99" y="517" on="1"/>
        <pt x="99" y="594" on="1"/>
        <pt x="99" y="657" on="0"/>
        <pt x="172" y="722" on="0"/>
        <pt x="242" y="722" on="1"/>
        <pt x="254" y="722" on="0"/>
        <pt x="285" y="718" on="0"/>
        <pt x="297" y="714" on="1"/>
        <pt x="297" y="640" on="1"/>
        <pt x="286" y="644" on="0"/>
        <pt x="260" y="647" on="0"/>
        <pt x="249" y="647" on="1"/>
        <pt x="218" y="647" on="0"/>
        <pt x="184" y="623" on="0"/>
        <pt x="184" y="589" on="1"/>
        <pt x="184" y="517" on="1"/>
        <pt x="284" y="517" on="1"/>
        <pt x="284" y="442" on="1"/>
        <pt x="184" y="442" on="1"/>
        <pt x="184" y="0" on="1"/>
        <pt x="99" y="0" on="1"/>
      </contour>
    </TTGlyph>
    <TTGlyph name="five" xMin="35" yMin="-12" xMax="509" yMax="697">
      <contour>
        <pt x="470" y="622" on="1"/>
        <pt x="184" y="622" on="1"/>
        <pt x="146" y="418" on="1"/>
        <pt x="148" y="416" on="1"/>
        <pt x="171" y="442" on="0"/>
        <pt x="244" y="467" on="0"/>
        <pt x="280" y="467" on="1"/>
        <pt x="327" y="467" on="0"/>
        <pt x="411" y="437" on="0"/>
        <pt x="473" y="376" on="0"/>
        <pt x="509" y="285" on="0"/>
        <pt x="509" y="224" on="1"/>
        <pt x="509" y="179" on="0"/>
        <pt x="478" y="94" on="0"/>
        <pt x="416" y="28" on="0"/>
        <pt x="323" y="-12" on="0"/>
        <pt x="261" y="-12" on="1"/>
        <pt x="215" y="-12" on="0"/>
        <pt x="134" y="15" on="0"/>
        <pt x="72" y="68" on="0"/>
        <pt x="36" y="143" on="0"/>
        <pt x="35" y="191" on="1"/>
        <pt x="120" y="191" on="1"/>
        <pt x="122" y="164" on="0"/>
        <pt x="145" y="117" on="0"/>
        <pt x="184" y="82" on="0"/>
        <pt x="237" y="63" on="0"/>
        <pt x="269" y="63" on="1"/>
        <pt x="299" y="63" on="0"/>
        <pt x="354" y="84" on="0"/>
        <pt x="395" y="126" on="0"/>
        <pt x="419" y="189" on="0"/>
        <pt x="419" y="231" on="1"/>
        <pt x="419" y="266" on="0"/>
        <pt x="396" y="325" on="0"/>
        <pt x="354" y="368" on="0"/>
        <pt x="295" y="392" on="0"/>
        <pt x="259" y="392" on="1"/>
        <pt x="218" y="392" on="0"/>
        <pt x="152" y="355" on="0"/>
        <pt x="127" y="325" on="1"/>
        <pt x="54" y="329" on="1"/>
        <pt x="120" y="697" on="1"/>
        <pt x="470" y="697" on="1"/>
      </contour>
    </TTGlyph>
    <TTGlyph name="fl" xMin="12" yMin="0" xMax="450" yMax="722">
      <contour>
        <pt x="365" y="714" on="1"/>
        <pt x="450" y="714" on="1"/>
        <pt x="450" y="0" on="1"/>
        <pt x="365" y="0" on="1"/>
      </contour>
      <contour>
        <pt x="99" y="442" on="1"/>
        <pt x="12" y="442" on="1"/>
        <pt x="12" y="517" on="1"/>
        <pt x="99" y="517" on="1"/>
        <pt x="99" y="594" on="1"/>
        <pt x="99" y="657" on="0"/>
        <pt x="172" y="722" on="0"/>
        <pt x="242" y="722" on="1"/>
        <pt x="254" y="722" on="0"/>
        <pt x="285" y="718" on="0"/>
        <pt x="297" y="714" on="1"/>
        <pt x="297" y="640" on="1"/>
        <pt x="286" y="644" on="0"/>
        <pt x="260" y="647" on="0"/>
        <pt x="249" y="647" on="1"/>
        <pt x="218" y="647" on="0"/>
        <pt x="184" y="623" on="0"/>
        <pt x="184" y="589" on="1"/>
        <pt x="184" y="517" on="1"/>
        <pt x="284" y="517" on="1"/>
        <pt x="284" y="442" on="1"/>
        <pt x="184" y="442" on="1"/>
        <pt x="184" y="0" on="1"/>
        <pt x="99" y="0" on="1"/>
      </contour>
    </TTGlyph>
    <TTGlyph name="florin" xMin="3" yMin="-165" xMax="492" yMax="714">
      <contour>
        <pt x="478" y="639" on="1"/>
        <pt x="419" y="639" on="1"/>
        <pt x="392" y="639" on="0"/>
        <pt x="363" y="613" on="0"/>
        <pt x="357" y="587" on="1"/>
        <pt x="326" y="449" on="1"/>
        <pt x="428" y="449" on="1"/>
        <pt x="414" y="381" on="1"/>
        <pt x="314" y="381" on="1"/>
        <pt x="259" y="70" on="1"/>
        <pt x="247" y="2" on="0"/>
        <pt x="216" y="-89" on="0"/>
        <pt x="171" y="-143" on="0"/>
        <pt x="111" y="-165" on="0"/>
        <pt x="69" y="-165" on="1"/>
        <pt x="3" y="-165" on="1"/>
        <pt x="17" y="-90" on="1"/>
        <pt x="56" y="-90" on="0"/>
        <pt x="105" y="-84" on="0"/>
        <pt x="134" y="-63" on="0"/>
        <pt x="150" y="-23" on="0"/>
        <pt x="156" y="12" on="1"/>
        <pt x="226" y="381" on="1"/>
        <pt x="134" y="381" on="1"/>
        <pt x="147" y="449" on="1"/>
        <pt x="238" y="449" on="1"/>
        <pt x="264" y="585" on="1"/>
        <pt x="275" y="642" on="0"/>
        <pt x="354" y="714" on="0"/>
        <pt x="418" y="714" on="1"/>
        <pt x="492" y="714" on="1"/>
      </contour>
    </TTGlyph>
    <TTGlyph name="four" xMin="28" yMin="0" xMax="515" yMax="709">
      <contour>
        <pt x="339" y="241" on="1"/>
        <pt x="339" y="588" on="1"/>
        <pt x="337" y="588" on="1"/>
        <pt x="101" y="241" on="1"/>
      </contour>
      <contour>
        <pt x="419" y="241" on="1"/>
        <pt x="515" y="241" on="1"/>
        <pt x="515" y="166" on="1"/>
        <pt x="419" y="166" on="1"/>
        <pt x="419" y="0" on="1"/>
        <pt x="339" y="0" on="1"/>
        <pt x="339" y="166" on="1"/>
        <pt x="28" y="166" on="1"/>
        <pt x="28" y="248" on="1"/>
        <pt x="351" y="709" on="1"/>
        <pt x="419" y="709" on="1"/>
      </contour>
    </TTGlyph>
    <TTGlyph name="fraction" xMin="-166" yMin="-28" xMax="333" yMax="725">
      <contour>
        <pt x="269" y="725" on="1"/>
        <pt x="333" y="725" on="1"/>
        <pt x="-102" y="-28" on="1"/>
        <pt x="-166" y="-28" on="1"/>
      </contour>
    </TTGlyph>
    <TTGlyph name="g" xMin="36" yMin="-210" xMax="510" yMax="529">
      <contour>
        <pt x="510" y="44" on="1"/>
        <pt x="510" y="-83" on="0"/>
        <pt x="393" y="-210" on="0"/>
        <pt x="270" y="-210" on="1"/>
        <pt x="234" y="-210" on="0"/>
        <pt x="159" y="-194" on="0"/>
        <pt x="98" y="-158" on="0"/>
        <pt x="58" y="-100" on="0"/>
        <pt x="56" y="-58" on="1"/>
        <pt x="141" y="-58" on="1"/>
        <pt x="142" y="-81" on="0"/>
        <pt x="169" y="-113" on="0"/>
        <pt x="208" y="-133" on="0"/>
        <pt x="254" y="-142" on="0"/>
        <pt x="275" y="-142" on="1"/>
        <pt x="317" y="-142" on="0"/>
        <pt x="375" y="-113" on="0"/>
        <pt x="413" y="-62" on="0"/>
        <pt x="430" y="10" on="0"/>
        <pt x="430" y="54" on="1"/>
        <pt x="430" y="88" on="1"/>
        <pt x="428" y="88" on="1"/>
        <pt x="417" y="64" on="0"/>
        <pt x="383" y="29" on="0"/>
        <pt x="340" y="6" on="0"/>
        <pt x="291" y="-6" on="0"/>
        <pt x="267" y="-6" on="1"/>
        <pt x="209" y="-6" on="0"/>
        <pt x="123" y="36" on="0"/>
        <pt x="65" y="108" on="0"/>
        <pt x="36" y="203" on="0"/>
        <pt x="36" y="256" on="1"/>
        <pt x="36" y="302" on="0"/>
        <pt x="60" y="398" on="0"/>
        <pt x="116" y="478" on="0"/>
        <pt x="208" y="529" on="0"/>
        <pt x="275" y="529" on="1"/>
        <pt x="324" y="529" on="0"/>
        <pt x="406" y="486" on="0"/>
        <pt x="429" y="443" on="1"/>
        <pt x="430" y="443" on="1"/>
        <pt x="430" y="517" on="1"/>
        <pt x="510" y="517" on="1"/>
      </contour>
      <contour>
        <pt x="272" y="69" on="1"/>
        <pt x="314" y="69" on="0"/>
        <pt x="373" y="104" on="0"/>
        <pt x="409" y="161" on="0"/>
        <pt x="426" y="233" on="0"/>
        <pt x="426" y="269" on="1"/>
        <pt x="426" y="303" on="0"/>
        <pt x="410" y="369" on="0"/>
        <pt x="375" y="422" on="0"/>
        <pt x="319" y="454" on="0"/>
        <pt x="279" y="454" on="1"/>
        <pt x="238" y="454" on="0"/>
        <pt x="180" y="423" on="0"/>
        <pt x="143" y="371" on="0"/>
        <pt x="126" y="303" on="0"/>
        <pt x="126" y="266" on="1"/>
        <pt x="126" y="231" on="0"/>
        <pt x="140" y="161" on="0"/>
        <pt x="174" y="104" on="0"/>
        <pt x="230" y="69" on="0"/>
      </contour>
    </TTGlyph>
    <TTGlyph name="gbreve" xMin="36" yMin="-210" xMax="510" yMax="729">
      <component glyphName="g" x="0" y="0" flags="0x204"/>
      <component glyphName="breve" x="175" y="0" flags="0x4"/>
    </TTGlyph>
    <TTGlyph name="gcircumflex" xMin="36" yMin="-210" xMax="510" yMax="732">
      <component glyphName="g" x="0" y="0" flags="0x204"/>
      <component glyphName="circumflex" x="186" y="0" flags="0x4"/>
    </TTGlyph>
    <TTGlyph name="gcommaaccent" xMin="36" yMin="-210" xMax="510" yMax="786">
      <component glyphName="g" x="0" y="0" flags="0x204"/>
      <component glyphName="commaaccenttwo" x="147" y="0" flags="0x4"/>
    </TTGlyph>
    <TTGlyph name="gdotaccent" xMin="36" yMin="-210" xMax="510" yMax="708">
      <component glyphName="g" x="0" y="0" flags="0x204"/>
      <component glyphName="dotaccent" x="176" y="0" flags="0x4"/>
    </TTGlyph>
    <TTGlyph name="germandbls" xMin="64" yMin="-12" xMax="501" yMax="731">
      <contour>
        <pt x="64" y="531" on="1"/>
        <pt x="64" y="576" on="0"/>
        <pt x="92" y="649" on="0"/>
        <pt x="144" y="702" on="0"/>
        <pt x="217" y="731" on="0"/>
        <pt x="262" y="731" on="1"/>
        <pt x="299" y="731" on="0"/>
        <pt x="373" y="709" on="0"/>
        <pt x="432" y="665" on="0"/>
        <pt x="469" y="599" on="0"/>
        <pt x="469" y="556" on="1"/>
        <pt x="469" y="500" on="0"/>
        <pt x="421" y="419" on="0"/>
        <pt x="365" y="401" on="1"/>
        <pt x="365" y="399" on="1"/>
        <pt x="399" y="395" on="0"/>
        <pt x="450" y="362" on="0"/>
        <pt x="484" y="314" on="0"/>
        <pt x="501" y="253" on="0"/>
        <pt x="501" y="220" on="1"/>
        <pt x="501" y="169" on="0"/>
        <pt x="467" y="83" on="0"/>
        <pt x="406" y="22" on="0"/>
        <pt x="321" y="-12" on="0"/>
        <pt x="270" y="-12" on="1"/>
        <pt x="259" y="-12" on="0"/>
        <pt x="238" y="-10" on="0"/>
        <pt x="227" y="-8" on="1"/>
        <pt x="227" y="66" on="1"/>
        <pt x="235" y="64" on="0"/>
        <pt x="253" y="63" on="0"/>
        <pt x="261" y="63" on="1"/>
        <pt x="330" y="63" on="0"/>
        <pt x="411" y="144" on="0"/>
        <pt x="411" y="209" on="1"/>
        <pt x="411" y="258" on="0"/>
        <pt x="385" y="317" on="0"/>
        <pt x="337" y="349" on="0"/>
        <pt x="269" y="359" on="0"/>
        <pt x="227" y="359" on="1"/>
        <pt x="227" y="427" on="1"/>
        <pt x="257" y="425" on="0"/>
        <pt x="312" y="435" on="0"/>
        <pt x="354" y="462" on="0"/>
        <pt x="379" y="508" on="0"/>
        <pt x="379" y="543" on="1"/>
        <pt x="379" y="567" on="0"/>
        <pt x="362" y="608" on="0"/>
        <pt x="332" y="638" on="0"/>
        <pt x="292" y="656" on="0"/>
        <pt x="268" y="656" on="1"/>
        <pt x="242" y="656" on="0"/>
        <pt x="198" y="643" on="0"/>
        <pt x="166" y="612" on="0"/>
        <pt x="149" y="558" on="0"/>
        <pt x="149" y="516" on="1"/>
        <pt x="149" y="0" on="1"/>
        <pt x="64" y="0" on="1"/>
      </contour>
    </TTGlyph>
    <TTGlyph name="grave" xMin="-23" yMin="589" xMax="172" yMax="732">
      <contour>
        <pt x="-23" y="732" on="1"/>
        <pt x="86" y="732" on="1"/>
        <pt x="172" y="589" on="1"/>
        <pt x="108" y="589" on="1"/>
      </contour>
    </TTGlyph>
    <TTGlyph name="grave.cap" xMin="-23" yMin="779" xMax="172" yMax="922">
      <contour>
        <pt x="-23" y="922" on="1"/>
        <pt x="86" y="922" on="1"/>
        <pt x="172" y="779" on="1"/>
        <pt x="108" y="779" on="1"/>
      </contour>
    </TTGlyph>
    <TTGlyph name="greater" xMin="46" yMin="-8" xMax="554" yMax="514">
      <contour>
        <pt x="46" y="60" on="1"/>
        <pt x="471" y="253" on="1"/>
        <pt x="46" y="446" on="1"/>
        <pt x="46" y="514" on="1"/>
        <pt x="554" y="284" on="1"/>
        <pt x="554" y="222" on="1"/>
        <pt x="46" y="-8" on="1"/>
      </contour>
    </TTGlyph>
    <TTGlyph name="greaterequal" xMin="43" yMin="-30" xMax="550" yMax="528">
      <contour>
        <pt x="43" y="-30" on="1"/>
        <pt x="43" y="42" on="1"/>
        <pt x="550" y="42" on="1"/>
        <pt x="550" y="-30" on="1"/>
      </contour>
      <contour>
        <pt x="43" y="82" on="1"/>
        <pt x="43" y="159" on="1"/>
        <pt x="451" y="304" on="1"/>
        <pt x="43" y="450" on="1"/>
        <pt x="43" y="528" on="1"/>
        <pt x="550" y="341" on="1"/>
        <pt x="550" y="266" on="1"/>
      </contour>
    </TTGlyph>
    <TTGlyph name="guillemotleft" xMin="50" yMin="114" xMax="398" yMax="442">
      <contour>
        <pt x="50" y="234" on="1"/>
        <pt x="50" y="322" on="1"/>
        <pt x="202" y="442" on="1"/>
        <pt x="202" y="356" on="1"/>
        <pt x="102" y="278" on="1"/>
        <pt x="202" y="200" on="1"/>
        <pt x="202" y="114" on="1"/>
      </contour>
      <contour>
        <pt x="246" y="234" on="1"/>
        <pt x="246" y="322" on="1"/>
        <pt x="398" y="442" on="1"/>
        <pt x="398" y="356" on="1"/>
        <pt x="298" y="278" on="1"/>
        <pt x="398" y="200" on="1"/>
        <pt x="398" y="114" on="1"/>
      </contour>
    </TTGlyph>
    <TTGlyph name="guillemotright" xMin="65" yMin="114" xMax="413" yMax="442">
      <contour>
        <pt x="413" y="322" on="1"/>
        <pt x="413" y="234" on="1"/>
        <pt x="261" y="114" on="1"/>
        <pt x="261" y="200" on="1"/>
        <pt x="361" y="278" on="1"/>
        <pt x="261" y="356" on="1"/>
        <pt x="261" y="442" on="1"/>
      </contour>
      <contour>
        <pt x="217" y="322" on="1"/>
        <pt x="217" y="234" on="1"/>
        <pt x="65" y="114" on="1"/>
        <pt x="65" y="200" on="1"/>
        <pt x="165" y="278" on="1"/>
        <pt x="65" y="356" on="1"/>
        <pt x="65" y="442" on="1"/>
      </contour>
    </TTGlyph>
    <TTGlyph name="guilsinglleft" xMin="50" yMin="114" xMax="202" yMax="442">
      <contour>
        <pt x="50" y="234" on="1"/>
        <pt x="50" y="322" on="1"/>
        <pt x="202" y="442" on="1"/>
        <pt x="202" y="356" on="1"/>
        <pt x="102" y="278" on="1"/>
        <pt x="202" y="200" on="1"/>
        <pt x="202" y="114" on="1"/>
      </contour>
    </TTGlyph>
    <TTGlyph name="guilsinglright" xMin="57" yMin="114" xMax="209" yMax="442">
      <contour>
        <pt x="209" y="322" on="1"/>
        <pt x="209" y="234" on="1"/>
        <pt x="57" y="114" on="1"/>
        <pt x="57" y="200" on="1"/>
        <pt x="157" y="278" on="1"/>
        <pt x="57" y="356" on="1"/>
        <pt x="57" y="442" on="1"/>
      </contour>
    </TTGlyph>
    <TTGlyph name="h" xMin="64" yMin="0" xMax="492" yMax="714">
      <contour>
        <pt x="64" y="714" on="1"/>
        <pt x="149" y="714" on="1"/>
        <pt x="149" y="441" on="1"/>
        <pt x="151" y="441" on="1"/>
        <pt x="161" y="464" on="0"/>
        <pt x="198" y="498" on="0"/>
        <pt x="242" y="519" on="0"/>
        <pt x="291" y="529" on="0"/>
        <pt x="314" y="529" on="1"/>
        <pt x="365" y="529" on="0"/>
        <pt x="433" y="501" on="0"/>
        <pt x="475" y="451" on="0"/>
        <pt x="492" y="382" on="0"/>
        <pt x="492" y="340" on="1"/>
        <pt x="492" y="0" on="1"/>
        <pt x="407" y="0" on="1"/>
        <pt x="407" y="350" on="1"/>
        <pt x="407" y="398" on="0"/>
        <pt x="351" y="454" on="0"/>
        <pt x="302" y="454" on="1"/>
        <pt x="263" y="454" on="0"/>
        <pt x="206" y="430" on="0"/>
        <pt x="168" y="386" on="0"/>
        <pt x="149" y="327" on="0"/>
        <pt x="149" y="292" on="1"/>
        <pt x="149" y="0" on="1"/>
        <pt x="64" y="0" on="1"/>
      </contour>
    </TTGlyph>
    <TTGlyph name="hbar" xMin="-10" yMin="0" xMax="502" yMax="714">
      <contour>
        <pt x="-10" y="638" on="1"/>
        <pt x="74" y="638" on="1"/>
        <pt x="74" y="714" on="1"/>
        <pt x="159" y="714" on="1"/>
        <pt x="159" y="638" on="1"/>
        <pt x="301" y="638" on="1"/>
        <pt x="301" y="583" on="1"/>
        <pt x="159" y="583" on="1"/>
        <pt x="159" y="441" on="1"/>
        <pt x="161" y="441" on="1"/>
        <pt x="171" y="464" on="0"/>
        <pt x="208" y="498" on="0"/>
        <pt x="252" y="519" on="0"/>
        <pt x="301" y="529" on="0"/>
        <pt x="324" y="529" on="1"/>
        <pt x="375" y="529" on="0"/>
        <pt x="443" y="501" on="0"/>
        <pt x="485" y="451" on="0"/>
        <pt x="502" y="382" on="0"/>
        <pt x="502" y="340" on="1"/>
        <pt x="502" y="0" on="1"/>
        <pt x="417" y="0" on="1"/>
        <pt x="417" y="350" on="1"/>
        <pt x="417" y="398" on="0"/>
        <pt x="361" y="454" on="0"/>
        <pt x="312" y="454" on="1"/>
        <pt x="273" y="454" on="0"/>
        <pt x="216" y="430" on="0"/>
        <pt x="178" y="386" on="0"/>
        <pt x="159" y="327" on="0"/>
        <pt x="159" y="292" on="1"/>
        <pt x="159" y="0" on="1"/>
        <pt x="74" y="0" on="1"/>
        <pt x="74" y="583" on="1"/>
        <pt x="-10" y="583" on="1"/>
      </contour>
    </TTGlyph>
    <TTGlyph name="hcircumflex" xMin="64" yMin="0" xMax="492" yMax="922">
      <component glyphName="h" x="0" y="0" flags="0x204"/>
      <component glyphName="circumflex" x="167" y="190" flags="0x4"/>
    </TTGlyph>
    <TTGlyph name="hungarumlaut" xMin="-48" yMin="589" xMax="294" yMax="732">
      <contour>
        <pt x="189" y="732" on="1"/>
        <pt x="294" y="732" on="1"/>
        <pt x="174" y="589" on="1"/>
        <pt x="108" y="589" on="1"/>
      </contour>
      <contour>
        <pt x="33" y="732" on="1"/>
        <pt x="138" y="732" on="1"/>
        <pt x="18" y="589" on="1"/>
        <pt x="-48" y="589" on="1"/>
      </contour>
    </TTGlyph>
    <TTGlyph name="hungarumlaut.cap" xMin="-48" yMin="779" xMax="294" yMax="922">
      <contour>
        <pt x="189" y="922" on="1"/>
        <pt x="294" y="922" on="1"/>
        <pt x="174" y="779" on="1"/>
        <pt x="108" y="779" on="1"/>
      </contour>
      <contour>
        <pt x="33" y="922" on="1"/>
        <pt x="138" y="922" on="1"/>
        <pt x="18" y="779" on="1"/>
        <pt x="-48" y="779" on="1"/>
      </contour>
    </TTGlyph>
    <TTGlyph name="hyphen" xMin="50" yMin="238" xMax="339" yMax="318">
      <contour>
        <pt x="50" y="318" on="1"/>
        <pt x="339" y="318" on="1"/>
        <pt x="339" y="238" on="1"/>
        <pt x="50" y="238" on="1"/>
      </contour>
    </TTGlyph>
    <TTGlyph name="i" xMin="69" yMin="0" xMax="154" yMax="714">
      <contour>
        <pt x="154" y="610" on="1"/>
        <pt x="69" y="610" on="1"/>
        <pt x="69" y="714" on="1"/>
        <pt x="154" y="714" on="1"/>
      </contour>
      <contour>
        <pt x="69" y="517" on="1"/>
        <pt x="154" y="517" on="1"/>
        <pt x="154" y="0" on="1"/>
        <pt x="69" y="0" on="1"/>
      </contour>
    </TTGlyph>
    <TTGlyph name="iacute" xMin="67" yMin="0" xMax="262" yMax="732">
      <component glyphName="dotlessi" x="0" y="0" flags="0x204"/>
      <component glyphName="acute" x="17" y="0" flags="0x4"/>
    </TTGlyph>
    <TTGlyph name="icircumflex" xMin="-37" yMin="0" xMax="263" yMax="732">
      <component glyphName="dotlessi" x="0" y="0" flags="0x204"/>
      <component glyphName="circumflex" x="2" y="0" flags="0x4"/>
    </TTGlyph>
    <TTGlyph name="idieresis" xMin="-27" yMin="0" xMax="251" yMax="706">
      <component glyphName="dieresis" x="1" y="0" flags="0x204"/>
      <component glyphName="dotlessi" x="0" y="0" flags="0x4"/>
    </TTGlyph>
    <TTGlyph name="igrave" xMin="-39" yMin="0" xMax="156" yMax="732">
      <component glyphName="dotlessi" x="0" y="0" flags="0x204"/>
      <component glyphName="grave" x="-16" y="0" flags="0x4"/>
    </TTGlyph>
    <TTGlyph name="ij" xMin="69" yMin="-198" xMax="362" yMax="714">
      <component glyphName="i" x="0" y="0" flags="0x4"/>
      <component glyphName="j" x="208" y="0" flags="0x4"/>
    </TTGlyph>
    <TTGlyph name="imacron" xMin="-58" yMin="0" xMax="283" yMax="682">
      <component glyphName="dotlessi" x="0" y="0" flags="0x204"/>
      <component glyphName="macron" x="1" y="0" flags="0x4"/>
    </TTGlyph>
    <TTGlyph name="infinity" xMin="42" yMin="98" xMax="717" yMax="410">
      <contour>
        <pt x="337" y="251" on="1"/>
        <pt x="323" y="264" on="0"/>
        <pt x="288" y="295" on="0"/>
        <pt x="249" y="322" on="0"/>
        <pt x="207" y="341" on="0"/>
        <pt x="187" y="341" on="1"/>
        <pt x="149" y="341" on="0"/>
        <pt x="107" y="287" on="0"/>
        <pt x="107" y="252" on="1"/>
        <pt x="107" y="214" on="0"/>
        <pt x="151" y="166" on="0"/>
        <pt x="190" y="166" on="1"/>
        <pt x="210" y="166" on="0"/>
        <pt x="251" y="182" on="0"/>
        <pt x="289" y="208" on="0"/>
        <pt x="323" y="237" on="0"/>
      </contour>
      <contour>
        <pt x="652" y="252" on="1"/>
        <pt x="652" y="290" on="0"/>
        <pt x="610" y="342" on="0"/>
        <pt x="570" y="342" on="1"/>
        <pt x="549" y="342" on="0"/>
        <pt x="509" y="324" on="0"/>
        <pt x="471" y="296" on="0"/>
        <pt x="437" y="264" on="0"/>
        <pt x="423" y="251" on="1"/>
        <pt x="439" y="236" on="0"/>
        <pt x="472" y="206" on="0"/>
        <pt x="509" y="182" on="0"/>
        <pt x="550" y="166" on="0"/>
        <pt x="573" y="166" on="1"/>
        <pt x="611" y="166" on="0"/>
        <pt x="652" y="216" on="0"/>
      </contour>
      <contour>
        <pt x="717" y="255" on="1"/>
        <pt x="717" y="222" on="0"/>
        <pt x="697" y="165" on="0"/>
        <pt x="659" y="122" on="0"/>
        <pt x="604" y="98" on="0"/>
        <pt x="570" y="98" on="1"/>
        <pt x="541" y="98" on="0"/>
        <pt x="489" y="117" on="0"/>
        <pt x="442" y="149" on="0"/>
        <pt x="399" y="187" on="0"/>
        <pt x="380" y="207" on="1"/>
        <pt x="359" y="188" on="0"/>
        <pt x="317" y="149" on="0"/>
        <pt x="271" y="118" on="0"/>
        <pt x="219" y="99" on="0"/>
        <pt x="189" y="99" on="1"/>
        <pt x="156" y="99" on="0"/>
        <pt x="101" y="122" on="0"/>
        <pt x="63" y="163" on="0"/>
        <pt x="42" y="219" on="0"/>
        <pt x="42" y="252" on="1"/>
        <pt x="42" y="284" on="0"/>
        <pt x="62" y="341" on="0"/>
        <pt x="99" y="383" on="0"/>
        <pt x="153" y="408" on="0"/>
        <pt x="187" y="408" on="1"/>
        <pt x="217" y="408" on="0"/>
        <pt x="270" y="388" on="0"/>
        <pt x="318" y="355" on="0"/>
        <pt x="360" y="314" on="0"/>
        <pt x="380" y="294" on="1"/>
        <pt x="400" y="314" on="0"/>
        <pt x="441" y="355" on="0"/>
        <pt x="487" y="389" on="0"/>
        <pt x="539" y="410" on="0"/>
        <pt x="569" y="410" on="1"/>
        <pt x="603" y="410" on="0"/>
        <pt x="657" y="386" on="0"/>
        <pt x="696" y="344" on="0"/>
        <pt x="717" y="288" on="0"/>
      </contour>
    </TTGlyph>
    <TTGlyph name="integral" xMin="98" yMin="-213" xMax="420" yMax="786">
      <contour>
        <pt x="420" y="730" on="1"/>
        <pt x="420" y="712" on="0"/>
        <pt x="395" y="692" on="0"/>
        <pt x="378" y="692" on="1"/>
        <pt x="366" y="692" on="0"/>
        <pt x="350" y="705" on="0"/>
        <pt x="338" y="722" on="0"/>
        <pt x="328" y="735" on="0"/>
        <pt x="322" y="735" on="1"/>
        <pt x="307" y="735" on="0"/>
        <pt x="293" y="695" on="0"/>
        <pt x="290" y="645" on="0"/>
        <pt x="292" y="600" on="0"/>
        <pt x="292" y="594" on="1"/>
        <pt x="293" y="555" on="1"/>
        <pt x="293" y="44" on="1"/>
        <pt x="293" y="9" on="0"/>
        <pt x="291" y="-79" on="0"/>
        <pt x="268" y="-159" on="0"/>
        <pt x="216" y="-213" on="0"/>
        <pt x="167" y="-213" on="1"/>
        <pt x="156" y="-213" on="0"/>
        <pt x="131" y="-207" on="0"/>
        <pt x="111" y="-194" on="0"/>
        <pt x="98" y="-175" on="0"/>
        <pt x="98" y="-161" on="1"/>
        <pt x="98" y="-147" on="0"/>
        <pt x="121" y="-125" on="0"/>
        <pt x="135" y="-125" on="1"/>
        <pt x="147" y="-125" on="0"/>
        <pt x="162" y="-138" on="0"/>
        <pt x="173" y="-154" on="0"/>
        <pt x="182" y="-167" on="0"/>
        <pt x="187" y="-167" on="1"/>
        <pt x="200" y="-167" on="0"/>
        <pt x="213" y="-123" on="0"/>
        <pt x="216" y="-69" on="0"/>
        <pt x="215" y="-21" on="0"/>
        <pt x="215" y="-16" on="1"/>
        <pt x="215" y="6" on="1"/>
        <pt x="215" y="501" on="1"/>
        <pt x="215" y="525" on="0"/>
        <pt x="213" y="586" on="0"/>
        <pt x="217" y="649" on="0"/>
        <pt x="229" y="710" on="0"/>
        <pt x="257" y="757" on="0"/>
        <pt x="304" y="786" on="0"/>
        <pt x="341" y="786" on="1"/>
        <pt x="354" y="786" on="0"/>
        <pt x="382" y="780" on="0"/>
        <pt x="405" y="767" on="0"/>
        <pt x="420" y="745" on="0"/>
      </contour>
    </TTGlyph>
    <TTGlyph name="iogonek" xMin="17" yMin="-210" xMax="197" yMax="714">
      <contour>
        <pt x="154" y="0" on="1"/>
        <pt x="131" y="-22" on="0"/>
        <pt x="102" y="-54" on="0"/>
        <pt x="85" y="-83" on="0"/>
        <pt x="79" y="-108" on="0"/>
        <pt x="79" y="-118" on="1"/>
        <pt x="79" y="-134" on="0"/>
        <pt x="95" y="-160" on="0"/>
        <pt x="113" y="-160" on="1"/>
        <pt x="133" y="-160" on="0"/>
        <pt x="159" y="-144" on="0"/>
        <pt x="169" y="-130" on="1"/>
        <pt x="197" y="-148" on="1"/>
        <pt x="179" y="-183" on="0"/>
        <pt x="128" y="-210" on="0"/>
        <pt x="100" y="-210" on="1"/>
        <pt x="92" y="-210" on="0"/>
        <pt x="64" y="-207" on="0"/>
        <pt x="37" y="-191" on="0"/>
        <pt x="17" y="-158" on="0"/>
        <pt x="17" y="-128" on="1"/>
        <pt x="17" y="-121" on="0"/>
        <pt x="24" y="-96" on="0"/>
        <pt x="45" y="-61" on="0"/>
        <pt x="86" y="-20" on="0"/>
        <pt x="118" y="0" on="1"/>
        <pt x="69" y="0" on="1"/>
        <pt x="69" y="517" on="1"/>
        <pt x="154" y="517" on="1"/>
      </contour>
      <contour>
        <pt x="154" y="610" on="1"/>
        <pt x="69" y="610" on="1"/>
        <pt x="69" y="714" on="1"/>
        <pt x="154" y="714" on="1"/>
      </contour>
    </TTGlyph>
    <TTGlyph name="itilde" xMin="-58" yMin="0" xMax="285" yMax="717">
      <component glyphName="dotlessi" x="0" y="0" flags="0x204"/>
      <component glyphName="tilde" x="0" y="0" flags="0x4"/>
    </TTGlyph>
    <TTGlyph name="j" xMin="-14" yMin="-198" xMax="154" yMax="714">
      <contour>
        <pt x="154" y="610" on="1"/>
        <pt x="69" y="610" on="1"/>
        <pt x="69" y="714" on="1"/>
        <pt x="154" y="714" on="1"/>
      </contour>
      <contour>
        <pt x="154" y="-66" on="1"/>
        <pt x="154" y="-135" on="0"/>
        <pt x="87" y="-198" on="0"/>
        <pt x="30" y="-198" on="1"/>
        <pt x="19" y="-198" on="0"/>
        <pt x="-3" y="-196" on="0"/>
        <pt x="-14" y="-194" on="1"/>
        <pt x="-14" y="-121" on="1"/>
        <pt x="-5" y="-123" on="0"/>
        <pt x="3" y="-123" on="1"/>
        <pt x="12" y="-123" on="0"/>
        <pt x="21" y="-123" on="1"/>
        <pt x="49" y="-123" on="0"/>
        <pt x="69" y="-92" on="0"/>
        <pt x="69" y="-52" on="1"/>
        <pt x="69" y="517" on="1"/>
        <pt x="154" y="517" on="1"/>
      </contour>
    </TTGlyph>
    <TTGlyph name="jcircumflex" xMin="-39" yMin="-198" xMax="261" yMax="732">
      <component glyphName="dotlessj" x="0" y="0" flags="0x204"/>
      <component glyphName="circumflex" x="0" y="0" flags="0x4"/>
    </TTGlyph>
    <TTGlyph name="k" xMin="69" yMin="0" xMax="519" yMax="714">
      <contour>
        <pt x="69" y="714" on="1"/>
        <pt x="154" y="714" on="1"/>
        <pt x="154" y="291" on="1"/>
        <pt x="390" y="517" on="1"/>
        <pt x="504" y="517" on="1"/>
        <pt x="299" y="329" on="1"/>
        <pt x="519" y="0" on="1"/>
        <pt x="411" y="0" on="1"/>
        <pt x="234" y="270" on="1"/>
        <pt x="154" y="196" on="1"/>
        <pt x="154" y="0" on="1"/>
        <pt x="69" y="0" on="1"/>
      </contour>
    </TTGlyph>
    <TTGlyph name="kcommaaccent" xMin="69" yMin="-210" xMax="519" yMax="714">
      <component glyphName="k" x="0" y="0" flags="0x204"/>
      <component glyphName="commaaccent" x="136" y="0" flags="0x4"/>
    </TTGlyph>
    <TTGlyph name="l" xMin="69" yMin="0" xMax="154" yMax="714">
      <contour>
        <pt x="69" y="714" on="1"/>
        <pt x="154" y="714" on="1"/>
        <pt x="154" y="0" on="1"/>
        <pt x="69" y="0" on="1"/>
      </contour>
    </TTGlyph>
    <TTGlyph name="lacute" xMin="69" yMin="0" xMax="265" yMax="922">
      <component glyphName="l" x="0" y="0" flags="0x204"/>
      <component glyphName="acute" x="20" y="190" flags="0x4"/>
    </TTGlyph>
    <TTGlyph name="lcaron" xMin="69" yMin="0" xMax="339" yMax="714">
      <component glyphName="l" x="0" y="0" flags="0x4"/>
      <component glyphName="carontwo" x="124" y="0" flags="0x4"/>
    </TTGlyph>
    <TTGlyph name="lcommaaccent" xMin="57" yMin="-210" xMax="168" yMax="714">
      <component glyphName="l" x="0" y="0" flags="0x204"/>
      <component glyphName="commaaccent" x="-24" y="0" flags="0x4"/>
    </TTGlyph>
    <TTGlyph name="ldot" xMin="69" yMin="0" xMax="310" yMax="714">
      <component glyphName="l" x="0" y="0" flags="0x4"/>
      <component glyphName="dotaccent" x="154" y="-190" flags="0x4"/>
    </TTGlyph>
    <TTGlyph name="less" xMin="46" yMin="-8" xMax="554" yMax="514">
      <contour>
        <pt x="554" y="446" on="1"/>
        <pt x="129" y="253" on="1"/>
        <pt x="554" y="60" on="1"/>
        <pt x="554" y="-8" on="1"/>
        <pt x="46" y="222" on="1"/>
        <pt x="46" y="284" on="1"/>
        <pt x="554" y="514" on="1"/>
      </contour>
    </TTGlyph>
    <TTGlyph name="lessequal" xMin="43" yMin="-30" xMax="550" yMax="528">
      <contour>
        <pt x="43" y="-30" on="1"/>
        <pt x="43" y="42" on="1"/>
        <pt x="550" y="42" on="1"/>
        <pt x="550" y="-30" on="1"/>
      </contour>
      <contour>
        <pt x="43" y="266" on="1"/>
        <pt x="43" y="341" on="1"/>
        <pt x="550" y="528" on="1"/>
        <pt x="550" y="450" on="1"/>
        <pt x="142" y="304" on="1"/>
        <pt x="550" y="159" on="1"/>
        <pt x="550" y="82" on="1"/>
      </contour>
    </TTGlyph>
    <TTGlyph name="logicalnot" xMin="48" yMin="109" xMax="552" yMax="388">
      <contour>
        <pt x="552" y="109" on="1"/>
        <pt x="484" y="109" on="1"/>
        <pt x="484" y="320" on="1"/>
        <pt x="48" y="320" on="1"/>
        <pt x="48" y="388" on="1"/>
        <pt x="552" y="388" on="1"/>
      </contour>
    </TTGlyph>
    <TTGlyph name="lozenge" xMin="89" yMin="-35" xMax="504" yMax="747">
      <contour>
        <pt x="296" y="671" on="1"/>
        <pt x="165" y="356" on="1"/>
        <pt x="296" y="41" on="1"/>
        <pt x="428" y="356" on="1"/>
      </contour>
      <contour>
        <pt x="332" y="-35" on="1"/>
        <pt x="260" y="-35" on="1"/>
        <pt x="89" y="356" on="1"/>
        <pt x="260" y="747" on="1"/>
        <pt x="332" y="747" on="1"/>
        <pt x="504" y="356" on="1"/>
      </contour>
    </TTGlyph>
    <TTGlyph name="lslash" xMin="-1" yMin="0" xMax="224" yMax="714">
      <contour>
        <pt x="69" y="321" on="1"/>
        <pt x="-1" y="266" on="1"/>
        <pt x="-1" y="337" on="1"/>
        <pt x="69" y="393" on="1"/>
        <pt x="69" y="714" on="1"/>
        <pt x="154" y="714" on="1"/>
        <pt x="154" y="460" on="1"/>
        <pt x="224" y="516" on="1"/>
        <pt x="224" y="445" on="1"/>
        <pt x="154" y="389" on="1"/>
        <pt x="154" y="0" on="1"/>
        <pt x="69" y="0" on="1"/>
      </contour>
    </TTGlyph>
    <TTGlyph name="m" xMin="64" yMin="0" xMax="789" yMax="529">
      <contour>
        <pt x="64" y="517" on="1"/>
        <pt x="144" y="517" on="1"/>
        <pt x="144" y="441" on="1"/>
        <pt x="146" y="441" on="1"/>
        <pt x="204" y="529" on="0"/>
        <pt x="313" y="529" on="1"/>
        <pt x="361" y="529" on="0"/>
        <pt x="439" y="489" on="0"/>
        <pt x="455" y="441" on="1"/>
        <pt x="481" y="483" on="0"/>
        <pt x="567" y="529" on="0"/>
        <pt x="617" y="529" on="1"/>
        <pt x="656" y="529" on="0"/>
        <pt x="719" y="512" on="0"/>
        <pt x="764" y="476" on="0"/>
        <pt x="789" y="419" on="0"/>
        <pt x="789" y="379" on="1"/>
        <pt x="789" y="0" on="1"/>
        <pt x="704" y="0" on="1"/>
        <pt x="704" y="339" on="1"/>
        <pt x="704" y="363" on="0"/>
        <pt x="696" y="405" on="0"/>
        <pt x="674" y="436" on="0"/>
        <pt x="635" y="454" on="0"/>
        <pt x="604" y="454" on="1"/>
        <pt x="542" y="454" on="0"/>
        <pt x="469" y="382" on="0"/>
        <pt x="469" y="322" on="1"/>
        <pt x="469" y="0" on="1"/>
        <pt x="384" y="0" on="1"/>
        <pt x="384" y="339" on="1"/>
        <pt x="384" y="364" on="0"/>
        <pt x="375" y="406" on="0"/>
        <pt x="353" y="437" on="0"/>
        <pt x="315" y="454" on="0"/>
        <pt x="287" y="454" on="1"/>
        <pt x="249" y="454" on="0"/>
        <pt x="197" y="424" on="0"/>
        <pt x="164" y="382" on="0"/>
        <pt x="149" y="337" on="0"/>
        <pt x="149" y="322" on="1"/>
        <pt x="149" y="0" on="1"/>
        <pt x="64" y="0" on="1"/>
      </contour>
    </TTGlyph>
    <TTGlyph name="macron" xMin="-59" yMin="627" xMax="282" yMax="682">
      <contour>
        <pt x="-59" y="682" on="1"/>
        <pt x="282" y="682" on="1"/>
        <pt x="282" y="627" on="1"/>
        <pt x="-59" y="627" on="1"/>
      </contour>
    </TTGlyph>
    <TTGlyph name="macron.cap" xMin="-59" yMin="817" xMax="282" yMax="872">
      <contour>
        <pt x="-59" y="872" on="1"/>
        <pt x="282" y="872" on="1"/>
        <pt x="282" y="817" on="1"/>
        <pt x="-59" y="817" on="1"/>
      </contour>
    </TTGlyph>
    <TTGlyph name="minus" xMin="48" yMin="219" xMax="552" yMax="287">
      <contour>
        <pt x="48" y="287" on="1"/>
        <pt x="552" y="287" on="1"/>
        <pt x="552" y="219" on="1"/>
        <pt x="48" y="219" on="1"/>
      </contour>
    </TTGlyph>
    <TTGlyph name="mu" xMin="64" yMin="-198" xMax="492" yMax="517">
      <contour>
        <pt x="492" y="0" on="1"/>
        <pt x="412" y="0" on="1"/>
        <pt x="412" y="82" on="1"/>
        <pt x="410" y="82" on="1"/>
        <pt x="383" y="34" on="0"/>
        <pt x="298" y="-12" on="0"/>
        <pt x="242" y="-12" on="1"/>
        <pt x="210" y="-12" on="0"/>
        <pt x="164" y="6" on="0"/>
        <pt x="151" y="26" on="1"/>
        <pt x="149" y="26" on="1"/>
        <pt x="149" y="-198" on="1"/>
        <pt x="64" y="-198" on="1"/>
        <pt x="64" y="517" on="1"/>
        <pt x="149" y="517" on="1"/>
        <pt x="149" y="167" on="1"/>
        <pt x="149" y="119" on="0"/>
        <pt x="205" y="63" on="0"/>
        <pt x="254" y="63" on="1"/>
        <pt x="293" y="63" on="0"/>
        <pt x="350" y="87" on="0"/>
        <pt x="388" y="131" on="0"/>
        <pt x="407" y="190" on="0"/>
        <pt x="407" y="225" on="1"/>
        <pt x="407" y="517" on="1"/>
        <pt x="492" y="517" on="1"/>
      </contour>
    </TTGlyph>
    <TTGlyph name="multiply" xMin="71" yMin="24" xMax="530" yMax="482">
      <contour>
        <pt x="71" y="72" on="1"/>
        <pt x="253" y="254" on="1"/>
        <pt x="72" y="434" on="1"/>
        <pt x="120" y="482" on="1"/>
        <pt x="301" y="302" on="1"/>
        <pt x="481" y="482" on="1"/>
        <pt x="529" y="434" on="1"/>
        <pt x="349" y="254" on="1"/>
        <pt x="530" y="72" on="1"/>
        <pt x="482" y="24" on="1"/>
        <pt x="301" y="206" on="1"/>
        <pt x="119" y="24" on="1"/>
      </contour>
    </TTGlyph>
    <TTGlyph name="n" xMin="64" yMin="0" xMax="492" yMax="529">
      <contour>
        <pt x="64" y="517" on="1"/>
        <pt x="144" y="517" on="1"/>
        <pt x="144" y="435" on="1"/>
        <pt x="146" y="435" on="1"/>
        <pt x="173" y="483" on="0"/>
        <pt x="258" y="529" on="0"/>
        <pt x="314" y="529" on="1"/>
        <pt x="365" y="529" on="0"/>
        <pt x="433" y="501" on="0"/>
        <pt x="475" y="451" on="0"/>
        <pt x="492" y="382" on="0"/>
        <pt x="492" y="340" on="1"/>
        <pt x="492" y="0" on="1"/>
        <pt x="407" y="0" on="1"/>
        <pt x="407" y="350" on="1"/>
        <pt x="407" y="398" on="0"/>
        <pt x="351" y="454" on="0"/>
        <pt x="302" y="454" on="1"/>
        <pt x="263" y="454" on="0"/>
        <pt x="206" y="430" on="0"/>
        <pt x="168" y="386" on="0"/>
        <pt x="149" y="327" on="0"/>
        <pt x="149" y="292" on="1"/>
        <pt x="149" y="0" on="1"/>
        <pt x="64" y="0" on="1"/>
      </contour>
    </TTGlyph>
    <TTGlyph name="nacute" xMin="64" yMin="0" xMax="492" yMax="732">
      <component glyphName="n" x="0" y="0" flags="0x204"/>
      <component glyphName="acute" x="192" y="0" flags="0x4"/>
    </TTGlyph>
    <TTGlyph name="napostrophe" xMin="15" yMin="0" xMax="514" yMax="802">
      <component glyphName="n" x="22" y="0" flags="0x4"/>
      <component glyphName="commaaccent" x="-66" y="852" flags="0x4"/>
    </TTGlyph>
    <TTGlyph name="ncaron" xMin="64" yMin="0" xMax="492" yMax="732">
      <component glyphName="n" x="0" y="0" flags="0x204"/>
      <component glyphName="caron" x="168" y="0" flags="0x4"/>
    </TTGlyph>
    <TTGlyph name="ncommaaccent" xMin="64" yMin="-210" xMax="492" yMax="529">
      <component glyphName="n" x="0" y="0" flags="0x204"/>
      <component glyphName="commaaccent" x="140" y="0" flags="0x4"/>
    </TTGlyph>
    <TTGlyph name="nine" xMin="34" yMin="-12" xMax="510" yMax="709">
      <contour>
        <pt x="134" y="171" on="1"/>
        <pt x="139" y="119" on="0"/>
        <pt x="213" y="63" on="0"/>
        <pt x="264" y="63" on="1"/>
        <pt x="342" y="63" on="0"/>
        <pt x="420" y="199" on="0"/>
        <pt x="424" y="337" on="1"/>
        <pt x="422" y="339" on="1"/>
        <pt x="398" y="294" on="0"/>
        <pt x="310" y="241" on="0"/>
        <pt x="258" y="241" on="1"/>
        <pt x="204" y="241" on="0"/>
        <pt x="120" y="276" on="0"/>
        <pt x="63" y="338" on="0"/>
        <pt x="34" y="425" on="0"/>
        <pt x="34" y="478" on="1"/>
        <pt x="34" y="529" on="0"/>
        <pt x="68" y="614" on="0"/>
        <pt x="130" y="675" on="0"/>
        <pt x="216" y="709" on="0"/>
        <pt x="267" y="709" on="1"/>
        <pt x="316" y="709" on="0"/>
        <pt x="405" y="678" on="0"/>
        <pt x="471" y="602" on="0"/>
        <pt x="510" y="470" on="0"/>
        <pt x="510" y="370" on="1"/>
        <pt x="510" y="186" on="0"/>
        <pt x="393" y="-12" on="0"/>
        <pt x="264" y="-12" on="1"/>
        <pt x="219" y="-12" on="0"/>
        <pt x="144" y="11" on="0"/>
        <pt x="88" y="57" on="0"/>
        <pt x="53" y="125" on="0"/>
        <pt x="49" y="171" on="1"/>
      </contour>
      <contour>
        <pt x="409" y="472" on="1"/>
        <pt x="409" y="505" on="0"/>
        <pt x="390" y="563" on="0"/>
        <pt x="353" y="608" on="0"/>
        <pt x="299" y="634" on="0"/>
        <pt x="263" y="634" on="1"/>
        <pt x="225" y="634" on="0"/>
        <pt x="172" y="606" on="0"/>
        <pt x="139" y="559" on="0"/>
        <pt x="124" y="499" on="0"/>
        <pt x="124" y="466" on="1"/>
        <pt x="124" y="437" on="0"/>
        <pt x="145" y="383" on="0"/>
        <pt x="182" y="341" on="0"/>
        <pt x="233" y="316" on="0"/>
        <pt x="264" y="316" on="1"/>
        <pt x="297" y="316" on="0"/>
        <pt x="351" y="341" on="0"/>
        <pt x="389" y="384" on="0"/>
        <pt x="409" y="440" on="0"/>
      </contour>
    </TTGlyph>
    <TTGlyph name="notequal" xMin="43" yMin="-32" xMax="550" yMax="532">
      <contour>
        <pt x="263" y="114" on="1"/>
        <pt x="187" y="-32" on="1"/>
        <pt x="125" y="0" on="1"/>
        <pt x="184" y="114" on="1"/>
        <pt x="43" y="114" on="1"/>
        <pt x="43" y="186" on="1"/>
        <pt x="221" y="186" on="1"/>
        <pt x="288" y="313" on="1"/>
        <pt x="43" y="313" on="1"/>
        <pt x="43" y="384" on="1"/>
        <pt x="326" y="384" on="1"/>
        <pt x="403" y="532" on="1"/>
        <pt x="465" y="500" on="1"/>
        <pt x="404" y="384" on="1"/>
        <pt x="550" y="384" on="1"/>
        <pt x="550" y="313" on="1"/>
        <pt x="367" y="313" on="1"/>
        <pt x="300" y="186" on="1"/>
        <pt x="550" y="186" on="1"/>
        <pt x="550" y="114" on="1"/>
      </contour>
    </TTGlyph>
    <TTGlyph name="ntilde" xMin="64" yMin="0" xMax="492" yMax="717">
      <component glyphName="n" x="0" y="0" flags="0x204"/>
      <component glyphName="tilde" x="165" y="0" flags="0x4"/>
    </TTGlyph>
    <TTGlyph name="numbersign" xMin="34" yMin="0" xMax="522" yMax="697">
      <contour>
        <pt x="231" y="424" on="1"/>
        <pt x="210" y="274" on="1"/>
        <pt x="334" y="274" on="1"/>
        <pt x="355" y="424" on="1"/>
      </contour>
      <contour>
        <pt x="131" y="206" on="1"/>
        <pt x="34" y="206" on="1"/>
        <pt x="34" y="274" on="1"/>
        <pt x="141" y="274" on="1"/>
        <pt x="162" y="424" on="1"/>
        <pt x="60" y="424" on="1"/>
        <pt x="60" y="492" on="1"/>
        <pt x="171" y="492" on="1"/>
        <pt x="200" y="697" on="1"/>
        <pt x="269" y="697" on="1"/>
        <pt x="240" y="492" on="1"/>
        <pt x="364" y="492" on="1"/>
        <pt x="393" y="697" on="1"/>
        <pt x="462" y="697" on="1"/>
        <pt x="433" y="492" on="1"/>
        <pt x="522" y="492" on="1"/>
        <pt x="522" y="424" on="1"/>
        <pt x="424" y="424" on="1"/>
        <pt x="403" y="274" on="1"/>
        <pt x="494" y="274" on="1"/>
        <pt x="494" y="206" on="1"/>
        <pt x="393" y="206" on="1"/>
        <pt x="364" y="0" on="1"/>
        <pt x="295" y="0" on="1"/>
        <pt x="324" y="206" on="1"/>
        <pt x="200" y="206" on="1"/>
        <pt x="171" y="0" on="1"/>
        <pt x="102" y="0" on="1"/>
      </contour>
    </TTGlyph>
    <TTGlyph name="o" xMin="36" yMin="-12" xMax="538" yMax="529">
      <contour>
        <pt x="126" y="258" on="1"/>
        <pt x="126" y="211" on="0"/>
        <pt x="151" y="138" on="0"/>
        <pt x="195" y="89" on="0"/>
        <pt x="254" y="63" on="0"/>
        <pt x="287" y="63" on="1"/>
        <pt x="320" y="63" on="0"/>
        <pt x="379" y="89" on="0"/>
        <pt x="423" y="138" on="0"/>
        <pt x="448" y="211" on="0"/>
        <pt x="448" y="258" on="1"/>
        <pt x="448" y="305" on="0"/>
        <pt x="423" y="378" on="0"/>
        <pt x="379" y="428" on="0"/>
        <pt x="320" y="454" on="0"/>
        <pt x="287" y="454" on="1"/>
        <pt x="254" y="454" on="0"/>
        <pt x="195" y="428" on="0"/>
        <pt x="151" y="378" on="0"/>
        <pt x="126" y="305" on="0"/>
      </contour>
      <contour>
        <pt x="36" y="258" on="1"/>
        <pt x="36" y="315" on="0"/>
        <pt x="68" y="414" on="0"/>
        <pt x="132" y="487" on="0"/>
        <pt x="225" y="529" on="0"/>
        <pt x="287" y="529" on="1"/>
        <pt x="348" y="529" on="0"/>
        <pt x="442" y="487" on="0"/>
        <pt x="506" y="414" on="0"/>
        <pt x="538" y="315" on="0"/>
        <pt x="538" y="258" on="1"/>
        <pt x="538" y="201" on="0"/>
        <pt x="506" y="103" on="0"/>
        <pt x="442" y="30" on="0"/>
        <pt x="348" y="-12" on="0"/>
        <pt x="287" y="-12" on="1"/>
        <pt x="225" y="-12" on="0"/>
        <pt x="132" y="30" on="0"/>
        <pt x="68" y="103" on="0"/>
        <pt x="36" y="201" on="0"/>
      </contour>
    </TTGlyph>
    <TTGlyph name="oacute" xMin="36" yMin="-12" xMax="538" yMax="732">
      <component glyphName="o" x="0" y="0" flags="0x204"/>
      <component glyphName="acute" x="188" y="0" flags="0x4"/>
    </TTGlyph>
    <TTGlyph name="obreve" xMin="36" yMin="-12" xMax="538" yMax="729">
      <component glyphName="o" x="0" y="0" flags="0x204"/>
      <component glyphName="breve" x="177" y="0" flags="0x4"/>
    </TTGlyph>
    <TTGlyph name="ocircumflex" xMin="36" yMin="-12" xMax="538" yMax="732">
      <component glyphName="o" x="0" y="0" flags="0x204"/>
      <component glyphName="circumflex" x="178" y="0" flags="0x4"/>
    </TTGlyph>
    <TTGlyph name="odieresis" xMin="36" yMin="-12" xMax="538" yMax="706">
      <component glyphName="o" x="0" y="0" flags="0x204"/>
      <component glyphName="dieresis" x="176" y="0" flags="0x4"/>
    </TTGlyph>
</ttFont>
